<svg class="icon" viewBox="0 0 1024 1024" xmlns="http://www.w3.org/2000/svg" width="200" height="200"><defs><style/></defs><path d="M344.44 440.188h335.117c13.206 0 23.938-10.718 23.938-23.936 0-13.231-10.73-23.95-23.938-23.95H344.44c-13.23 0-23.937 10.719-23.937 23.95 0 13.22 10.707 23.936 23.937 23.936zm95.748-167.569h143.621c39.647 0 71.81-32.13 71.81-71.8 0-39.668-32.163-71.81-71.81-71.81H440.188c-39.645 0-71.81 32.142-71.81 71.81 0 39.67 32.165 71.8 71.81 71.8zm0-95.735h143.621c13.207 0 23.938 10.705 23.938 23.936 0 13.218-10.73 23.938-23.938 23.938H440.188c-13.23 0-23.937-10.72-23.937-23.938 0-13.23 10.707-23.936 23.937-23.936zm263.307 382.978c0-13.218-10.73-23.925-23.938-23.925H344.44c-13.23 0-23.937 10.707-23.937 23.925 0 13.23 10.706 23.937 23.937 23.937h335.117c13.206 0 23.938-10.708 23.938-23.937zm71.81-382.978h-71.811v47.874h71.81c13.23 0 23.938 10.706 23.938 23.936v574.484c0 13.22-10.707 23.938-23.938 23.938H248.693c-13.232 0-23.937-10.718-23.937-23.938V248.694c0-13.23 10.705-23.936 23.937-23.936h71.81v-47.874h-71.81c-39.646 0-71.81 32.153-71.81 71.81v574.484c0 39.67 32.164 71.814 71.81 71.814h526.611c39.644 0 71.81-32.143 71.81-71.814V248.694c0-39.657-32.165-71.81-71.81-71.81zM344.44 679.557c-13.23 0-23.937 10.707-23.937 23.938 0 13.22 10.706 23.925 23.937 23.925h191.497c13.23 0 23.936-10.705 23.936-23.925 0-13.231-10.706-23.938-23.936-23.938H344.44z"/></svg>