<svg xmlns="http://www.w3.org/2000/svg" width="218.359" height="200"><path d="M188.933 157.6V57.561c0-12.146-11.061-11.019-11.061-11.019s-66.065.078-62.572 0c-3.795.084-5.66-1.989-5.66-1.989s-2.629-4.523-7.357-11.679c-4.958-7.5-10.701-6.274-10.701-6.274h-48.71c-13.495 0-13.645 12.981-13.645 12.981v117.342c0 14.482 10.938 12.686 10.938 12.686h138.71c11.696 0 10.058-12.009 10.058-12.009zM179 151.66a8.09 8.09 0 0 1-8.089 8.088H47.259a8.09 8.09 0 0 1-8.088-8.088V67.92a8.092 8.092 0 0 1 8.088-8.091h123.652A8.092 8.092 0 0 1 179 67.92v83.74zm-13.418-58.663c-2.512 0-3.318 2.268-3.318 3.077l.036 30.542.025 8.962c0 5.508-6.569 7.841-11.882 7.841-4.698 0-11.565-2.492-11.565-7.902V92.139c0-3.913 2.889-5.794 6.674-5.794 5.83 0 6.828 3.575 6.828 6.08v30.557c0 3.948-.563 3.818-1.798 3.818-1.913 0-1.543-.293-1.543-3.736l-.006-20.104s-.014-3.208-3.185-3.208c-3.275 0-3.433 2.167-3.464 2.947l-.04 23.237c0 5.267 5.096 7.354 8.858 7.354 4.688 0 7.766-4.906 7.766-7.856V89.595c0-4.572-5.264-10.005-13.481-10.005-6.727 0-13.138 4.25-13.138 9.839v49.031c0 6.89 11.821 11.413 18.389 11.413 7.435 0 18.262-4.313 18.262-11.354l-.023-42.604c-.002-.806-.415-2.918-3.395-2.918z"/></svg>