<svg class="icon" viewBox="0 0 1024 1024" xmlns="http://www.w3.org/2000/svg" width="200" height="200"><defs><style/></defs><path d="M921.6 978.3L789.333 803.365H819.2c29.867 0 51.2-21.333 51.2-59.733V133.499c0-34.133-25.6-64-55.467-64h-128c-4.266-17.066-17.066-29.866-34.133-29.866H371.2c-17.067 0-29.867 12.8-34.133 29.866h-128c-29.867 0-55.467 29.867-55.467 64v610.134c0 34.133 21.333 59.733 51.2 59.733h29.867L102.4 978.299h819.2zm-648.533-55.467l17.066-29.867h456.534l25.6 29.867h-499.2zm59.733-89.6l21.333-29.867H678.4l25.6 29.867H332.8zm-115.2-294.4V274.299c0-34.133 21.333-59.733 55.467-59.733h477.866c34.134 0 55.467 21.333 55.467 59.733v264.534c0 34.133-21.333 59.733-55.467 59.733H273.067c-34.134 0-55.467-25.6-55.467-59.733zm448-379.734H354.133c-12.8 0-25.6-12.8-25.6-25.6s12.8-25.6 25.6-25.6H665.6c12.8 0 25.6 12.8 25.6 25.6s-12.8 25.6-25.6 25.6zM290.133 688.166c0 25.6-17.066 42.667-42.666 42.667S204.8 713.766 204.8 688.166s17.067-42.667 42.667-42.667 42.666 21.334 42.666 42.667zm529.067 0c0 25.6-17.067 42.667-42.667 42.667s-42.666-17.067-42.666-42.667 17.066-42.667 42.666-42.667c25.6 0 42.667 21.334 42.667 42.667zM473.6 193.233h76.8v422.4h-76.8v-422.4z"/></svg>