<svg class="icon" viewBox="0 0 1024 1024" xmlns="http://www.w3.org/2000/svg" width="200" height="200"><defs><style/></defs><path d="M923.362 338.53c-22.55-53.316-54.826-101.192-95.931-142.298-41.107-41.106-88.981-73.382-142.296-95.932C629.92 76.946 571.287 65.105 510.86 65.105c-60.425 0-119.06 11.841-174.275 35.195-53.314 22.55-101.19 54.827-142.296 95.932s-73.383 88.98-95.932 142.297c-23.353 55.214-35.194 113.847-35.194 174.272 0 60.433 11.842 119.066 35.196 174.28 22.55 53.316 54.826 101.192 95.932 142.296 41.106 41.108 88.98 73.383 142.296 95.933 55.216 23.352 113.848 35.195 174.275 35.195 60.426 0 119.06-11.84 174.274-35.195 53.315-22.55 101.19-54.826 142.296-95.933 41.106-41.105 73.382-88.98 95.931-142.295 23.353-55.214 35.196-113.848 35.196-174.28-.002-60.425-11.844-119.06-35.198-174.273zm-412.5 560.785c-213.122 0-386.51-173.387-386.51-386.514 0-213.122 173.388-386.508 386.51-386.508 213.12 0 386.507 173.387 386.507 386.508 0 213.128-173.388 386.514-386.507 386.514z"/><path d="M636.148 493.218c16.069 0 29.095-13.754 29.095-30.708 0-16.955-13.026-30.7-29.095-30.7h-41.862l46.48-79.307c8.033-13.916 2.634-32.073-12.048-40.55-14.685-8.477-33.1-4.069-41.134 9.847L523.11 431.81h-10.962c-.809-.06-1.623-.1-2.449-.1s-1.641.04-2.45.1h-12.176l-64.49-110.01c-8.035-13.916-26.45-18.324-41.134-9.846-14.683 8.476-20.081 26.633-12.047 40.55l46.48 79.307h-36.555c-16.068 0-29.094 13.744-29.094 30.699 0 16.954 13.026 30.708 29.094 30.708h91.657v52.057H385.28c-16.068 0-29.093 13.745-29.093 30.7 0 16.954 13.025 30.7 29.093 30.7h93.704v137.704c0 16.068 13.745 29.094 30.717 29.094 16.955 0 30.7-13.026 30.7-29.094V606.674h93.701c16.07 0 29.095-13.745 29.095-30.699 0-16.955-13.026-30.7-29.095-30.7H540.4v-52.057h95.748z"/></svg>