<svg xmlns="http://www.w3.org/2000/svg" width="200" height="200"><path d="M100 195.666c-52.078 0-94.444-42.366-94.444-94.443C5.556 49.145 47.922 6.778 100 6.778s94.444 42.367 94.444 94.445c0 52.077-42.366 94.443-94.444 94.443zm0-178.944c-46.594 0-84.5 37.906-84.5 84.5 0 46.6 37.906 84.505 84.5 84.505 46.6 0 84.506-37.905 84.506-84.505 0-46.594-37.906-84.5-84.506-84.5z"/><path d="M47.811 94.739c-.003 8.236 6.669 14.914 14.904 14.917 8.235.004 14.915-6.669 14.918-14.904v-.013c0-8.235-6.676-14.911-14.911-14.911s-14.911 6.676-14.911 14.911zm39.767 0c0 8.236 6.676 14.912 14.911 14.912 8.236 0 14.912-6.676 14.912-14.912.004-8.235-6.67-14.914-14.904-14.917-8.236-.004-14.915 6.669-14.918 14.904l-.001.013zm39.761 0c-.004 8.236 6.669 14.914 14.904 14.917s14.914-6.669 14.918-14.904v-.013c.003-8.235-6.669-14.914-14.904-14.917-8.235-.004-14.914 6.669-14.918 14.904v.013z"/></svg>