<svg class="icon" viewBox="0 0 1024 1024" xmlns="http://www.w3.org/2000/svg" width="200" height="200"><defs><style/></defs><path d="M838.691 63.699H261.518c-.274 0-.51.037-.802.054-.273-.018-.528-.054-.8-.054-63.205 0-114.635 51.43-114.635 114.615v670.078c0 8.445 3.404 16.488 9.482 22.313l93.651 90.32c12.01 11.557 31.01 11.557 43.022 0l95.543-92.14 99.129 95.579c12.01 11.611 31.028 11.611 43.04 0l99.129-95.579 99.147 95.579a30.918 30.918 0 0 0 21.492 8.7 30.972 30.972 0 0 0 21.53-8.7l89.738-86.516a31.034 31.034 0 0 0 9.481-22.313V288.817c49.92-13.321 86.753-57.763 86.753-110.503 0-63.185-52.813-114.615-117.727-114.615zM807.698 842.46l-58.782 56.708-99.147-95.616c-11.993-11.593-30.992-11.593-43.002 0l-99.129 95.616-99.147-95.616c-12.012-11.593-31.011-11.593-43.022 0l-95.543 92.121-62.676-60.419V178.315c0-29.045 23.622-52.667 52.666-52.667.255 0 .491-.073.728-.073.309 0 .582.073.874.073h.108c30.701.072 55.652 23.676 55.652 52.667 0 29.046-25.006 52.685-55.761 52.685-17.125 0-30.975 13.85-30.975 30.956 0 17.125 13.85 31.011 30.975 31.011h546.18V842.46zM838.691 231H366.069c8.407-15.815 13.194-33.722 13.194-52.685s-4.786-36.87-13.194-52.667H838.69c30.755 0 55.761 23.622 55.761 52.667S869.446 231 838.691 231zM373.608 506.742v210.34h27.656V454.704c12.251-25.716 23.897-53.737 34.936-84.064l-28.385-9.825c-17.468 57.014-44.762 112.449-81.88 166.307 3.639 8.735 7.52 19.652 11.645 32.752 12.494-16.011 24.502-33.72 36.028-53.13zm81.152 210.34h27.657v-19.286h140.47v19.287h27.657V543.862H454.76v173.22zm27.658-148.475h140.47v40.394h-140.47v-40.394zm0 64.413h140.47v40.03h-140.47v-40.03zm5.822-144.11h-61.5v24.747h257.649V488.91h-68.414v-51.676h55.313V412.49h-55.313v-50.22h-27.657v50.22h-72.42v-50.22H488.24v50.22h-46.944v24.745h46.944v51.676zm27.657-51.675h72.42v51.676h-72.42v-51.676z"/></svg>