<svg xmlns="http://www.w3.org/2000/svg" width="200" height="200"><path d="M157.452 162.15H44.546c-10.388 0-18.811-8.422-18.811-18.81V58.66c0-10.388 8.422-18.81 18.811-18.81h112.906c10.39 0 18.812 8.422 18.812 18.81v84.688c.01 10.375-8.397 18.793-18.773 18.803l-.039-.001m-112.906-9.393h112.906c5.197 0 9.417-4.215 9.417-9.416V77.486H35.153v65.855c0 5.201 4.213 9.416 9.393 9.416M157.452 49.266H44.546c-5.195 0-9.416 4.214-9.416 9.417V68.1h131.716v-9.432a9.362 9.362 0 0 0-9.325-9.401l-.069-.001M49.266 105.705h47.029a4.703 4.703 0 0 1 4.43 4.964 4.703 4.703 0 0 1-4.43 4.429H49.266a4.68 4.68 0 0 1-4.696-4.666v-.03a4.68 4.68 0 0 1 4.666-4.696l.03-.001m0 18.811h37.636a4.703 4.703 0 0 1 0 9.393H49.266a4.682 4.682 0 0 1-4.696-4.668v-.029a4.67 4.67 0 0 1 4.651-4.695l.045-.001m65.855-18.811h9.416a4.704 4.704 0 0 1 0 9.393h-9.416a4.696 4.696 0 0 1 0-9.393z"/></svg>