<svg class="icon" viewBox="0 0 1024 1024" xmlns="http://www.w3.org/2000/svg" width="200" height="200"><defs><style/></defs><path d="M966.4 449.6c3.2 20.8 4 41.6 4 63.2 0 248-201.6 449.6-449.6 449.6S71.2 760.8 71.2 512.8 272.8 63.2 520.8 63.2c18.4 0 37.6 1.6 56 3.2 7.2.8 15.2 2.4 22.4 3.2l-12 62.4c-21.6-4-44-5.6-67.2-5.6-213.6 0-386.4 172.8-386.4 386.4 0 213.6 172.8 386.4 386.4 386.4s386.4-172.8 386.4-386.4c0-19.2-1.6-38.4-4-57.6l64-5.6z"/><path d="M678.4 219.2l99.2-99.2c12-12 22.4-8 22.4 9.6v80h118.4c17.6 0 32 14.4 32 32s-14.4 32-32 32H800v81.6c0 17.6-9.6 21.6-22.4 9.6l-99.2-99.2c-12-13.6-12-33.6 0-46.4zM535.2 678.4c-26.4-.8-48-3.2-65.6-7.2-16.8-4.8-30.4-15.2-43.2-28.8-5.6-7.2-10.4-10.4-15.2-10.4-8 0-23.2 18.4-44.8 56l-28.8-27.2c20.8-33.6 39.2-55.2 56-63.2V480h-56v-36.8h92.8v157.6l5.6 5.6c9.6 11.2 19.2 19.2 29.6 24.8 12 5.6 30.4 9.6 54.4 10.4 23.2.8 50.4.8 82.4.8 20 0 40.8-.8 62.4-.8 20.8-.8 36.8-1.6 48-2.4l-9.6 39.2h-96c-21.6.8-45.6.8-72 0zm-94.4-307.2l-28.8 28c-16-20.8-39.2-43.2-69.6-67.2l27.2-26.4c28 22.4 52 44 71.2 65.6zm257.6-49.6V360h-92.8c-4 11.2-8.8 22.4-14.4 32.8v232.8H552V456c-24 31.2-53.6 59.2-88 84.8L439.2 508c60-41.6 102.4-90.4 127.2-148H456v-38.4h242.4zm14.4 196.8l-33.6 23.2c-20.8-36-48.8-75.2-83.2-117.6l30.4-22.4c38.4 44 66.4 83.2 86.4 116.8z"/></svg>