<svg class="icon" viewBox="0 0 1024 1024" xmlns="http://www.w3.org/2000/svg" width="200" height="200"><defs><style/></defs><path d="M382.066 256.922H628.85c76.366 0 134.619-165.553 134.619-165.553 0-49.58-4.966-87.091-89.763-89.734-84.772-2.67-105.081 59.258-166.004 59.258-62.444 0-93.678-48.684-170.518-59.258-76.815-10.624-89.737 40.153-89.737 89.734 0 0 58.228 165.553 134.619 165.553zm260.255 51.177H382.066c-288.2 0-358.976 566.012-358.976 566.012 0 74.346 60.275 149.018 134.619 149.018h708.944c74.345 0 134.618-74.672 134.618-149.018 0 0-70.8-566.012-358.95-566.012zm29.54 435.001c17.363 0 31.435 14.092 31.435 31.45 0 17.358-14.07 31.45-31.436 31.45H544.252v82.5c0 17.357-14.071 31.45-31.41 31.45-17.363 0-31.433-14.093-31.433-31.45V806H352.976c-17.363 0-31.434-14.091-31.434-31.448 0-17.36 14.071-31.45 31.434-31.45h128.433v-39.903H352.976c-17.363 0-31.434-14.067-31.434-31.425 0-17.359 14.071-31.475 31.434-31.475h86.819l-88.89-157.92c-8.681-15.064-3.517-34.268 11.502-42.946 15.042-8.68 34.253-3.542 42.935 11.471l107.027 189.395h5.413l107.026-189.395c8.681-15.013 27.892-20.152 42.91-11.471 15.045 8.678 20.21 27.882 11.527 42.946l-88.89 157.92h81.505c17.364 0 31.436 14.115 31.436 31.475 0 17.357-14.07 31.425-31.436 31.425H544.252V743.1H671.86z"/></svg>