<svg class="icon" viewBox="0 0 1024 1024" xmlns="http://www.w3.org/2000/svg" width="200" height="200"><defs><style/></defs><path d="M321.619 921.292c-36.818 0-72.858-10.702-104.335-31.382-42.575-27.972-71.71-70.848-82.036-120.732-10.326-49.883-.609-100.802 27.363-143.377l268.743-409.053c36.955-56.249 93.601-94.74 159.505-108.382 65.905-13.643 133.175-.804 189.425 36.15 56.248 36.955 94.739 93.602 108.382 159.506 13.642 65.904.805 133.176-36.15 189.424l-207.568 315.94c-11.335 17.251-34.511 22.05-51.765 10.714-17.253-11.335-22.051-34.51-10.715-51.765l207.57-315.937c25.99-39.56 35.018-86.872 25.423-133.222-9.594-46.35-36.665-86.189-76.224-112.179-39.559-25.99-86.873-35.018-133.22-25.425-46.35 9.595-86.19 36.665-112.179 76.224L225.092 666.851c-17.008 25.885-22.915 56.843-16.637 87.173 6.278 30.329 23.991 56.398 49.877 73.405 53.321 35.032 125.294 20.212 160.44-33.031l237.95-360.475c7.998-12.117 10.79-26.623 7.863-40.843-2.927-14.221-11.222-26.444-23.358-34.416-25.012-16.434-58.73-9.453-75.16 15.56L390.15 641.984c-11.335 17.252-34.512 22.052-51.765 10.716-17.254-11.336-22.051-34.511-10.716-51.765l175.916-267.763c39.068-59.463 119.228-76.058 178.691-36.99 28.85 18.954 48.571 48.012 55.532 81.822 6.96 33.81.321 68.295-18.695 97.103l-237.95 360.475c-28.02 42.449-70.888 71.475-120.705 81.731a192.703 192.703 0 0 1-38.839 3.978z"/></svg>