<svg class="icon" viewBox="0 0 1110 1024" xmlns="http://www.w3.org/2000/svg" width="216.797" height="200"><defs><style/></defs><path d="M1110.704 267.95v194.364c0 11.677-2.554 19.826-7.784 24.813-5.108 4.622-13.38 8.392-24.57 10.338-14.351 1.946-28.217 10.096-40.988 23.84-12.893 13.744-19.218 32.84-19.218 57.166 0 16.176 2.676 29.677 7.784 40.624 5.109 11.433 11.434 20.19 18.488 27.123 7.176 6.933 14.352 12.042 21.407 15.447 7.298 3.163 12.893 4.744 17.028 4.744 11.433 2.068 18.853 6.325 22.258 12.041 3.406 5.595 5.352 14.474 5.352 26.272v229.394c0 29.677-5.838 59.72-17.028 70.423-11.19 10.825-30.894 15.569-58.626 14.353-8.27 0-14.717.486-36.853.73-22.015.607-44.152.73-66.775.73h-11.555V173.565h115.305c32.11 0 52.422 5.96 61.666 18.122 9.366 12.528 14.11 47.558 14.11 76.262zM32.944 173.566c-8.028 0-14.839 3.284-19.46 10.46-4.501 6.933-6.934 22.988-7.663 31.623-.487 8.636 1.46 23.11 5.716 31.502 4.014 8.393 10.825 14.353 20.19 17.515 9.245 3.284 16.786 8.514 22.502 16.055 5.717 7.298 8.88 41.233 10.095 50.112.73 9.122-1.337 17.88-6.324 26.393-5.352 8.514-13.988 14.84-26.394 18.974-9.122 4.136-16.785 10.582-22.258 19.218-5.595 8.636-9 17.271-9.244 26.272-.608 9.244 1.46 17.636 5.96 25.785 4.5 7.785 12.041 13.501 22.501 16.664 12.163 3.162 21.772 9.487 28.462 18 6.568 9.245 10.095 18.367 10.825 28.219.486 9.487-2.19 18.974-7.663 28.705-5.96 9.487-14.109 16.298-25.664 20.555-10.217 4.5-18.001 10.825-23.11 19.217-5.23 8.636-7.905 17.637-8.514 27.246-.608 9.608 1.338 18.73 5.352 27.123 4.014 8.514 10.217 15.082 18.366 19.217 25.664 12.893 39.043 28.34 39.895 46.341 1.216 18.002-8.514 32.354-29.07 43.179-9.244 4.135-16.785 10.825-22.258 19.825-5.838 9.001-8.879 18.61-9.487 28.705-.487 10.095 1.46 19.218 5.717 27.002 4.013 8.392 10.825 13.622 19.947 17.028 12.406 3.284 21.893 9 28.704 17.515 6.447 8.27 9.852 17.393 10.46 26.758.73 9.852-1.824 19.218-7.662 28.705-5.595 9.73-14.474 17.636-26.759 24.082-8.392 4.136-14.23 10.947-17.88 19.826-3.77 9.244-4.986 17.88-4.013 26.394 1.216 8.514 3.892 25.907 8.636 32.596 4.5 7.177 10.946 10.46 19.339 10.46h804.945v-847.27H32.944zM274.622 520.21c33.57-33.083 68.356-76.748 103.385-130.144l3.406-5.108 38.313 22.015-3.892 5.838c-.608.851-1.095 1.703-1.703 2.554h.73c87.087-2.19 162.01-7.176 222.826-15.082l6.081-.73 8.27 42.328-7.054.73c-29.19 3.04-59.963 5.716-91.465 8.027v40.38h134.279v41.233h-134.4v38.557h111.534v40.99H405.13v-41.233h104.236v-38.557h-121.02v-41.232h121.021v-37.462a3807.037 3807.037 0 0 1-88.546 3.892l-5.595.243-.973-5.595c-1.581-9-3.527-18.61-5.595-28.583a1478.6 1478.6 0 0 1-29.678 41.72v161.523h-43.665V519.36c-10.581 11.92-20.798 22.623-30.65 32.11l-5.109 4.865-4.622-5.352c-5.23-6.568-12.041-13.744-20.19-21.407l-4.987-4.621 4.865-4.744zm416.46 165.66c-3.04 21.528-6.325 40.867-9.852 57.287-5.717 28.461-25.177 43.544-56.193 43.544h-47.922c-33.448 0-51.084-18.245-51.084-52.666v-58.869H425.808v1.216c0 35.395-9.122 62.396-27.245 80.276l-.122.122c-19.826 18.122-51.328 32.84-93.898 44.03l-4.5 1.216-2.554-3.892c-5.839-9-12.772-18.488-20.434-28.097l-6.325-7.906 9.852-2.432c40.503-10.095 67.991-20.92 81.613-32.232l.122-.122c12.163-9.608 18.366-27.488 18.366-53.273v-39.165h190.715v91.952c0 15.447 7.298 17.636 15.204 17.636h27.367c18.852 0 23.11-9.244 24.69-16.177 2.92-13.257 5.596-32.232 8.028-56.436l.973-9.122 8.271 3.892c8.514 4.014 18.853 8.15 30.894 12.406l4.987 1.825-.73 4.987z"/></svg>