<svg class="icon" viewBox="0 0 1024 1024" xmlns="http://www.w3.org/2000/svg" width="200" height="200"><defs><style/></defs><path d="M311.118 155.599c-38.113 0-69.073 31.008-69.073 69.121v132.022H380.19V224.72c0-38.113-30.96-69.121-69.073-69.121zm28.14 160.21H284V224.72c0-15.36 12.27-27.854 27.63-27.854s27.629 12.494 27.629 27.854v91.09zM503.5 155.599c-38.114 0-69.074 31.008-69.074 69.121v132.022h138.147V224.72c0-38.113-30.96-69.121-69.074-69.121zm28.14 160.21h-56.282V224.72c0-15.36 12.783-27.854 28.141-27.854 15.36 0 28.141 12.494 28.141 27.854v91.09zm-220.522 85.325c-38.113 0-69.073 31.008-69.073 69.121v295.81H380.19v-295.81c0-38.113-30.96-69.121-69.073-69.121zm28.14 322.975H284V470.255c0-15.36 12.27-27.854 27.63-27.854s27.629 12.494 27.629 27.854V724.11zM503.5 401.134c-38.114 0-69.074 31.008-69.074 69.121v295.81h138.147v-295.81c0-38.113-30.96-69.121-69.074-69.121zm28.14 322.975h-56.282V470.255c0-15.36 12.783-27.854 28.141-27.854 15.36 0 28.141 12.494 28.141 27.854V724.11z"/><path d="M939.084 829.51h-49.287V279.397c0-62.575-49.077-114.013-111.652-114.013h-110.57c-8.018-54.236-55.3-97.214-112.269-97.214H262.314c-62.575 0-114.414 51.677-114.414 114.252V829.51H86.932c-11.396 0-21.92 10.035-21.92 21.43v86.66c0 11.394 10.524 19.824 21.92 19.824h852.152c11.396 0 19.275-8.43 19.275-19.825v-86.66c0-11.395-7.88-21.43-19.275-21.43zm-90.219-550.112V829.51H667.74V206.317h110.405c39.82-.001 70.72 33.261 70.72 73.081zm-660.032-96.976c0-39.82 33.661-73.32 73.481-73.32h292.992c39.82 0 70.478 33.5 70.478 73.32v647.087H188.833V182.422zM917.427 916.49H105.945v-46.048h811.482v46.048z"/></svg>