<svg class="icon" viewBox="0 0 1025 1024" xmlns="http://www.w3.org/2000/svg" width="200.195" height="200"><defs><style/></defs><path d="M708.383 957.297a24.5 24.5 0 0 1-17.376-7.197L298.07 557.163c-25.55-25.55-25.55-67.122 0-92.672.124-.124.25-.247.376-.368L705.748 73.902c9.8-9.388 25.355-9.056 34.744.744s9.057 25.356-.744 34.745L332.677 499.39a16.272 16.272 0 0 0-4.653 11.437 16.27 16.27 0 0 0 4.8 11.583L725.76 915.346c9.595 9.597 9.595 25.155 0 34.752a24.497 24.497 0 0 1-17.377 7.199z"/></svg>