<svg class="icon" viewBox="0 0 1025 1024" xmlns="http://www.w3.org/2000/svg" width="200.195" height="200"><defs><style/></defs><path d="M84.883 690.682a24.494 24.494 0 0 1 6.897-17.497l386.13-399.639c25.107-25.985 66.674-26.7 92.661-1.594.126.122.251.245.375.37L968.13 672.849c9.556 9.637 9.491 25.196-.147 34.752-9.637 9.556-25.197 9.49-34.753-.146l-396.957-400.3a16.274 16.274 0 0 0-11.515-4.457 16.281 16.281 0 0 0-11.5 4.997l-386.13 399.64c-9.431 9.76-24.987 10.027-34.748.598a24.502 24.502 0 0 1-7.496-17.25z"/></svg>