<svg class="icon" viewBox="0 0 1025 1024" xmlns="http://www.w3.org/2000/svg" width="200.195" height="200"><defs><style/></defs><path d="M84.883 277.73a24.494 24.494 0 0 0 6.897 17.498l386.13 399.639c25.107 25.985 66.674 26.7 92.661 1.594.126-.122.251-.245.375-.37L968.13 295.565c9.556-9.637 9.491-25.196-.147-34.752-9.637-9.556-25.197-9.49-34.753.147l-396.957 400.3a16.274 16.274 0 0 1-11.515 4.456 16.277 16.277 0 0 1-11.5-4.997l-386.13-399.64c-9.431-9.76-24.987-10.026-34.748-.597a24.502 24.502 0 0 0-7.496 17.25z"/></svg>