<?xml version="1.0" standalone="no"?><!DOCTYPE svg PUBLIC "-//W3C//DTD SVG 1.1//EN" "http://www.w3.org/Graphics/SVG/1.1/DTD/svg11.dtd"><svg t="1530754104532" class="icon" style="" viewBox="0 0 1024 1024" version="1.1" xmlns="http://www.w3.org/2000/svg" p-id="9918" xmlns:xlink="http://www.w3.org/1999/xlink" width="500" height="500"><defs><style type="text/css"></style></defs><path d="M1019.307 809.54l-54.938-39.73c0-7.46 2.39-14.917 2.39-24.85s0-17.39-2.39-24.832l50.142-42.223c4.779-4.966 4.779-9.933 2.406-14.916l-47.77-86.92c-2.406-2.492-7.184-4.967-14.335-2.492l-59.717 24.832c-11.93-9.933-26.265-17.391-40.601-24.832l-9.557-64.58c2.389-7.459-4.78-12.425-9.575-12.425h-95.54c-4.76 0-11.929 4.966-11.929 9.933l-9.574 67.072c-14.319 4.966-26.266 14.899-40.602 24.832l-57.31-24.832c-7.168-2.492-11.946 0-16.708 4.966l-47.77 86.92c-2.389 2.492 0 9.95 4.762 14.917l50.16 39.73c0 7.46-2.407 14.9-2.407 24.833s0 17.408 2.406 24.849l-50.159 42.223c-4.761 4.966-4.761 9.933-2.39 14.9l47.77 86.937c2.39 2.491 7.168 4.966 14.336 2.491l59.717-24.832c11.93 9.933 26.265 17.391 40.601 24.832l9.558 64.58c0 4.967 4.778 9.934 11.93 9.934h95.556c4.778 0 11.93-4.967 11.93-9.933l9.574-64.58c14.318-7.459 28.654-14.9 40.601-24.833l59.7 24.832c4.778 2.492 11.946 0 14.335-4.966l47.787-86.938c2.39-4.966 2.39-12.424-2.39-14.899zM787.61 831.88c-45.38 0-83.576-39.73-83.576-86.937 0-47.19 38.195-86.938 83.576-86.938s83.592 39.749 83.592 86.938c0.017 47.206-38.195 86.938-83.592 86.938zM582.4 329.95h-41.609v-84.514C540.81 127.096 449.28 34.133 332.8 34.133s-208.009 92.962-208.009 211.303v84.514H83.2C37.427 329.95 0 367.99 0 414.464v422.605c0 46.49 37.427 84.531 83.2 84.531h406.58c-29.117-50.244-46.047-108.425-46.047-170.667 0-146.415 92.365-270.933 221.867-319.42v-17.049c0-46.473-37.444-84.514-83.2-84.514z m-120.644 0H203.827v-84.514c0-71.85 58.249-131.021 128.973-131.021 70.724 0 128.956 59.17 128.956 131.02v84.515z" p-id="9919"></path></svg>