<svg xmlns="http://www.w3.org/2000/svg" viewBox="0 0 300 300"><path d="M172.2 88.9c0 18.4 14.9 33.3 33.3 33.3s33.3-14.9 33.3-33.3-14.9-33.3-33.3-33.3c-18.3-.1-33.3 14.9-33.3 33.3zM172.2 211.1c0 18.4 14.9 33.3 33.3 33.3s33.3-14.9 33.3-33.3-14.9-33.3-33.3-33.3c-18.3 0-33.3 14.9-33.3 33.3z"/><path d="M116.7 129.3l72.9-40.4 5.4 9.7-73 40.4-5.3-9.7zm2.2 42.2l72.9 40.4 5.4-9.7-72.9-40.4-5.4 9.7z"/><path d="M100 100c-27.6 0-50 22.4-50 50s22.4 50 50 50 50-22.4 50-50-22.4-50-50-50zm13.4 58.5c1.8 0 3.3 1.6 3.3 3.6s-1.5 3.6-3.3 3.6h-10.1v8.6c0 2-1.5 3.6-3.3 3.6s-3.3-1.6-3.3-3.6v-8.6H86.6c-1.8 0-3.3-1.6-3.3-3.6s1.5-3.6 3.3-3.6h10.2v-7.1H86.7c-1.8 0-3.3-1.6-3.3-3.6s1.5-3.6 3.3-3.6h7l-7.1-10.7c-1.1-1.6-.8-3.8.7-5 .1-.1.2-.1.3-.2 1.4-.9 3.3-.5 4.2 1l8.4 12.6 8.4-12.7c.1-.1.1-.2.2-.3 1.1-1.3 3.1-1.6 4.4-.5 1.5 1.3 1.8 3.4.7 5l-7.1 10.7h6.6c1.8 0 3.3 1.6 3.3 3.6s-1.5 3.6-3.3 3.6l-10.1.1v7.1h10.1z"/></svg>