<svg class="icon" viewBox="0 0 1120 1024" xmlns="http://www.w3.org/2000/svg" width="328.125" height="300"><defs><style/></defs><path d="M450.133 840.533C439.467 832 428.8 823.467 416 819.2c-12.8-4.267-25.6-8.533-40.533-8.533S345.6 812.8 334.933 819.2c-12.8 4.267-23.466 12.8-34.133 21.333-10.667 10.667-17.067 21.334-23.467 34.134-4.266 12.8-8.533 25.6-8.533 40.533s2.133 27.733 8.533 40.533c4.267 12.8 12.8 23.467 23.467 34.134 10.667 8.533 21.333 17.066 34.133 23.466 12.8 6.4 25.6 8.534 40.534 8.534s27.733-2.134 40.533-8.534 23.467-12.8 34.133-23.466c10.667-8.534 17.067-21.334 23.467-34.134 4.267-12.8 8.533-25.6 8.533-40.533S480 887.467 473.6 874.667c-6.4-12.8-12.8-23.467-23.467-34.134zm473.6 2.134C915.2 834.133 902.4 825.6 889.6 821.333c-12.8-4.266-27.733-8.533-42.667-8.533s-27.733 2.133-40.533 8.533c-12.8 4.267-23.467 12.8-34.133 21.334C763.733 853.333 755.2 864 748.8 876.8c-6.4 12.8-8.533 25.6-8.533 40.533s2.133 27.734 8.533 40.534c6.4 12.8 12.8 23.466 23.467 34.133 10.666 8.533 21.333 17.067 34.133 23.467 12.8 6.4 25.6 8.533 40.533 8.533s27.734-2.133 42.667-8.533c12.8-6.4 25.6-12.8 34.133-23.467 8.534-8.533 17.067-21.333 23.467-34.133 6.4-12.8 8.533-25.6 8.533-40.534S953.6 889.6 947.2 876.8c-6.4-12.8-12.8-23.467-23.467-34.133zm192-646.4c-4.266-8.534-12.8-14.934-25.6-21.334s-27.733-8.533-49.066-8.533H262.4c-2.133-14.933-4.267-29.867-6.4-42.667-2.133-10.666-4.267-21.333-4.267-34.133-2.133-10.667-4.266-19.2-6.4-25.6 0-4.267-2.133-10.667-4.266-19.2-2.134-6.4-6.4-14.933-12.8-21.333-4.267-6.4-12.8-12.8-21.334-17.067C198.4 2.133 185.6 0 170.667 0h-115.2C38.4 0 23.467 4.267 12.8 14.933 4.267 25.6 0 36.267 0 53.333c0 8.534 0 14.934 2.133 25.6C4.267 87.467 6.4 96 12.8 104.533c4.267 8.534 10.667 14.934 19.2 21.334s17.067 8.533 27.733 8.533h85.334c17.066 93.867 34.133 179.2 49.066 256 6.4 32 12.8 66.133 19.2 98.133 6.4 32 10.667 61.867 17.067 87.467 4.267 25.6 8.533 46.933 12.8 66.133 4.267 17.067 6.4 27.734 6.4 32 0 8.534 2.133 21.334 6.4 34.134s10.667 25.6 17.067 36.266c6.4 10.667 14.933 19.2 25.6 25.6 10.666 6.4 23.466 10.667 38.4 10.667H934.4c21.333 0 36.267-6.4 42.667-17.067 6.4-10.666 10.666-23.466 10.666-38.4 0-32-19.2-46.933-55.466-46.933H358.4L341.333 576h597.334c21.333 0 40.533-6.4 55.466-17.067 14.934-12.8 27.734-32 38.4-64 4.267-14.933 10.667-34.133 19.2-59.733 8.534-25.6 17.067-51.2 25.6-74.667 8.534-25.6 17.067-49.066 23.467-70.4 6.4-21.333 12.8-36.266 14.933-42.666 2.134-6.4 4.267-14.934 4.267-23.467s0-19.2-4.267-27.733z"/></svg>