<svg xmlns="http://www.w3.org/2000/svg" viewBox="0 0 300 300"><path d="M124 285.5H61.6c-17.6 0-31.9-12.8-31.9-28.7v-214C29.7 27 44 14.2 61.6 14.2h163c17.6 0 31.9 12.8 31.9 28.7V141c0 5.3-4.8 9.6-10.6 9.6-5.9 0-10.6-4.3-10.6-9.6V42.9c0-5.3-4.8-9.6-10.6-9.6h-163c-5.9 0-10.6 4.3-10.6 9.6v214c0 5.3 4.8 9.6 10.6 9.6H124c5.9 0 10.6 4.3 10.6 9.6 0 5.2-4.7 9.4-10.6 9.4z"/><path d="M177.6 85.5H85.7c-5.8 0-10.5-4.7-10.5-10.5s4.7-10.5 10.5-10.5h91.9c5.8 0 10.5 4.7 10.5 10.5s-4.7 10.5-10.5 10.5zm-46 74.9H85.7c-5.8 0-10.5-4.7-10.5-10.5s4.7-10.5 10.5-10.5h45.9c5.8 0 10.5 4.7 10.5 10.5s-4.7 10.5-10.5 10.5zM113.8 235H85.7c-5.8 0-10.5-4.7-10.5-10.5S79.9 214 85.7 214h28.1c5.8 0 10.5 4.7 10.5 10.5s-4.7 10.5-10.5 10.5zm96.5-77.5c-39.2 0-71.1 31.9-71.1 71.1s31.9 71.1 71.1 71.1 71.1-31.9 71.1-71.1-31.9-71.1-71.1-71.1zm0 124.6c-29.6 0-53.6-24-53.6-53.6s24-53.6 53.6-53.6 53.6 24 53.6 53.6-24.1 53.6-53.6 53.6z"/><path d="M237.2 237.7c-2.2 0-4.4-.8-6.1-2.5l-20.9-20.9-20.9 20.9c-3.4 3.4-8.8 3.4-12.2 0-3.4-3.4-3.4-8.8 0-12.2l27-26.9c1.6-1.6 3.8-2.5 6.1-2.5s4.5.9 6.1 2.5l26.9 27c3.4 3.4 3.4 8.8 0 12.2-1.6 1.5-3.8 2.4-6 2.4z"/><path d="M210.3 263.7c-4.7 0-8.6-3.9-8.6-8.6V226c0-4.7 3.9-8.6 8.6-8.6s8.6 3.9 8.6 8.6v29.1c0 4.7-3.9 8.6-8.6 8.6z"/></svg>