<svg xmlns="http://www.w3.org/2000/svg" viewBox="0 0 300 300"><path d="M186 173.3H57.5V49.2h169.2V108h2.9c-.1.2 8.2-.5 8.8 0h2.9V40.9c0-3.4-2.8-6.2-6.2-6.2h-.3c-.3 0-.5-.1-.8-.1H49.5c-.5 0-.9.1-1.3.1-2.9.5-5.2 3-5.2 6.1v140.6c0 2.1 1.1 4 2.8 5.2 1.1.8 2.3 1.3 3.8 1.3H105c-.1.1-.1.2-.1.4v19.6c0 .3.2.5.5.5H68.7c-.3 0-.5.2-.5.5v19.6c0 .3.2.5.5.5h144.1c.3 0 .5-.2.5-.5v-19.6c0-.2-.2-.4-.5-.4h-35.2c.3 0 .5-.2.5-.5v-19.6c0-.1-.1-.3-.1-.4h8.1"/><path d="M87.3 109h17.6v36.3H87.3V109zm36-18.2h17.6v54.5h-17.6V90.8zm35.8-18.1h18.5v72.7h-18.5V72.7zM238.4 115.3l-12 7.2v6.4l18-10.8c-1.9-1-3.9-2-6-2.8zm24.8 33.4l-17.3 10.5 4.9 2.8 12.3-7.4c.1-1.1.2-2.2.2-3.3 0-.9 0-1.7-.1-2.6zm-14.9-27.9l-21.9 13.1v7.8l27-16.2c-1.6-1.7-3.3-3.2-5.1-4.7zm11 13.5c-.9-1.9-2-3.7-3.2-5.3l-29.7 17.8v1.2l5.2 3 27.7-16.7zm-17.6 22.5l20.9-12.7c-.4-2-.9-4-1.6-5.9l-25.3 15.1 6 3.5zm-15.3-43.9v4.7l6.5-3.9c-2.2-.4-4.3-.7-6.5-.8zm33.4 54.3c1-2.3 1.8-4.6 2.4-7.1l-7.2 4.4 4.8 2.7zm-7.8-.9l-.1-.2-8.9-5.1v-.1l-18-10.4-33.6 19.4c6.6 11.8 19.1 19.8 33.6 19.8s27-8 33.6-19.8l-6.4-3.7-.2.1zm-28.6-53.4c-20.5.8-36.9 17.7-36.9 38.4 0 5.7 1.2 11.1 3.5 15.9l33.5-19.3-.1-35z"/></svg>