<svg class="icon" viewBox="0 0 1024 1024" xmlns="http://www.w3.org/2000/svg" width="300" height="300"><defs><style/></defs><path d="M165.888 145.067a58.368 58.368 0 0 1 82.261 0l300.374 298.666a57.344 57.344 0 0 1 0 81.92 58.368 58.368 0 0 1-82.262 0L165.888 226.987a58.71 58.71 0 0 1 0-81.92zm789.845 294.912H590.165a93.867 93.867 0 0 1-148.821 110.933L329.728 439.979H68.267A68.267 68.267 0 0 0 0 506.539a68.267 68.267 0 0 0 68.267 66.56h16.042L238.933 1024h556.374L949.93 573.099h5.802a68.267 68.267 0 0 0 68.267-66.56 68.267 68.267 0 0 0-68.267-66.56zM243.371 614.4h541.696a34.133 34.133 0 0 1 34.133 34.133 34.133 34.133 0 0 1-34.133 34.134H243.37a34.133 34.133 0 0 1-34.134-34.134 34.133 34.133 0 0 1 34.134-34.133zm75.776 273.067H712.02a34.133 34.133 0 0 1 34.134 34.133 34.133 34.133 0 0 1-34.134 34.133H319.147a34.133 34.133 0 0 1-34.134-34.133 34.133 34.133 0 0 1 34.134-34.133zM281.259 752.98h472.064a34.133 34.133 0 0 1 34.133 34.134 34.133 34.133 0 0 1-34.133 34.133H281.259a34.133 34.133 0 0 1-34.134-34.133 34.133 34.133 0 0 1 34.134-34.134zM680.277 0L484.352 195.243h97.963v194.901H778.58V195.243h97.963zm49.494 238.933c8.192 0 13.994 4.096 13.994 15.019s-3.754 13.653-11.946 13.653h-34.134v21.846a18.09 18.09 0 1 1-35.84 0v-21.504H629.42a13.653 13.653 0 0 1-12.971-15.019 12.288 12.288 0 0 1 12.97-13.653h32.427v-18.091H629.42a13.312 13.312 0 0 1-12.971-14.677 12.63 12.63 0 0 1 12.97-14.336h31.403l-34.133-34.134a15.36 15.36 0 0 1 0-21.504 15.019 15.019 0 0 1 21.845 0l30.379 30.379 31.744-30.379a14.677 14.677 0 0 1 21.163 0 15.019 15.019 0 0 1 0 21.163l-34.134 34.133h31.744a12.63 12.63 0 0 1 12.971 14.336 13.312 13.312 0 0 1-12.97 14.678h-32.427v18.09z"/></svg>