<svg class="icon" viewBox="0 0 1024 1024" xmlns="http://www.w3.org/2000/svg" width="300" height="300"><defs><style/></defs><path d="M941.42 174.372c46.077 2.56 81.34 41.726 79.356 87.676v536.806a84.028 84.028 0 0 1-81.724 87.676H458.755a240.18 240.18 0 0 1-218.55 137.466A240.18 240.18 0 0 1 .025 789.766a233.589 233.589 0 0 1 136.313-210.741V261.472a91.836 91.836 0 0 1 24.575-63.677c10.56-16.063 26.558-27.839 45.054-33.023L780.595 3.308c20.48-6.4 42.622-3.264 60.605 8.384A87.011 87.011 0 0 1 879.6 71.72l21.055 102.65h40.83zM799.218 63.402L397.51 174.371h443.115L820.785 81.32a27.007 27.007 0 0 0-11.391-17.983 12.031 12.031 0 0 0-10.24 0zM410.117 851.14c7.231-19.583 10.687-40.318 10.24-61.245a180.151 180.151 0 0 0-180.088-174.072 174.072 174.072 0 1 0 0 348.143A180.151 180.151 0 0 0 410.18 851.14zm532.007-24.64h-.64c9.087 0 19.263-11.39 19.263-28.158v-123.77H741.62a30.079 30.079 0 0 1-30.078-30.078V420.056c0-16.639 13.439-30.078 30.078-30.078h219.126V259.744c0-16.255-10.24-27.647-19.2-27.647H216.783c-8.96 0-19.2 11.392-19.2 27.647V559.89c14.08-2.56 28.288-3.968 42.623-4.16a240.18 240.18 0 0 1 240.18 234.165c.96 12.16.96 24.446 0 36.606H942.06zm18.623-211.317v-165.24H771.636v165.112h189.11zm-125.434-82.876c0-13.056 5.887-25.15 15.55-31.679a27.263 27.263 0 0 1 31.231 0c9.664 6.528 15.616 18.56 15.616 31.679a38.206 38.206 0 0 1-15.616 31.742 27.263 27.263 0 0 1-31.23 0 38.206 38.206 0 0 1-15.615-31.742zM323.72 759.88a30.079 30.079 0 0 1 0 60.03H157.329a30.079 30.079 0 0 1 0-60.03h166.328z"/></svg>