<svg class="icon" viewBox="0 0 1024 1024" xmlns="http://www.w3.org/2000/svg" width="300" height="300"><defs><style/></defs><path d="M42.667 917.333c0 36.267 27.733 64 64 64h810.666c36.267 0 64-27.733 64-64v-448H42.667v448zM448 554.667h128c12.8 0 21.333 8.533 21.333 21.333S588.8 597.333 576 597.333H448c-12.8 0-21.333-8.533-21.333-21.333S435.2 554.667 448 554.667zM917.333 256H106.667c-36.267 0-64 27.733-64 64v106.667h938.666V320c0-36.267-27.733-64-64-64zM320 213.333c12.8 0 21.333-8.533 21.333-21.333v-72.533c0-19.2 17.067-34.134 36.267-34.134h268.8c19.2 0 36.267 14.934 36.267 34.134V192c0 12.8 8.533 21.333 21.333 21.333S725.333 204.8 725.333 192v-72.533c0-42.667-36.266-76.8-78.933-76.8H377.6c-42.667 0-78.933 34.133-78.933 76.8V192c0 12.8 8.533 21.333 21.333 21.333z"/></svg>