<svg class="icon" viewBox="0 0 1024 1024" xmlns="http://www.w3.org/2000/svg" width="300" height="300"><defs><style/></defs><path d="M905.55 247.682h-66.236V137.284c0-36.52-29.724-66.238-66.238-66.238H287.324c-36.52 0-66.238 29.719-66.238 66.238v110.398h-66.238c-36.522 0-66.238 29.719-66.238 66.239v397.433c0 36.518 29.717 66.238 66.238 66.238h66.238v110.397c0 36.519 29.718 66.238 66.238 66.238h485.752c36.515 0 66.238-29.72 66.238-66.238V777.593h66.237c36.519 0 66.238-29.72 66.238-66.238V313.922c0-36.521-29.72-66.24-66.238-66.24zM265.247 137.284c0-12.187 9.892-22.08 22.078-22.08h485.752c12.186 0 22.078 9.893 22.078 22.08v110.398H265.246V137.284zm507.83 772.787H287.324c-12.186 0-22.078-9.894-22.078-22.08V600.954h529.908V887.99c0 12.187-9.892 22.081-22.078 22.081zm154.556-198.716c0 12.187-9.895 22.08-22.081 22.08h-66.237v-132.48h22.08c12.186 0 22.077-9.892 22.077-22.079s-9.891-22.08-22.078-22.08H199.007c-12.187 0-22.08 9.894-22.08 22.08s9.893 22.079 22.08 22.079h22.079v132.48h-66.238c-12.186 0-22.08-9.893-22.08-22.08V313.922c0-12.187 9.894-22.081 22.08-22.081h750.703c12.186 0 22.08 9.893 22.08 22.08v397.434z"/><path d="M728.915 689.274H331.483c-12.186 0-22.079-9.892-22.079-22.078 0-12.188 9.893-22.08 22.08-22.08h397.43c12.187 0 22.079 9.892 22.079 22.08 0 12.186-9.89 22.078-22.078 22.078zm0 88.319H331.483c-12.186 0-22.079-9.891-22.079-22.078s9.893-22.08 22.08-22.08h397.43c12.187 0 22.079 9.893 22.079 22.08 0 12.187-9.89 22.078-22.078 22.078zm0 88.318H331.483c-12.186 0-22.079-9.892-22.079-22.078s9.893-22.078 22.08-22.078h397.43c12.187 0 22.079 9.891 22.079 22.078s-9.89 22.078-22.078 22.078zm88.317-397.433c-36.515 0-66.238-29.72-66.238-66.239 0-36.519 29.724-66.238 66.238-66.238 36.52 0 66.239 29.72 66.239 66.238 0 36.52-29.719 66.239-66.239 66.239zm0-88.318c-12.186 0-22.078 9.893-22.078 22.08s9.892 22.079 22.078 22.079 22.082-9.893 22.082-22.08c0-12.187-9.895-22.079-22.082-22.079z"/></svg>