<svg xmlns="http://www.w3.org/2000/svg" viewBox="0 0 328.1 300"><path d="M270.6 246.9c-2.5-2.5-6.3-5-10-6.3s-8.1-2.5-12.5-2.5-8.1.6-11.9 2.5c-3.8 1.3-6.9 3.8-10 6.3-2.5 3.1-5 6.3-6.9 10-1.9 3.7-2.5 7.5-2.5 11.9s.6 8.1 2.5 11.9 3.8 6.9 6.9 10c3.1 2.5 6.3 5 10 6.9s7.5 2.5 11.9 2.5 8.1-.6 12.5-2.5c3.8-1.9 7.5-3.8 10-6.9 2.5-2.5 5-6.3 6.9-10s2.5-7.5 2.5-11.9-.6-8.1-2.5-11.9c-1.9-3.8-3.7-6.9-6.9-10zM131.9 246.3c-3.1-2.5-6.3-5-10-6.3s-7.5-2.5-11.9-2.5-8.8.6-11.9 2.5c-3.8 1.3-6.9 3.8-10 6.3-3.1 3.1-5 6.3-6.9 10-1.3 3.8-2.5 7.5-2.5 11.9s.6 8.1 2.5 11.9c1.3 3.8 3.8 6.9 6.9 10 3.1 2.5 6.3 5 10 6.9s7.5 2.5 11.9 2.5 8.1-.6 11.9-2.5 6.9-3.8 10-6.9c3.1-2.5 5-6.3 6.9-10 1.3-3.8 2.5-7.5 2.5-11.9s-.6-8.1-2.5-11.9c-1.9-3.8-3.8-6.9-6.9-10zM191.1 75.7c-16.6 0-30.1 13.5-30.1 30.1s13.5 30.1 30.1 30.1 30.1-13.5 30.1-30.1-13.5-30.1-30.1-30.1zm15.5 36.3h-18.7V86.6h5.8v19.6h12.9v5.8z"/><path d="M326.9 57.5c-1.3-2.5-3.8-4.4-7.5-6.3s-8.1-2.5-14.4-2.5H76.9c-.6-4.4-1.3-8.8-1.9-12.5-.6-3.1-1.3-6.3-1.3-10-.6-3.1-1.3-5.6-1.9-7.5 0-1.3-.6-3.1-1.3-5.6-.6-1.9-1.9-4.4-3.8-6.3-1.3-1.9-3.8-3.8-6.3-5S54.4 0 50 0H16.3c-5 0-9.4 1.3-12.5 4.4C1.3 7.5 0 10.6 0 15.6c0 2.5 0 4.4.6 7.5.6 2.5 1.3 5 3.1 7.5C5 33.1 6.9 35 9.4 36.9s5 2.5 8.1 2.5h25c5 27.5 10 52.5 14.4 75 1.9 9.4 3.8 19.4 5.6 28.8 1.8 9.4 3.1 18.1 5 25.6 1.3 7.5 2.5 13.8 3.8 19.4 1.3 5 1.9 8.1 1.9 9.4 0 2.5.6 6.3 1.9 10s3.1 7.5 5 10.6 4.4 5.6 7.5 7.5 6.9 3.1 11.3 3.1h175c6.3 0 10.6-1.9 12.5-5s3.1-6.9 3.1-11.3c0-9.4-5.6-13.8-16.3-13.8H105l-5-30h175c6.3 0 11.9-1.9 16.3-5 4.4-3.8 8.1-9.4 11.3-18.8 1.3-4.4 3.1-10 5.6-17.5s5-15 7.5-21.9c2.5-7.5 5-14.4 6.9-20.6s3.8-10.6 4.4-12.5 1.3-4.4 1.3-6.9-.2-5.5-1.4-8zm-135.8 84.2c-19.8 0-35.9-16.1-35.9-35.9s16.1-35.9 35.9-35.9S227 86 227 105.8s-16.1 35.9-35.9 35.9z"/></svg>