<svg class="icon" viewBox="0 0 1024 1024" xmlns="http://www.w3.org/2000/svg" width="300" height="300"><defs><style/></defs><path d="M437.453 549.888h148.685v58.778H437.453zM141.722 277.299h126.566v58.778H141.722zm295.73 135.783h148.686v58.777H437.453zm-295.73 1.024h126.566v58.777H141.722zm0 135.782h126.566v58.778H141.722zm613.376 0h126.566v58.778H755.098zM437.453 276.275h148.685v58.778H437.453zm317.645 1.024h126.566v58.778H755.098zm0 135.783h126.566v58.777H755.098z"/><path d="M898.253 94.413H678.912c-13.926-14.541-33.178-22.938-53.248-22.938H397.926c-20.275 0-39.73 8.397-53.657 22.938H125.133c-39.936 0-72.704 31.744-74.138 72.499v689.562c1.639 39.936 34.202 71.475 74.138 71.475h220.979c13.722 13.517 32.563 21.094 51.814 21.094h227.738c18.842 0 37.274-7.373 50.995-20.275h221.799c40.96 0 74.342-33.382 74.342-74.342V169.779c-.205-41.574-33.587-75.366-74.547-75.366zm-515.891 75.366c0-21.504 17.612-39.526 38.502-39.526h181.862c21.71 0 38.503 17.408 38.503 39.526v683.008c0 21.504-17.613 39.527-38.503 39.527H420.864c-21.3 0-38.502-17.818-38.502-39.527V169.78zm317.644-16.589h198.452c5.53 0 9.42 1.23 11.673 3.482 5.12 5.12 4.915 16.998 4.915 31.13v649.625c.205 12.493.205 24.371-4.71 29.287-2.458 2.457-6.349 3.481-11.878 3.481H700.006V153.19zm-590.438 39.527c0-21.504 17.613-39.527 38.502-39.527h175.514v716.186H148.275c-21.709 0-38.502-17.408-38.502-39.526V192.717z"/></svg>