<svg class="icon" viewBox="0 0 1024 1024" xmlns="http://www.w3.org/2000/svg" width="300" height="300"><defs><style/></defs><path d="M705.946 81.92c22.118 0 40.96 18.637 40.96 40.96v407.552h192.512L570.163 911.36c-31.744 32.768-84.582 32.768-116.326 0L84.787 530.432H277.3V122.675c0-22.528 18.432-40.96 40.96-40.96h387.687m0-61.235H318.054c-56.32 0-102.4 46.08-102.4 102.195v346.317H80.077c-52.429 0-79.258 62.874-42.803 100.557L414.31 961.946c53.248 55.5 142.132 55.5 195.38 0l377.036-392.397c36.455-37.683 9.626-100.557-42.803-100.557H808.346V122.675c0-56.115-46.08-102.195-102.4-102.195z"/><path d="M624.435 555.418c19.047 0 34.611 15.564 34.611 34.61 0 19.047-15.36 34.612-34.61 34.612h-69.018v43.213c0 23.757-19.456 43.213-43.213 43.213s-43.213-19.252-43.213-43.213V624.64H399.77c-19.047 0-34.612-15.565-34.612-34.611 0-19.047 15.565-34.611 34.612-34.611h69.222v-34.612H399.77c-19.047 0-34.612-15.564-34.612-34.61 0-19.047 15.565-34.612 34.612-34.612h69.222v-2.253l-77.005-76.595c-13.517-13.517-13.517-35.635 0-49.152 13.517-13.517 35.635-13.517 49.152 0l70.042 70.042 70.451-70.452c13.722-13.516 35.635-13.516 49.357 0 13.517 13.517 13.517 35.636 0 49.152l-75.776 75.776v3.482h69.017c19.047 0 34.612 15.565 34.612 34.611 0 19.047-15.36 34.611-34.612 34.611h-69.017v34.612h69.222zm0 0"/></svg>