<svg class="icon" viewBox="0 0 1024 1024" xmlns="http://www.w3.org/2000/svg" width="300" height="300"><defs><style/></defs><path d="M532.915 779.965V547.932h95.841v36.716a276.285 276.285 0 0 1 65.613-41.913V152.883a34.15 34.15 0 0 0-34.191-34.186H179.62a34.13 34.13 0 0 0-34.186 34.186v698.081a34.176 34.176 0 0 0 34.186 34.223h368.456a274.755 274.755 0 0 1-15.16-105.222zm95.841-291.773h-95.84v-95.841h95.84v95.841zm-417.71-298.655h417.705V313.33H211.046V189.537zm95.842 609.68h-95.842v-95.842h95.842v95.842zm0-155.577h-95.842v-95.774h95.842v95.774zm0-155.448h-95.842v-95.841h95.842v95.841zm160.834 311.025h-95.774v-95.842h95.774v95.842zm0-155.577h-95.774v-95.774h95.774v95.774zm0-155.448h-95.774v-95.841h95.774v95.841z"/><path d="M754.693 566.697c-109.655-.108-198.646 88.689-198.758 198.344 0 1.52.015 3.036.05 4.551.467 24.515 5.336 47.872 13.994 69.376a198.86 198.86 0 0 0 184.714 125.276c109.773-1.254 197.75-91.274 196.49-201.052-1.244-108.001-88.489-195.256-196.49-196.495zm86.666 196.92v29.138h-70.743v39.972h70.743v29.358h-70.743v58.24H734.09V862.05h-73.43v-29.348h73.43v-39.977h-73.43v-29.107h62.663l-76.365-131.236h41.022c35.742 65.199 57.37 106.589 65.141 124.027h.722c2.647-7.142 9.815-21.601 21.417-43.5l43.669-80.527h38.896l-77.2 131.236h60.734z"/></svg>