<?xml version="1.0" standalone="no"?><!DOCTYPE svg PUBLIC "-//W3C//DTD SVG 1.1//EN" "http://www.w3.org/Graphics/SVG/1.1/DTD/svg11.dtd"><svg class="icon" width="200px" height="200.00px" viewBox="0 0 1024 1024" version="1.1" xmlns="http://www.w3.org/2000/svg"><path d="M814.2 164.1H320c-50.9 0-92.4 41.4-92.4 92.4v611.2c0 50.9 41.4 92.4 92.4 92.4h494.2c50.9 0 92.4-41.4 92.4-92.4V256.5c0-51-41.5-92.4-92.4-92.4z m32.6 703.5c0 18-14.6 32.6-32.6 32.6H320c-18 0-32.6-14.6-32.6-32.6V256.5c0-18 14.6-32.6 32.6-32.6h494.2c18 0 32.6 14.6 32.6 32.6v611.1z"  /><path d="M735.9 92.3c0-16.5-13.4-29.9-29.9-29.9H211.8c-50.9 0-92.4 41.4-92.4 92.4V766c0 16.5 13.4 29.9 29.9 29.9s29.9-13.4 29.9-29.9V154.7c0-18 14.6-32.6 32.6-32.6H706c16.5 0 29.9-13.3 29.9-29.8zM768 748.8H362.4c-16.5 0-29.9 13.4-29.9 29.9s13.4 29.9 29.9 29.9H768c16.5 0 29.9-13.4 29.9-29.9s-13.4-29.9-29.9-29.9zM768 603.3H362.4c-16.5 0-29.9 13.4-29.9 29.9s13.4 29.9 29.9 29.9H768c16.5 0 29.9-13.4 29.9-29.9 0-16.6-13.4-29.9-29.9-29.9z"  /><path d="M516.5 543.7c2.6 2.6 5.7 4.7 8.9 6.1 4.7 2.8 10 4.3 15.3 4.3 7.9 0 15.8-3.1 21.7-9.3L755 341.3c11.3-12 10.8-30.9-1.2-42.2-12-11.3-30.9-10.8-42.2 1.2L539.4 482.1l-83.6-83.6c-11.7-11.7-30.6-11.7-42.3 0-11.7 11.7-11.7 30.6 0 42.3l103 102.9z"  /></svg>