<svg class="icon" viewBox="0 0 1024 1024" xmlns="http://www.w3.org/2000/svg" width="200" height="200"><defs><style/></defs><path d="M994.406 394.546c28.506 26.971 35.23 61.982 23.17 99.55-12.572 38.885-40.054 60.228-78.865 62.42a454.043 454.043 0 0 1-60.374.512c-16.518-1.242-20.83 4.824-20.758 21.928.731 106.64-.73 213.426-.73 320.14-.147 88.074-35.815 123.67-118.555 123.67h-237.4v.073c-81.862 0-159.558 1.169-241.566-.366-62.493-1.242-91.657-39.47-92.168-106.275a30856.483 30856.483 0 0 1-1.462-334.173c0-19.296-4.386-26.093-23.097-25.07-22.512 1.17-45.024 4.751-67.829.146-35.814-7.382-60.008-28.651-70.533-66.147-10.232-36.619-1.9-69.437 24.486-94.361A45615.794 45615.794 0 0 1 406.168 41.37c60.593-56.208 150.568-55.111 213.719 2.923 125.717 115.777 249.972 233.161 374.52 350.253zm-39.98 76.308c4.97-15.788-5.994-23.828-15.204-32.307-119.43-111.975-238.935-223.878-358.658-335.635-42.905-40.127-94.58-40.93-137.339-.877C322.552 215.254 202.317 329.203 81.862 442.64c-8.04 7.748-16.957 14.619-12.937 27.994 4.385 14.18 15.422 15.788 27.41 15.788 34.864-.22 69.582 1.389 104.373-.585 25.729-1.461 32.234 9.064 32.014 35.596a41522.978 41522.978 0 0 0-1.608 373.496c0 52.772 1.828 57.303 51.53 57.596 76.746.365 149.252.073 225.852.073v-1.974c76.745 0 158.023.147 234.769 0 38.446 0 47.363-5.116 48.386-46.924.365-11.256.146-22.44.146-33.768-.292-116.946.22-233.892-1.462-350.838-.292-28.36 9.502-36.107 33.769-35.01 33.037 1.461 66.22.438 99.404.292 11.84-.074 25.582 3.216 30.917-13.522zm-524.284 29.748c-25.948-27.336-51.53-54.088-76.746-81.205-20.465-22-22.147-41.442-5.92-58.326 15.714-16.446 33.987-14.034 54.599 7.747 32.818 34.938 65.782 69.583 97.723 105.398 9.794 10.817 15.276 10.452 24.632 0 32.744-36.326 66.293-71.849 99.696-107.298 19.223-20.466 36.692-21.854 52.26-5.19 15.35 16.373 14.107 35.961-4.531 55.988-25.729 27.921-51.895 55.403-82.959 88.295 23.024 0 40.566.292 58.254-.074 21.78-.511 35.083 10.599 37.788 33.403 2.631 20.904-12.718 38.008-35.669 39.177-25.216 1.316-50.579.73-75.795.439-15.788-.22-29.237-4.02-29.017 23.974.146 28.213 13.156 26.459 30.479 25.874 23.535-.731 47.143-.585 70.679 0 25.436.73 41.37 15.86 39.469 37.861-2.266 24.632-17.03 35.157-39.47 35.084-27.847-.146-55.768.438-83.616-.293-12.206-.365-17.395 3.363-16.518 17.323 1.023 15.788.511 31.795.073 47.656-.731 22.95-13.522 34.499-33.403 34.352-19.004 0-30.99-12.133-32.38-32.89a448.195 448.195 0 0 1-.218-50.507c.584-12.279-3.655-16.08-14.984-15.934-28.725.731-57.523.585-86.248.147-24.85-.439-38.08-13.01-38.519-35.23-.438-24.047 12.572-36.4 39.323-36.692 24.413-.292 48.825-.731 73.238.146 16.81.585 28.067 1.462 28.14-24.778.146-26.97-11.11-27.263-29.456-26.24-22.512 1.243-45.317.585-67.975.22-29.236-.512-42.978-12.426-43.27-36.4-.365-24.631 13.083-36.18 42.393-36.545 14.838-.147 29.675-.147 44.513-.439.438-.146.95-1.462 3.435-5.043z"/></svg>