<svg class="icon" viewBox="0 0 1024 1024" xmlns="http://www.w3.org/2000/svg" width="200" height="200"><defs><style/></defs><path d="M787.3 716.2H685.5c-2.6 0-4.6 2.1-4.6 4.6V781c0 2.6 2.1 4.6 4.6 4.6h101.9c2.6 0 4.6-2.1 4.6-4.6v-60.1c0-2.6-2.1-4.7-4.7-4.7zm-45.8 20.4h26.2c2.6 0 4.6 2.1 4.6 4.6 0 2.6-2.1 4.6-4.6 4.6h-26.2c-2.6 0-4.6-2.1-4.6-4.6-.1-2.5 2-4.6 4.6-4.6zm-16.3 27.8c0 3.8-3.1 7-7 7H695c-3.8 0-7-3.1-7-7v-27.8c0-3.8 3.1-7 7-7h23.2c3.8 0 7 3.1 7 7v27.8zm47 2.4h-30.7c-2.6 0-4.6-2.1-4.6-4.6 0-2.6 2.1-4.6 4.6-4.6h30.7c2.6 0 4.6 2.1 4.6 4.6 0 2.5-2 4.6-4.6 4.6z"/><path d="M913.5 767.9c-1.7-19-4.8-35.7-8.8-50.7-3.3-17.9-14.9-60.9-52.1-90-24.3-21.4-76.9-28.3-82.8-28.6-31.7-3.6-57.9-13.8-79.6-21.6-68-30.3-98.2-85.9-101.6-92.9 15.5-6.6 33.1-29.2 47.8-52.3 8.1-11.4 16-24.5 22.7-39 5.8-11 9.4-18.4 9.4-18.4s1.8 1.5 4.7 2.1c8.8 2.9 24.7-.8 33.2-58.1 12.1-81.7-16.6-71.1-16.6-71.1s10.3-91.9-57.1-145c-26.2-22.2-64.4-37.6-119.9-36.6-55.5-1-93.7 14.4-119.9 36.6-67.4 53.1-57.1 145-57.1 145s-28.7-10.6-16.6 71.1c8.5 57.3 24.4 61 33.2 58.1 2.9-.7 4.7-2.1 4.7-2.1s3.5 7.4 9.4 18.4c6.6 14.6 14.5 27.6 22.7 39 14.7 23 32.3 45.6 47.8 52.3-3.3 6.9-33.5 62.6-101.6 92.9-21.7 7.7-47.9 18-79.6 21.6-6 .3-58.5 7.2-82.8 28.6-37.2 29.1-48.8 72.1-52.1 90-4 14.9-7.1 31.7-8.8 50.7L98 958.7h829.1l-13.6-190.8zm-349.5 62l-45.9 53-57-54.5 42.4-233-42.4-37.8 25.7-28.7h48.4l28.7 28.7-38.6 37.8L564 829.9zm258.8-29.7c0 5.1-4.1 9.3-9.3 9.3H659.3c-5.1 0-9.3-4.1-9.3-9.3v-98.6c0-5.1 4.2-9.3 9.3-9.3h154.2c5.1 0 9.3 4.1 9.3 9.3v98.6z"/></svg>