<svg class="icon" viewBox="0 0 1024 1024" xmlns="http://www.w3.org/2000/svg" width="200" height="200"><defs><style/></defs><path d="M892.928 96.256c38.093 0 63.488 27.853 63.488 69.632v487.424c0 41.78-25.395 69.632-63.488 69.632H131.072c-38.093 0-63.488-27.853-63.488-69.632V165.888c0-41.78 25.395-69.632 63.488-69.632h761.856zm0-69.632H131.072c-69.837 0-126.976 62.67-126.976 139.264v487.424c0 76.595 57.14 139.264 126.976 139.264h761.856c69.837 0 126.976-62.669 126.976-139.264V165.888c0-76.593-57.14-139.264-126.976-139.264"/><path d="M638.976 931.84V788.505H385.024V931.84H194.56v69.632h634.88V931.84H638.976zM308.838 373.553H410.42V635.22H308.84V373.553zm304.745-87.224h101.58v354.025h-101.58V286.33zm152.371 143.66h101.58v210.365h-101.58V429.99zM156.467 481.3h101.581v153.92h-101.58V481.298zm304.745-302.715H562.79v461.77H461.212v-461.77z"/></svg>