<svg class="icon" viewBox="0 0 1024 1024" xmlns="http://www.w3.org/2000/svg" width="200" height="200"><defs><style/></defs><path d="M622.578 912.497c0 6.114-4.893 10.802-10.802 10.802H352.91c-5.91 0-10.802-4.893-10.802-10.802v-65.226c0-5.91 4.893-10.802 10.802-10.802h258.866c5.91 0 10.802 4.893 10.802 10.802v65.226zm118.018-298.615l-72.157-132.694c-15.287-27.924-46.678-40.362-70.32-27.519-23.44 12.841-30.164 45.861-14.878 73.786l53.609 98.655-117.406 110.272c-25.07 22.421-64.615 29.556-101.915-2.446l-75.418-78.475v134.731a24.181 24.181 0 0 0 24.255 24.255h235.833c14.878 0 26.702-14.878 26.702-14.878l109.251-122.095-.205-.205c12.841-15.9 14.676-41.174 2.647-63.392zM502.319 414.534l-55.648 46.678c12.637 10.19 23.847 15.287 33.226 15.9 9.581.613 17.937-3.057 25.07-10.802 2.854-3.261 5.097-6.522 6.114-10.19 1.428-3.669 1.632-7.338 1.428-11.618-.406-4.078-1.632-8.765-3.261-13.654-1.632-4.893-4.078-10.396-6.931-16.306zm12.433-93.759c-5.708 6.114-8.154 13.249-7.747 20.994s3.261 17.325 8.56 28.129l53.198-44.027c-11.823-9.171-22.22-14.064-31.186-14.473-8.971-.406-16.715 2.647-22.83 9.376z"/><path d="M823.555 297.743L607.902 82.09c-28.942-28.741-75.621-28.741-104.362 0L201.87 383.556c-28.741 28.741-28.741 75.621 0 104.565l215.653 215.45c14.064 14.064 32.409 21.607 52.179 21.607s38.318-7.747 52.385-21.607l88.87-89.073c.816-.816-48.103-78.475-51.366-103.14-3.872-27.924-.816-49.734 22.22-65.634 37.911-26.293 75.213-4.686 96.004 23.847 6.725 9.171 30.164 49.734 29.354 50.55l116.589-118.019c13.859-14.064 21.809-32.409 21.809-52.179-.406-19.773-8.154-38.318-22.014-52.179zm-179.778 32.202c4.893 5.91 8.971 11.823 12.637 17.529l-23.03 24.663c-4.281-6.725-8.971-13.454-14.064-20.177-4.893-6.522-9.987-12.637-15.085-18.346l-72.768 60.538c4.483 9.376 8.765 18.753 12.637 28.538s6.725 19.364 7.95 28.942c1.632 9.581 1.019 18.956-1.019 28.332-2.24 9.376-7.338 17.937-15.085 26.498-8.356 8.971-17.529 15.287-27.519 18.956-9.987 3.669-20.588 4.893-31.391 3.872-11.007-1.223-22.22-4.483-33.839-10.19-11.414-5.708-22.83-13.249-34.242-22.625l-40.766 33.427-22.625-21.607 40.562-33.427c-7.747-8.56-15.085-16.917-21.809-25.274-6.725-8.356-12.026-16.103-16.306-22.83l24.663-26.498c4.686 8.356 9.987 17.123 16.51 25.887 6.522 8.765 14.269 17.732 23.237 27.313l76.029-63.799c-4.483-8.971-8.356-18.142-12.233-27.519-3.669-9.376-6.114-18.346-7.338-27.519-1.223-9.376-.613-18.346 1.428-27.313s6.931-17.529 14.473-25.479c6.114-6.725 13.654-12.026 22.421-15.9 8.56-3.872 18.346-5.91 28.942-5.708 10.601.205 22.22 2.647 34.038 7.54 11.823 4.893 24.461 12.637 37.098 23.237l32.206-26.907 23.03 21.196-33.022 27.519c4.686 5.3 9.581 11.211 14.269 17.123z"/></svg>