<svg class="icon" viewBox="0 0 1024 1024" xmlns="http://www.w3.org/2000/svg" width="480" height="480"><defs><style/></defs><path d="M944.401 778.136H244.934c-109.727 0-198.997-89.27-198.997-198.998s89.27-198.997 198.997-198.997h699.467v28.083H244.934c-94.291 0-171.1 76.81-171.1 171.1s76.809 171.101 171.1 171.101h699.467v27.71zm-611.685-635.49c0 40.915 33.29 74.02 74.02 74.02 40.915 0 74.02-33.29 74.02-74.02s-33.29-74.02-74.02-74.02-74.02 33.29-74.02 74.02zM461.6 230.242l-52.074 136.694H540.64c18.97 0 32.732-21.945 24.549-38.311l-40.915-81.831c-5.58-8.183-13.763-16.366-24.55-16.366H461.6v-.186zm-144.878 0c-10.787 0-18.97 8.183-24.55 16.366l-40.914 81.83c-8.184 16.367 5.579 38.312 24.549 38.312h131.115L355.22 230.056h-38.498v.186zm356.336-87.596c0 40.915 33.29 74.02 74.02 74.02 40.915 0 74.019-33.29 74.019-74.02s-33.29-74.02-74.02-74.02-74.02 33.29-74.02 74.02zm128.883 87.596l-52.074 136.694h131.115c18.97 0 32.732-21.945 24.55-38.311l-40.916-81.831c-5.58-8.183-13.762-16.366-24.55-16.366h-38.125v-.186zm-144.877 0c-10.787 0-18.97 8.183-24.55 16.366l-40.915 81.83c-8.183 16.367 5.58 38.312 24.55 38.312h131.114l-51.702-136.694h-38.497v.186z"/><path d="M332.716 588.065c0 40.916 33.29 74.02 74.02 74.02 40.915 0 74.02-33.29 74.02-74.02s-33.29-74.02-74.02-74.02c-40.73-.185-74.02 33.105-74.02 74.02zm128.884 87.41L409.526 812.17H540.64c18.97 0 32.732-21.946 24.549-38.312l-40.915-81.83c-5.58-8.183-13.763-16.367-24.55-16.367H461.6v-.186zm-144.878 0c-10.787 0-18.97 8.184-24.55 16.367l-40.914 81.83c-8.184 16.367 5.579 38.312 24.549 38.312h131.115L355.22 675.29h-38.498v.185z"/><path d="M322.116 675.475H488.38V812.17H322.116zm350.942-87.41c0 40.916 33.29 74.02 74.02 74.02 40.915 0 74.019-33.29 74.019-74.02s-33.29-74.02-74.02-74.02c-40.729-.185-74.02 33.105-74.02 74.02zm128.883 87.41L749.867 812.17h131.115c18.97 0 32.732-21.946 24.55-38.312l-40.916-81.83c-5.58-8.183-13.762-16.367-24.55-16.367h-38.125v-.186zm-144.877 0c-10.787 0-18.97 8.184-24.55 16.367l-40.915 81.83c-8.183 16.367 5.58 38.312 24.55 38.312h131.114L695.561 675.29h-38.497v.185z"/><path d="M676.22 675.475h156.036V812.17H676.219z"/></svg>