<svg class="icon" viewBox="0 0 1324 1024" xmlns="http://www.w3.org/2000/svg" width="258.594" height="200"><defs><style/></defs><path d="M1164.288 80.896H214.016c-54.784 0-86.528 45.568-86.528 100.864v71.68h1122.816v-71.68c.512-55.296-31.232-100.864-86.016-100.864zM128 843.264c0 10.752 1.536 20.992 3.584 30.208C165.888 561.664 430.08 598.528 430.08 598.528V468.992l216.064 172.544L430.08 857.6V728.064s-158.72-43.52-283.648 180.224c14.848 21.504 37.376 35.328 67.584 35.328h950.272c54.784 0 86.528-45.568 86.528-100.864V382.464H128v460.8z"/></svg>