<svg class="icon" viewBox="0 0 1024 1024" xmlns="http://www.w3.org/2000/svg" width="200" height="200"><defs><style/></defs><path d="M761 517.2c-4.1-1.5-13.3-2.2-27.5-2.2h-31.3l-12.9 61.3h13.5c23.1 0 38.5-1.4 46.2-4.3 7.7-2.9 13.8-7.5 18.2-13.9 4.4-6.3 6.7-13.4 6.7-21 0-5.1-1.1-9.3-3.4-12.6-2.2-3.4-5.4-5.8-9.5-7.3M562 519c-3.9-2.3-12.2-3.5-25.1-3.5h-48.1l-11.9 57.1h23.2c23.5 0 39.1-1.3 46.7-4.2 7.7-2.8 13.7-7.2 18-13.2 4.4-6 6.6-12.3 6.6-18.8 0-7.8-3.1-13.6-9.4-17.4"/><path d="M884.8 353.9c-.2-1.5-.4-2.9-.8-4.3-1.6-5.8-4.1-11.3-8.3-15.4l-136-182.3c-6.4-6.3-15-10-24-10H308.2c-9 0-17.6 3.6-24 10L148.3 334.2c-4.1 4.1-6.7 9.6-8.3 15.4-.4 1.5-.6 2.9-.8 4.3-.3 1.4-.8 2.7-.8 4.4v425.5c0 54 43.9 97.9 97.8 97.9h551.6c53.9 0 97.9-44 97.9-97.9V358.3c0-1.5-.7-2.9-.9-4.4M322.2 210h379.5l67.9 114.3H254.3L322.2 210zm67.7 353.8l-7.4 35.5h-110L259.1 657h123.6l-7.5 35.5H209.3L253.7 480h157.5l-7.3 35.5H290l-10.1 48.2h110zm208.9 16.5c-10.9 11.7-27.2 19-49.1 21.8 5.6 5 10.9 11.6 15.8 19.8 9.7 16.6 20.6 40.1 32.5 70.4h-46.9c-3.8-12-11.2-30.7-22.2-56.1-6-13.7-12.4-22.9-19.1-27.7-4.2-2.7-11.4-4.2-21.7-4.2h-17.8l-18.4 88h-43.7L452.6 480h94.3c16.2 0 28.8 1.7 37.9 5 9.1 3.3 16.3 9.5 21.8 18.3 5.5 8.9 8.4 19.7 8.4 32.3 0 18.1-5.4 33-16.2 44.7m212.6-15.7c-4.1 10.2-9.3 18.3-15.2 24.3-6.1 6.1-12.6 10.8-19.6 13.8-6.9 3.1-16.3 5.6-28 7.2-6.9 1-19.7 1.4-38.5 1.4h-28l-17 81h-43.7L665.8 480h86.4c15.3 0 27.4 1.8 36.4 5.4 9 3.6 16 9.6 21.3 17.9 5.2 8.4 7.8 18.3 7.8 29.9 0 10.9-2.1 21.3-6.3 31.4"/></svg>