<svg class="icon" viewBox="0 0 1024 1024" xmlns="http://www.w3.org/2000/svg" width="200" height="200"><defs><style/></defs><path d="M742.602 1004.63c-6.779 0-12.88-2.712-17.625-7.457l-92.197-88.806-91.518 89.484c-4.746 4.745-11.525 7.458-17.627 7.458h-9.49c-6.78 0-12.88-2.712-17.626-7.459l-91.52-89.483-91.518 89.484c-4.745 4.745-11.524 7.458-17.625 7.458h-9.491c-6.78 0-12.881-2.712-17.626-7.459l-91.519-89.483-91.52 89.484c-4.744 4.745-11.524 7.458-17.625 7.458h-4.746c-14.236 0-26.439-12.203-26.439-27.118V98.255c0-47.454 37.286-86.773 83.384-86.773h786.383c46.1 0 83.385 38.642 83.385 86.773l.677 869.768c0 7.456-2.712 14.236-7.457 19.66-4.745 5.423-11.524 8.135-18.304 8.135-14.236 0-26.438-12.203-26.438-27.117l-.679-71.86V98.255c0-17.625-13.557-31.861-30.506-31.861H120.954c-16.948 0-30.507 14.236-30.507 31.861v820.958l69.826-67.792c4.745-4.745 11.524-7.457 17.626-7.457 6.78 0 12.88 2.712 17.625 7.458l96.265 94.23 96.264-94.231c4.745-4.745 11.525-7.457 17.626-7.457 6.779 0 12.88 2.712 17.626 7.458l96.264 94.23 96.265-94.231c4.744-4.745 11.524-7.457 17.625-7.457 6.78 0 12.88 2.712 17.626 7.458l109.822 106.432c5.423 4.745 8.135 11.525 8.135 18.981 0 7.459-2.034 14.237-6.779 19.66-5.424 5.423-12.203 8.135-19.66 8.135zm-58.978-223.712c-14.237 0-26.439-12.203-26.439-27.117v-66.436h-84.74c-14.236 0-26.438-12.203-26.438-27.116 0-14.915 11.524-27.117 26.439-27.117h84.74V591.78h-84.74c-14.237 0-26.439-12.203-26.439-27.117 0-14.915 11.524-27.118 26.439-27.118h61.012l-95.587-99.653c-4.744-5.424-7.456-12.202-7.456-19.66s2.711-14.236 7.456-19.659c4.746-5.424 11.525-8.135 18.304-8.135 6.78 0 13.559 2.711 18.304 8.135l109.145 113.89 109.144-113.89c4.745-5.424 11.525-8.135 18.304-8.135 6.779 0 13.559 2.711 18.304 8.135 4.745 5.423 7.457 12.203 7.457 19.66 0 7.457-2.712 14.235-7.458 19.66l-95.585 99.652h61.012c14.237 0 26.44 12.203 26.44 27.118 0 14.913-11.526 27.116-26.44 27.116h-84.74v41.353h84.74c14.237 0 26.44 12.202 26.44 27.117 0 14.913-11.526 27.116-26.44 27.116h-84.74v66.436c-.677 14.914-12.202 27.117-26.438 27.117zm-501.66-450.815c-14.235 0-26.438-12.202-26.438-27.117 0-14.913 11.524-27.116 26.439-27.116h286.08c14.237 0 26.44 12.203 26.44 27.116 0 14.915-11.526 27.117-26.44 27.117h-286.08zm0-119.991c-14.235 0-26.438-12.203-26.438-27.116 0-14.915 11.524-27.118 26.439-27.118h452.848c14.236 0 26.438 12.203 26.438 27.118 0 14.913-11.524 27.116-26.438 27.116H181.966z"/></svg>