<svg class="icon" viewBox="0 0 1024 1024" xmlns="http://www.w3.org/2000/svg" width="200" height="200"><defs><style/></defs><path d="M294.608 929.584c14.864-16.016 25.552-28.112 36.896-39.552 74.992-75.392 150.576-150.08 224.832-225.968 16.992-17.648 35.072-37.696 42.544-60.08 5.552-16.352.576-44.032-10.88-56.352-11.248-12.32-37.648-18.16-55.392-15.152-18.672 3.184-37.184 17.856-51.984 31.6-38.224 35.408-74.432 72.896-111.376 109.616-8.912 8.816-17.68 17.76-26.704 26.192-11.328 10.768-25.568 19.92-37.008 4.544-4.448-6.016-.24-26.56 6.528-31.312 59.392-42.336 65.392-102.368 58.048-167.008-3.52-31.584 13.76-66.288-13.76-94.224-22.848 19.856-46.72 38.704-68.24 60-32.56 32.224-62.4 67.216-95.36 99.008-27.584 26.448-39.136 56.832-38.672 94.768.928 72.896-.336 145.824-1.632 218.832-.288 17.536 6.416 45.296-17.808 46.672-31.744 1.568-22.208-29.136-22.384-47.552-.576-81.2 1.392-162.608.816-243.808-.304-35.792 12.256-63.408 37.408-88.864 61.472-62.224 120.16-127.248 181.92-189.2 28.688-28.816 42.336-60.272 39.088-100.656-1.92-22.736-1.392-45.872.224-68.72C376.336 127.936 410.8 90.976 474.064 89.76a9024 9024 0 0 1 337.504.048c62.928 1.216 99.744 39.328 100.176 103.776 1.44 193.824 1.552 387.664.336 581.52-.336 64.352-40.752 107.984-104.784 108.544-120.608 1.168-241.392-1.424-362-5.664-28.336-1.04-47.648 7.12-66.272 25.632-20.464 20.416-40.656 43.552-84.416 25.968zM732.272 490.08c0-95.92.24-191.712 0-287.552-.112-63.04-5.904-69.936-66.096-71.152-56.16-1.28-112.448-1.44-168.72.176-64.704 1.856-81.296 19.2-81.872 83.008-.752 83.408-1.504 166.752-.128 250.112.352 23.424 8.032 46.672 12.336 70.048 19.12-10.88 38.496-21.408 57.344-32.736 41.056-24.688 96.672-22.96 129.232 4.576 32.448 27.392 43.968 76.016 24.4 119.984-9.008 20.336-23.6 39.184-39.088 55.584-35.552 38.048-73.76 73.52-109.328 111.648-8.736 9.264-11.216 24.64-16.592 37.2 11.44 3.392 22.944 9.376 34.448 9.696 54.208 1.04 108.432 1.344 162.48.336 52.736-1.024 60.656-8.8 61.344-63.392.992-95.776.24-191.76.24-287.536zm44.112-4.048h.224c0 24.928-.112 49.792 0 74.736 0 76.864-.224 153.68.336 230.624.256 21.472 3.824 43.152 30.592 46.928 26.672 3.824 44.72-12.224 53.44-34.256 6.64-16.608 6.88-36.512 7.008-54.768.464-176.608.464-353.28.128-529.824-.128-16.432-.352-33.664-4.992-49.168-7.68-24.88-27.696-36.032-53.072-34.016-26.784 2.08-32.608 21.696-33.088 44.368a1351.072 1351.072 0 0 0-.448 31.184c-.128 91.344-.128 182.736-.128 274.192z"/></svg>