<svg class="icon" viewBox="0 0 1024 1024" xmlns="http://www.w3.org/2000/svg" width="480" height="480"><defs><style/></defs><path d="M810.5 899.6H93.7c-17.1 0-30.9 13.4-30.9 30s13.8 30 30.9 30h716.8c17.1 0 31-13.4 31-30s-13.9-30-31-30zM180.6 267.5c2.6.7 5.2 1 7.8 1 13.7 0 26.3-8.9 29.9-22.4 10-36.9 23.8-46.1 41.2-57.7 22-14.6 49.5-32.7 58.1-90.8 2.4-16.4-9.3-31.6-26.2-34-16.9-2.3-32.6 9-35 25.4-4.8 32-14.4 38.4-31.8 49.9-21.3 14.1-50.4 33.3-66.2 92-4.2 16 5.7 32.4 22.2 36.6zm699 300c-11.8 15.8-30.9 26.3-55.7 31.9 11-33.4 16.4-69.1 16.4-106.1V465h52.6c5.3 30.1 9.9 71.4-13.3 102.5zm-101.2-74.1v1.7H129v-89.9h649.4v88.2zm167.9-68.2l-7.1-19.9h-98.9v-35.1c0-16.6-12.7-24.8-29.8-24.8H93.7c-17.1 0-26.6 8.2-26.6 24.8v123.3c0 191.9 156.8 346.3 354.9 346.3h60.1c134.5 0 251.8-71.1 313.4-177.3 61.3-3.4 106.6-23.3 134.4-60.8 52.5-70.9 17.9-172.2 16.4-176.5zM613.1 267.5c2.6.7 5.3 1 7.8 1 13.8 0 26.3-8.9 29.9-22.4 10-36.9 23.8-46.1 41.3-57.7 22-14.6 49.4-32.7 58.1-90.8 2.4-16.4-9.3-31.6-26.2-34-17-2.3-32.5 9-35 25.4-4.8 32-14.4 38.4-31.8 49.9-21.3 14.1-50.4 33.4-66.2 92-4.3 16 5.6 32.4 22.1 36.6zm-216.5 0c2.6.7 5.3 1 7.8 1 13.7 0 26.3-8.9 29.9-22.4 10-36.9 23.8-46.1 41.2-57.7 22-14.6 49.5-32.7 58.1-90.8 2.5-16.4-9.3-31.6-26.2-34-16.9-2.3-32.6 9-35 25.4-4.8 32-14.4 38.4-31.8 49.9-21.3 14.1-50.4 33.4-66.2 92-4.2 16 5.7 32.4 22.2 36.6z"/></svg>