<svg class="icon" viewBox="0 0 1024 1024" xmlns="http://www.w3.org/2000/svg" width="128" height="128"><defs><style/></defs><path d="M832 608c17.6 0 32 14.4 32 32v320a32 32 0 0 1-64 0V640c0-17.6 14.4-32 32-32zM256 224h384a32 32 0 0 1 0 64H256a32 32 0 0 1 0-64zm0 192h384a32 32 0 0 1 0 64H256a32 32 0 0 1 0-64zm0 192h224a32 32 0 0 1 0 64H256a32 32 0 0 1 0-64z"/><path d="M672 768h320a32 32 0 0 1 0 64H672a32 32 0 0 1 0-64z"/><path d="M736 32H160A128 128 0 0 0 32 160v704a128 128 0 0 0 128 128h416v-64H160a64 64 0 0 1-64-64V160a64 64 0 0 1 64-64h576a64 64 0 0 1 64 64v384h64V160A128 128 0 0 0 736 32z"/></svg>