<svg class="icon" viewBox="0 0 1024 1024" xmlns="http://www.w3.org/2000/svg" width="200" height="200"><defs><style/></defs><path d="M57.219 176.057h207.168v667.59H57.219v-667.59zm253.255 69.159H448.65v598.46H310.474v-598.46zm203.345 149.6h130.395v448.859H513.819V394.816zM103.334 62.89H218.44c25.348 0 45.946 17.17 45.946 38.318v38.457H57.219v-38.457c0-21.147 20.683-38.318 46.115-38.318zm253.087 76.775h46.115c25.404 0 46.115 17.17 46.115 38.33v38.333H310.474v-38.332c0-21.161 20.599-38.331 45.947-38.331zm203.376 130.38h46.086c25.402 0 46.087 17.184 46.087 38.443v38.33H513.82v-38.33c0-21.26 20.571-38.444 45.978-38.444zm384.21 563.262L808.33 859.074 697.159 270.816l135.786-25.601 111.063 588.09zm-221.106-674.66l45.187-8.542c24.954-4.722 48.447 8.317 52.381 29.127l7.08 37.755-135.673 25.629s-3.263-16.862-7.197-37.783c-3.932-20.767 13.153-41.464 38.222-46.186zm226.838 704.927s3.148 16.862 7.082 37.628c3.935 20.796-13.153 41.62-38.108 46.34l-45.188 8.541c-25.067 4.723-48.447-8.315-52.38-29.25l-7.193-37.658 135.787-25.6zM651.97 882.091v38.331c0 21.273-20.685 38.332-46.087 38.332h-46.086c-25.407 0-45.978-17.059-45.978-38.332v-38.331H651.97zm-203.318 0v38.331c0 21.273-20.712 38.332-46.115 38.332h-46.116c-25.348 0-45.946-17.059-45.946-38.332v-38.331h138.177zm-184.265 0v38.331c0 21.273-20.598 38.332-45.946 38.332H103.334c-25.432 0-46.115-17.059-46.115-38.332v-38.331h207.168zm0 0"/></svg>