<svg xmlns="http://www.w3.org/2000/svg" width="500" height="500"><path d="M488.609 382.859c-5.172 7.281-14.141 3.469-25.781 3.469-2.188 0-9.094.109-10.141 0H381.75c0-61.063-40.047-127.594-86.547-139.719 12.328-7.625 27.094-12.953 45.078-15.094-25.422-8.156-45.234-28.922-52.75-54.969-10.516 33.781-36.406 60.656-69.359 72.031 86.359 16.5 117.547 79.516 136.547 151.266 4.422 16.766 7.656 39.656-2.156 53.469-7.078 9.938-15.703 14.078-31.609 14.078 0 0-.094 1.063-10.141 0L52.36 468.406c-4.359.234-25.25.844-37.719-15.078-12.047-15.375-6.359-44.078-6.281-44.359 16.609-77.141 44.219-149.234 133.344-162.359-42.063-16.406-74.078-56.563-74.078-103.469 0-61.422 54.859-111.406 115.344-111.406 53.25 0 97.734 38.75 107.625 89.922 12.297-29.078 40.75-49.5 73.828-49.5 44.297 0 80.328 36.578 80.328 81.563 0 37.5-25.078 69.078-59.047 78.578 68.109 9.906 90.047 57 104.453 111.406 3.234 12.281 5.594 29.031-1.578 39.141l.03.014z"/></svg>