<svg class="icon" viewBox="0 0 1024 1024" xmlns="http://www.w3.org/2000/svg" width="200" height="200"><defs><style/></defs><path d="M162.816 730.112H41.984c-5.632 0-10.752-2.048-12.8-7.68-3.584-4.096-5.632-9.728-3.584-15.872 14.336-82.944 67.584-148.48 136.704-178.176-51.2-29.696-83.968-87.04-83.968-154.112 0-98.816 72.704-178.176 163.84-178.176h1.024c-38.4 53.248-60.928 118.784-60.928 189.952 0 90.112 35.328 172.544 96.768 231.424-45.568 29.696-84.992 68.096-116.224 112.64zm685.568 0c-31.744-45.056-72.192-83.456-119.296-113.152 60.416-59.392 97.28-142.848 97.28-230.4 0-71.168-22.528-136.704-60.928-189.952h6.656c91.136 0 163.84 78.848 163.84 178.176 0 65.024-34.816 124.416-83.968 154.112 69.12 29.696 123.904 94.72 138.24 178.176 2.048 6.144 0 11.776-3.584 15.872-3.584 6.144-9.216 7.68-14.336 7.68H848.384zM782.336 386.56c0 100.864-57.856 192.512-139.776 238.592 115.2 46.08 206.336 146.432 230.912 274.944 3.072 9.216 0 18.432-6.144 24.576-6.144 9.216-15.36 12.288-24.064 12.288h-668.16c-9.216 0-18.432-3.072-21.504-12.288-6.144-6.144-9.216-15.36-6.144-24.576 24.064-128.512 112.128-229.376 227.84-274.944-84.992-46.08-139.776-134.656-139.776-238.592 0-152.576 121.344-274.944 273.408-274.944 152.064-.512 273.408 121.856 273.408 274.944z"/></svg>