<svg class="icon" viewBox="0 0 1024 1024" xmlns="http://www.w3.org/2000/svg" width="200" height="200"><defs><style/></defs><path d="M914.62 174.633c0-42.546-35.034-77.353-77.84-77.353H128.945c-42.752 0-77.745 34.807-77.745 77.353v86.42h863.42v-86.42zM742.953 438.932c65.793 0 125.867 24.445 171.669 64.734V377.079H51.2v325.303c0 42.542 34.998 77.37 77.745 77.37h366.777c-8.303-25.428-12.812-52.575-12.812-80.778 0-143.618 116.425-260.042 260.042-260.042zm211.54 172.187c-12.05-27.448-28.676-51.695-49.403-72.304-20.902-20.593-45.149-37.057-73.06-49.098-27.766-12.057-57.196-17.996-88.47-17.996-32.026 0-61.923 5.938-89.684 17.996-27.75 12.047-52.157 28.505-72.895 49.098-20.896 20.609-37.372 44.856-49.573 72.304-12.212 27.595-18.302 56.885-18.302 87.854 0 31.715 6.097 61.315 18.302 88.765 12.202 27.6 28.677 51.696 49.573 72.448 20.739 20.581 45.14 36.742 72.895 48.49 27.761 11.772 57.658 17.55 89.683 17.55 31.275 0 60.705-5.778 88.471-17.55 27.911-11.748 52.158-27.909 73.06-48.49 20.727-20.751 37.353-44.849 49.403-72.448 12.213-27.45 18.308-57.049 18.308-88.765 0-30.97-6.094-60.259-18.308-87.854zM872.196 805.66c-13.444-36.905-48.845-63.266-90.406-63.266v96.448c0 13.333-10.811 24.138-24.143 24.138-8.336 0-15.687-4.226-20.02-10.658L602.564 717.267c-5.366-4.432-8.79-11.131-8.79-18.631 0-6.713 2.75-12.783 7.166-17.16l-.03-.03 140.5-140.497.16.154a24.033 24.033 0 0 1 16.077-6.144c13.332 0 24.143 10.816 24.143 24.144v72.952c60.939 0 110.344 49.397 110.344 110.337-.008 23.54-7.382 45.357-19.938 63.268z"/></svg>