<svg class="icon" viewBox="0 0 1195 1024" xmlns="http://www.w3.org/2000/svg" width="583.496" height="500"><defs><style/></defs><path d="M1189.814 476.33L928.352 21.846a41.301 41.301 0 0 0-52.394-17.92L753.93 74.581l6.827 11.776a17.067 17.067 0 0 1-6.486 24.406 17.067 17.067 0 0 1-24.234-6.315l-6.827-11.776L14.944 502.955a39.253 39.253 0 0 0-8.02 53.077l273.066 445.099a38.4 38.4 0 0 0 49.664 19.114l696.49-401.237-6.656-11.435a17.067 17.067 0 0 1 30.038-18.944v1.195l6.656 11.435 122.026-70.827a41.13 41.13 0 0 0 11.606-54.101zM832.95 247.638a17.067 17.067 0 0 1 24.234 6.486L889.44 310.1a17.067 17.067 0 1 1-30.72 17.067l-32.256-55.125a17.067 17.067 0 0 1 6.486-24.406zm-64.512-111.104a17.067 17.067 0 0 1 24.234 6.486l32.086 55.978a17.067 17.067 0 1 1-30.55 17.067l-32.085-55.808a17.067 17.067 0 0 1 6.315-23.723zm178.688 310.614a17.067 17.067 0 0 1-24.235-6.486L890.806 384a17.067 17.067 0 0 1 6.485-24.405 17.067 17.067 0 0 1 24.235 6.314l32.085 55.808a17.067 17.067 0 0 1-6.485 24.406zm64.341 111.786a17.067 17.067 0 0 1-24.235-6.485l-32.085-57.515a17.92 17.92 0 0 1 6.485-24.405 17.067 17.067 0 0 1 24.235 6.485l32.256 55.979a17.067 17.067 0 0 1-6.485 24.405zm-326.485-71.68l-95.232 55.979v171.35l-39.254 23.04-36.522-150.529-78.848 46.251-3.584 1.707-14.678 41.813-37.205 21.845-6.997-68.266-51.2-36.523 37.205-21.845 45.056 6.826 1.195-1.024 78.848-46.25-106.326-102.4 39.254-23.04 143.19 80.042 94.207-54.442c14.507-8.534 49.152-11.776 57.173 2.389s-11.093 43.69-26.112 52.395z"/></svg>