<svg class="icon" viewBox="0 0 1024 1024" xmlns="http://www.w3.org/2000/svg" width="480" height="480"><defs><style/></defs><path d="M753.968 902.871H698.13v27.922c0 15.417-12.5 27.916-27.92 27.916-15.419 0-27.918-12.5-27.918-27.916v-27.922h-260.58v27.922c0 15.417-12.5 27.916-27.921 27.916-15.418 0-27.917-12.5-27.917-27.916v-27.922h-55.842c-51.394 0-93.063-41.669-93.063-93.063V270.033c0-51.399 41.669-93.068 93.063-93.068h74.456v-55.837c0-30.84 24.997-55.838 55.838-55.838h223.356c30.838 0 55.837 24.998 55.837 55.838v55.837h74.45a93.062 93.062 0 0 1 65.807 27.262 93.06 93.06 0 0 1 27.256 65.806V809.81c0 51.394-41.665 93.062-93.064 93.062zM623.68 139.741c0-10.28-8.334-18.612-18.613-18.612H418.936a18.61 18.61 0 0 0-18.612 18.613v37.224H623.68v-37.224zm167.513 130.292a37.22 37.22 0 0 0-37.225-37.224H270.03a37.225 37.225 0 0 0-37.226 37.224V809.81c0 20.56 16.666 37.226 37.226 37.226h483.937c20.56 0 37.226-16.666 37.226-37.226V270.033zM614.372 753.967c-15.418 0-27.921-12.5-27.921-27.917V353.793c0-15.421 12.503-27.921 27.92-27.921 15.419 0 27.922 12.5 27.922 27.92V726.05c0 15.418-12.504 27.918-27.921 27.918zm-204.744 0c-15.418 0-27.916-12.5-27.916-27.917V353.793c0-15.421 12.5-27.921 27.916-27.921 15.423 0 27.922 12.5 27.922 27.92V726.05c0 15.418-12.5 27.918-27.922 27.918zm0 0"/></svg>