<svg class="icon" viewBox="0 0 1024 1024" xmlns="http://www.w3.org/2000/svg" width="200" height="200"><defs><style/></defs><path d="M923.4 707.7c-9.6-22-22.9-41.3-39.5-57.8-16.7-16.5-36.1-29.6-58.4-39.3-22.2-9.6-45.7-14.4-70.8-14.4-25.6 0-49.5 4.8-71.7 14.4-22.2 9.6-41.7 22.8-58.3 39.3-16.7 16.5-29.9 35.9-39.7 57.8-9.8 22.1-14.6 45.5-14.6 70.3 0 25.4 4.9 49 14.6 71 9.8 22.1 22.9 41.3 39.7 57.9 16.6 16.5 36.1 29.4 58.3 38.8 22.2 9.4 46.1 14 71.7 14 25 0 48.6-4.6 70.8-14 22.3-9.4 41.7-22.3 58.4-38.8 16.6-16.6 29.9-35.9 39.5-57.9 9.8-22 14.6-45.6 14.6-71 0-24.8-4.8-48.2-14.6-70.3zM873.3 807h-58.4c0 48.7-39.5 88.3-88.3 88.3-18.8 0-36.3-5.9-50.6-15.9 29.5-10.8 50.6-39.1 50.6-72.3h-77.1c-10.7 0-19.3-8.6-19.3-19.3 0-6.7 3.4-12.5 8.5-16l108-108c3.5-4.3 8.9-7 14.9-7 5.4 0 10.2 2.2 13.7 5.7l112.4 112.4-.1.1c3.1 3.4 4.9 7.9 4.9 12.9.1 10.5-8.6 19.1-19.2 19.1zM556.8 155.8c-26.9-14.1-53.5-28.3-79.8-42.4-26.3-14.1-46.8-25-61.6-32.8-22.4-12.2-42.5-17.8-60.1-16.8s-32.5 4-44.7 9.1c-14.1 7.1-26.3 16.4-36.6 27.9l-55.8 106.9h436.6c-34.6-17.9-67.3-35.2-98-51.9zM336.6 588.7c8.3-8.7 12.5-19.1 12.5-31.3s-4.2-22.5-12.5-30.8-18.6-12.5-30.8-12.5-22.4 4.2-30.8 12.5c-8.3 8.3-12.5 18.6-12.5 30.8s4.2 22.6 12.5 31.3 18.6 13 30.8 13 22.4-4.3 30.8-13z"/><path d="M754.2 571.3c58.2 0 110.7 24 148.3 62.7V339.7c0-24.4-8.5-45.1-25.5-62.1s-37.7-25.5-62-25.5H175c-24.4 0-45.1 8.5-62.1 25.5s-25.5 37.7-25.5 62.1v131h218.3c24.4 0 45.1 8.4 62 25 17 16.7 25.5 37.3 25.5 61.6-.6 16.7-4.2 31.5-10.6 44.3-5.1 10.9-13.6 20.9-25.5 29.9s-29 13.5-51.5 13.5H87.5v175.2c0 12.2 2.1 23.6 6.3 34.2 4.2 10.6 10.1 19.9 17.8 27.9 7.7 8 16.7 14.3 26.9 18.8s21.5 6.7 33.7 6.8h421.2c-28.7-35.5-45.9-80.7-45.9-129.8 0-114.3 92.5-206.8 206.7-206.8z"/></svg>