<svg class="icon" viewBox="0 0 1024 1024" xmlns="http://www.w3.org/2000/svg" width="200" height="200"><defs><style/></defs><path d="M578.2 298.5h-133c-12.5 0-22.7-10.2-22.7-22.7s10.2-22.7 22.7-22.7h133c12.5 0 22.7 10.2 22.7 22.7s-10.3 22.7-22.7 22.7zm0 76.7h-133c-12.5 0-22.7-10.2-22.7-22.7s10.2-22.7 22.7-22.7h133c12.5 0 22.7 10.2 22.7 22.7s-10.3 22.7-22.7 22.7z"/><path d="M486.9 272.4l-42.6-42.6c-9-9-9-23.7 0-32.6 9-9 23.7-9 32.6 0l42.6 42.6c9 9 9 23.7 0 32.6-8.9 9-23.6 9-32.6 0z"/><path d="M505.3 239.7l42.6-42.6c9-9 23.7-9 32.6 0 9 9 9 23.7 0 32.6L538 272.4c-9 9-23.7 9-32.6 0-9.1-9-9.1-23.7-.1-32.7z"/><path d="M512.4 421.4c-12.5 0-22.7-10.2-22.7-22.7V278.2c0-12.5 10.2-22.7 22.7-22.7s22.7 10.2 22.7 22.7v120.5c0 12.5-10.2 22.7-22.7 22.7z"/><path d="M851.2 951.4H171.5c-55.6 0-100.9-45.3-100.9-100.9V336.2c0-55.6 45.3-100.9 100.9-100.9h26.6v64h-26.6c-20.4 0-36.9 16.6-36.9 36.9v514.3c0 20.4 16.6 36.9 36.9 36.9h679.7c20.4 0 36.9-16.6 36.9-36.9V336.2c0-20.4-16.6-36.9-36.9-36.9h-38.8v-64h38.8c55.6 0 100.9 45.3 100.9 100.9v514.3c0 55.7-45.3 100.9-100.9 100.9z"/><path d="M787.3 544.4H236c-35 0-63.5-28.5-63.5-63.5V130.5c0-35 28.5-63.5 63.5-63.5h551.3c35 0 63.5 28.5 63.5 63.5V481c0 35-28.5 63.4-63.5 63.4zm-550.8-63.9h550.3V131H236.5v349.5z"/><path d="M115.3 480.5H927v64H115.3z"/></svg>