<svg class="icon" viewBox="0 0 1024 1024" xmlns="http://www.w3.org/2000/svg" width="200" height="200"><defs><style/></defs><path d="M785.6 711.2h-65.9V666h65.9c10.3 0 19.1-8.7 19.1-19.1 0-10.3-8.7-19.1-19.1-19.1h-22.9l11.4-25.6c4.4-9.8 0-20.7-9.8-25s-20.7 0-25 9.8l-18 40.8h-32.7l-18-40.8c-4.4-9.8-15.2-14.2-25-9.8s-14.2 15.2-9.8 25l11.4 25.6h-31.6c-10.3 0-19.1 8.7-19.1 19.1 0 10.3 8.7 19.1 19.1 19.1h65.9v45.2h-65.9c-10.3 0-19.1 8.7-19.1 19.1 0 10.3 8.7 19.1 19.1 19.1h65.9V800c0 10.3 8.7 19.1 19.1 19.1 10.3 0 19.1-8.7 19.1-19.1v-50.6h65.9c10.3 0 19.1-8.7 19.1-19.1-.1-10.3-8.8-19.1-19.1-19.1zm0 0"/><path d="M541.1 766.2H270c-7.1 0-12.5-6-12.5-12.5V255.6c0-7.1 6-12.5 12.5-12.5h438.2c7.1 0 12.5 6 12.5 12.5v253.7c0 10.3 8.7 19.1 19.1 19.1 10.3 0 19.1-8.7 19.1-19.1V255.6c0-27.8-22.9-50.6-50.6-50.6H270c-27.8 0-50.6 22.9-50.6 50.6v498.7c0 27.8 22.9 50.6 50.6 50.6h270.6c10.3 0 19.1-8.7 19.1-19.1s-8.2-19.6-18.6-19.6zm0 0"/><path d="M653.8 292.1H319c-10.3 0-19.1 8.7-19.1 19.1 0 10.3 8.7 19.1 19.1 19.1h334.8c10.3 0 19.1-8.7 19.1-19.1 0-10.4-8.7-19.1-19.1-19.1zm19.1 111.6c0-10.3-8.7-19.1-19.1-19.1H319c-10.3 0-19.1 8.7-19.1 19.1 0 10.3 8.7 19.1 19.1 19.1h334.8c10.4-.1 19.1-8.8 19.1-19.1zm-371.8 97.4c0 7.4 3.9 14.2 10.3 17.9 6.4 3.7 14.3 3.7 20.7 0s10.3-10.5 10.3-17.9c0-7.4-3.9-14.2-10.3-17.9-6.4-3.7-14.3-3.7-20.7 0-6.4 3.7-10.3 10.5-10.3 17.9zm72.4 0c0 11.4 9.3 20.7 20.7 20.7s20.7-9.3 20.7-20.7c0-11.4-9.3-20.7-20.7-20.7s-20.7 9.3-20.7 20.7zm72.4 0c0 7.4 3.9 14.2 10.3 17.9 6.4 3.7 14.3 3.7 20.7 0s10.3-10.5 10.3-17.9c0-7.4-3.9-14.2-10.3-17.9-6.4-3.7-14.3-3.7-20.7 0-6.4 3.7-10.3 10.5-10.3 17.9zm0 0"/></svg>