<svg class="icon" viewBox="0 0 1024 1024" xmlns="http://www.w3.org/2000/svg" width="250" height="250"><defs><style/></defs><path d="M928.464 893.921H93.532c-17.593 0-31.894 14.273-31.894 31.872 0 17.594 14.301 31.874 31.894 31.874h834.932c17.591 0 31.849-14.28 31.849-31.874 0-17.599-14.257-31.872-31.85-31.872zm-240.49-233.785c-10.557 0-19.12 8.568-19.12 19.126v145.104c0 10.575 8.562 19.144 19.12 19.144h125.977c10.559 0 19.126-8.569 19.126-19.144V679.262c0-10.558-8.567-19.126-19.126-19.126H687.974zM445.69 391.119c-10.558 0-19.122 8.546-19.122 19.139v414.108c0 10.575 8.564 19.144 19.122 19.144h125.98c10.558 0 19.112-8.569 19.112-19.144V410.258c0-10.593-8.553-19.14-19.113-19.14H445.69zM203.43 843.51h125.95c10.574 0 19.138-8.569 19.138-19.144v-290.2c0-10.559-8.552-19.125-19.138-19.125H203.43c-10.559 0-19.166 8.566-19.166 19.126v290.2c0 10.574 8.607 19.143 19.166 19.143zm80.937-551.095l198.517-160.627 261.349 300.639-36.209 30.22a19.141 19.141 0 0 0-6.413 18.942c1.604 7 7.012 12.518 13.973 14.294l127.063 32.043c1.55.392 3.115.576 4.673.576 4.438 0 8.789-1.527 12.274-4.426a19.004 19.004 0 0 0 6.814-15.96l-8.782-130.769a19.159 19.159 0 0 0-11.574-16.29c-6.562-2.828-14.233-1.703-19.763 2.905l-42.905 35.772L505.245 79.76c-9.025-10.37-24.627-11.718-35.288-3.117L252.256 252.756c-10.94 8.856-12.66 24.925-3.77 35.864 8.837 10.94 24.911 12.646 35.88 3.795z"/></svg>