<?xml version="1.0" encoding="utf-8"?>
<!-- Generator: Adobe Illustrator 16.0.0, SVG Export Plug-In . SVG Version: 6.00 Build 0)  -->
<!DOCTYPE svg PUBLIC "-//W3C//DTD SVG 1.1//EN" "http://www.w3.org/Graphics/SVG/1.1/DTD/svg11.dtd">
<svg version="1.1" id="图层_1" xmlns="http://www.w3.org/2000/svg" xmlns:xlink="http://www.w3.org/1999/xlink" x="0px" y="0px"
	 width="500px" height="500px" viewBox="0 0 500 500" enable-background="new 0 0 500 500" xml:space="preserve">
<path d="M338.522,142.44c-0.223,10.093,8.077,18.4,18.397,18.4c10.093,0,18.4-8.297,18.4-18.4c0-10.092-8.298-18.397-18.4-18.397
	C346.83,124.042,338.522,132.34,338.522,142.44z M219.178,140.615c-51.3,0-93.133,41.832-93.133,93.132
	c0,51.502,41.833,93.132,93.133,93.132c51.305,0,93.132-41.833,93.132-93.132C312.31,182.447,270.478,140.615,219.178,140.615
	L219.178,140.615z M219.178,302.025c-37.493,0-68.078-30.586-68.078-68.078c0-37.69,30.585-68.077,68.078-68.077
	c37.492,0,68.077,30.585,68.077,68.077S256.67,302.025,219.178,302.025L219.178,302.025z"/>
<path d="M37.467,362.064c-5.16,0-9.42-4.262-9.42-9.42V116.413l-0.002,0.005l0.223-3.81c0-5.16,4.262-9.42,9.42-9.42h80.763
	c4.712,0,8.972-2.24,11.44-5.835l26.92-36.57h111.945l28.94,37.018c2.626,3.556,6.797,5.64,11.217,5.605h74.482
	c5.16,0,9.421,4.263,9.421,9.42v147.313h28.947V112.61c0.223-21.09-16.828-38.14-37.918-38.14v-0.005H316.32L287.377,37.45
	c-2.626-3.556-6.797-5.64-11.217-5.605H149.857c-4.712,0-8.973,2.24-11.44,5.835L111.5,74.25H37.917C17.053,74.25,0,91.3,0,112.165
	v239.59c0,20.862,17.05,37.917,37.917,37.917H288.68v-27.607H37.467z"/>
<path display="none" d="M400.38,354.34h12.686v59.453H400.38V354.34z"/>
<path display="none" d="M500,374.867c0-51.442-41.845-93.297-93.28-93.297c-51.433,0-93.274,41.852-93.274,93.297
	c0,51.44,41.842,93.29,93.274,93.29C458.155,468.157,500,426.308,500,374.867z M481,374.867c0,40.963-33.322,74.288-74.277,74.288
	s-74.272-33.325-74.272-74.288c0-40.967,33.32-74.295,74.272-74.295C447.678,300.572,481,333.9,481,374.867L481,374.867z"/>
<path stroke="#fff" stroke-width="2" stroke-miterlimit="10" d="M374.665,273.367c-36.805,0-66.642,29.857-66.642,66.683
	c0,36.829,29.837,66.683,66.642,66.683c36.803,0,66.64-29.854,66.64-66.683C441.305,303.225,411.468,273.367,374.665,273.367z
	 M374.654,397.854c-31.902,0-57.769-25.883-57.769-57.806c0-31.926,25.866-57.808,57.769-57.808
	c31.907,0,57.772,25.882,57.772,57.808C432.427,371.971,406.563,397.854,374.654,397.854z M402.255,359.383l-13.929-14.784
	c2.045-3.524,3.238-7.604,3.238-11.975c0-13.2-10.705-23.9-23.903-23.9c-13.202,0-23.907,10.7-23.907,23.9
	s10.705,23.903,23.907,23.903c4.927,0,9.502-1.493,13.311-4.048l13.673,14.515c2.099,2.102,5.508,2.102,7.61,0
	C404.354,364.894,404.354,361.487,402.255,359.383z M367.652,347.18c-8.039,0-14.557-6.518-14.557-14.557
	c0-8.038,6.518-14.556,14.557-14.556c8.041,0,14.558,6.518,14.558,14.556C382.21,340.662,375.693,347.18,367.652,347.18z"/>
</svg>
