<svg class="icon" viewBox="0 0 1024 1024" xmlns="http://www.w3.org/2000/svg" width="480" height="480"><defs><style/></defs><path d="M642.478 390.006l-208.6 208.198-105.21-108.489c-7.33-7.559-19.4-7.744-26.96-.413-7.56 7.331-7.744 19.4-.413 26.96L417.577 636.17l.113.116c3.937 3.992 9.475 6.254 15.595 6.372.167.004.332.005.498.005 6.108 0 11.656-2.163 15.666-6.122l.075-.073 219.892-219.47c7.452-7.44 7.464-19.51.025-26.964-7.44-7.455-19.511-7.466-26.963-.027z"/><path d="M975.916 869.465l-95.64-95.553c-.08-.08-.168-.147-.249-.225 17.563-27.14 27.774-59.463 27.774-94.128 0-95.781-77.929-173.704-173.717-173.704-95.787 0-173.717 77.923-173.717 173.704 0 45.426 17.531 86.827 46.173 117.814-42.757 34.591-89.418 60.76-138.887 77.891-56.998-19.545-108.66-49.254-153.573-88.338-36.5-31.763-68.711-69.789-95.74-113.024-41.854-66.95-58.317-126.103-61.23-137.444V256.2c49.582-.469 96.355-6.157 139.291-16.957 39.226-9.867 75.375-24.003 107.446-42.014 30.73-17.26 51.937-34.873 64.95-47.422 12.465 13.779 32.406 31.688 60.16 48.293 29.755 17.801 64.118 31.758 102.134 41.48 41.46 10.603 87.441 16.181 136.933 16.625v200.822c0 10.739 8.705 19.443 19.442 19.443s19.443-8.704 19.443-19.443V236.672a19.439 19.439 0 0 0-5.82-13.872 19.46 19.46 0 0 0-13.975-5.567c-52.699.951-101.231-4.02-144.253-14.786-34.15-8.546-64.917-20.74-91.446-36.243-35.96-21.014-56.682-44.272-62.614-53.634l.07.112-1.382.85a19.28 19.28 0 0 0-6.505-8.59c-8.618-6.404-20.77-4.647-27.175 3.973-.213.28-21.858 28.395-71.188 55.625-29.018 16.017-61.817 28.612-97.484 37.436-44.804 11.082-94.302 16.215-147.12 15.258a19.481 19.481 0 0 0-13.974 5.567 19.441 19.441 0 0 0-5.82 13.872v302.15c0 1.453.162 2.901.484 4.317.648 2.844 16.427 70.57 65.868 150.107 29.054 46.74 63.8 87.92 103.27 122.398 49.454 43.195 106.433 75.88 169.356 97.15a19.414 19.414 0 0 0 6.228 1.028c1.58 0 3.137-.2 4.644-.573.873.123 1.756.195 2.647.195 2.025 0 4.084-.324 6.108-1.009 56.941-19.25 110.39-49.427 158.949-89.723 27.973 19.273 61.842 30.575 98.304 30.575 47.367 0 90.36-19.065 121.729-49.915l93.152 93.069a19.005 19.005 0 0 0 13.476 5.578c4.883 0 9.765-1.864 13.489-5.59 7.444-7.45 7.439-19.522-.01-26.965zm-241.832-54.31c-74.762 0-135.584-60.827-135.584-135.596 0-74.754 60.823-135.571 135.584-135.571 74.762 0 135.585 60.818 135.585 135.571 0 74.77-60.823 135.596-135.585 135.596z"/><path d="M697.749 568.23c-74.756 30.996-82.849 100.076-83.157 103.002-1.102 10.471 6.494 19.854 16.965 20.956.679.071 1.351.106 2.02.106 9.633 0 17.907-7.277 18.938-17.072.052-.49 5.793-49.359 59.839-71.768 9.727-4.033 14.343-15.188 10.31-24.915-4.033-9.725-15.192-14.34-24.915-10.308z"/></svg>