<svg class="icon" viewBox="0 0 1025 1024" xmlns="http://www.w3.org/2000/svg" width="200.195" height="200"><defs><style/></defs><path d="M472.483 751.161c.123.125.248.249.373.37 11.175 10.874 25.852 16.832 41.412 16.832.277 0 .555 0 .832-.005 15.838-.217 30.644-6.574 41.703-17.905l334.742-339.77c9.525-9.667 9.409-25.226-.259-34.75-9.666-9.524-25.227-9.409-34.75.259L540.727 696.744V87.434c0-13.57-11.001-24.573-24.573-24.573s-24.573 11.002-24.573 24.574v613.074L170.859 374.768c-9.521-9.671-25.08-9.792-34.75-.27-9.671 9.521-9.792 25.08-.271 34.751l336.645 341.912zm406.53 95.769h-729.26c-13.571 0-24.573 11-24.573 24.573s11.002 24.573 24.573 24.573h729.26c13.572 0 24.574-11.002 24.574-24.573s-11.003-24.574-24.574-24.574z"/></svg>