<?xml version="1.0" standalone="no"?><!DOCTYPE svg PUBLIC "-//W3C//DTD SVG 1.1//EN" "http://www.w3.org/Graphics/SVG/1.1/DTD/svg11.dtd"><svg t="1530754052597" class="icon" style="" viewBox="0 0 1024 1024" version="1.1" xmlns="http://www.w3.org/2000/svg" p-id="8531" xmlns:xlink="http://www.w3.org/1999/xlink" width="500" height="500"><defs><style type="text/css"></style></defs><path d="M765.952 154.624H61.44c-33.6384 0-61.184 27.5456-61.184 61.184V808.448c0 33.6384 27.5456 61.184 61.1328 61.184h694.4768c33.5872 0 61.1328-27.5456 61.1328-61.184v-144.2304c0-9.0112 10.9056-13.5168 17.3056-7.168l154.624 154.7264a18.944 18.944 0 0 0 32.256-13.312V225.792a18.8928 18.8928 0 0 0-32.256-13.312l-154.624 154.624a10.1376 10.1376 0 0 1-17.3056-7.1168V205.7216a51.2 51.2 0 0 0-51.0464-51.0976zM306.5344 690.8416V351.7952c0-7.9872 8.8064-12.8 15.5648-8.4992l251.7504 160.3072a10.0864 10.0864 0 0 1 0 17.0496l-267.264 170.1888z" p-id="8532"></path></svg>