<?xml version="1.0" standalone="no"?><!DOCTYPE svg PUBLIC "-//W3C//DTD SVG 1.1//EN" "http://www.w3.org/Graphics/SVG/1.1/DTD/svg11.dtd"><svg class="icon" width="200px" height="200.00px" viewBox="0 0 1024 1024" version="1.1" xmlns="http://www.w3.org/2000/svg"><path d="M534.133 138.76V8l-520.8 137.032v660.8l520.8 137.032V812.16h384.16v-673.4h-384.16m0 490.896h97.44v81.816h-97.44V629.6m0-132.16h97.44v81.76h-97.44v-81.816m0-132.16h97.44v81.816h-97.44v-81.816m0-132.16h97.44v81.816h-97.44v-81.816m158.48 396.48h121.52v81.816h-121.52V629.6m0-132.16h121.52v81.76h-121.52v-81.816m0-132.16h121.52v81.816h-121.52v-81.816m0-132.16h121.52v81.816h-121.52v-81.816m-478.8 104.72l63.28 96.6 66.08-102.704 54.32-2.52-91.84 141.512 98.56 152.264-59.36-2.8-69.44-111.104-70.56 104.496-56-2.632 99.12-140-92.4-130.312 58.24-2.688m0 0z m488.88 545.664h215.6v80.08h-215.6v-80.08z m318.64 38.584L918.293 1016V834.168l103.04 87.976z" /></svg>