<?xml version="1.0" standalone="no"?><!DOCTYPE svg PUBLIC "-//W3C//DTD SVG 1.1//EN" "http://www.w3.org/Graphics/SVG/1.1/DTD/svg11.dtd"><svg t="1530695795324" class="icon" style="" viewBox="0 0 1024 1024" version="1.1" xmlns="http://www.w3.org/2000/svg" p-id="16269" xmlns:xlink="http://www.w3.org/1999/xlink" width="500" height="500"><defs><style type="text/css"></style></defs><path d="M894.912761 652.445688c-0.511642-6.344359-1.841911-12.484061-3.990806-18.419107l-0.204657-0.409313c-3.683821-8.697911-8.80024-16.577196-15.042271-23.433197-5.525732-6.344359-11.972419-11.563106-19.340061-15.65624-6.651344-3.581493-13.916658-5.730389-21.38663-6.344359-1.023284-0.102328-2.148896-0.102328-3.172179-0.102329-8.80024 0-17.293495 3.581493-23.535525 9.823524-3.581493 2.762866-26.810033 23.637854-26.810033 23.637853l79.509143 79.406815 5.116419-3.581492c2.353553-1.637254 4.502448-3.581493 6.549015-5.628061 2.251224-2.148896 18.009793-21.386629 18.009794-21.386629 3.069851-5.423404 4.604777-11.460777 4.297791-17.907465z m-129.240731-16.781853c-25.991406 26.093734-52.494454 52.903767-78.792845 79.713801-9.823524 10.02818-19.544719 20.158689-29.265914 30.289197-8.697911 9.107225-17.60048 18.419107-26.605377 27.62866l-20.158688 20.670331-10.539823 10.744479c-6.344359 6.242031-11.563106 13.609673-15.349255 21.898271-1.841911 4.297792-3.479165 8.697911-4.707105 12.995703l-6.344359 19.340062c-2.251224 7.060658-4.195463 14.018987-5.935046 20.772659-1.637254 6.549016-2.762866 11.460777-3.376836 14.939942-1.739582 6.549016-0.920955 13.712002 2.455881 19.647047l0.716299 1.227941 1.023283 0.920955c3.78615 3.172179 8.697911 5.01409 13.609674 5.01409 2.046567 0 3.990806-0.306985 5.935045-0.818627 3.376836-0.61397 8.18627-1.739582 14.735285-3.479164 6.651344-1.739582 13.507345-3.78615 20.465674-6.037374 6.958329-2.148896 14.018987-4.604777 20.874988-7.060658 5.423404-1.841911 10.846807-4.093135 16.270211-6.651344 3.888478-1.944239 7.572299-4.297792 11.051464-6.958329l9.311881-7.367643 9.107225-9.516538c6.139702-6.753672 12.381733-13.302688 18.828421-19.647047l56.075946-57.099231 84.216249-86.160487-78.281203-80.327771-5.321075 5.321075z m-436.225842-394.987508c20.874988 0 37.861497-17.293495 37.861497-38.475468v-61.090037c0-21.181973-16.986509-38.475467-37.861497-38.475467s-37.861497 17.293495-37.861497 38.475467v61.090037c0 21.284301 16.986509 38.475467 37.861497 38.475468z m86.979114-35.405616h107.240132c16.781853 0 30.493854-13.916658 30.493854-31.005497S540.447287 143.259718 523.665434 143.259718H416.425302c-16.781853 0-30.493854 13.916658-30.493854 31.005496s13.609673 31.005496 30.493854 31.005497z m198.517038 35.405616c20.874988 0 37.861497-17.293495 37.861497-38.475468v-61.090037c0-21.181973-16.986509-38.475467-37.861497-38.475467s-37.861497 17.293495-37.861497 38.475467v61.090037c0.102328 21.284301 16.986509 38.475467 37.861497 38.475468zM289.947437 414.736884h360.707505c17.60048 0 31.926451-14.530629 31.926451-32.438093s-14.325972-32.438093-31.926451-32.438093H289.947437c-17.60048 0-31.926451 14.530629-31.926452 32.438093s14.325972 32.438093 31.926452 32.438093z m360.707505 53.517738H289.947437c-17.60048 0-31.926451 14.530629-31.926452 32.438093s14.325972 32.438093 31.926452 32.438093h360.707505c17.60048 0 31.926451-14.530629 31.926451-32.438093s-14.325972-32.438093-31.926451-32.438093z m51.982812-263.70021h33.768362c8.288598 0 15.04227 6.856001 15.04227 15.246927v394.88518l60.066753-56.48526V219.903667c0-42.159288-33.666034-76.439292-75.109023-76.439292h-33.768362c-16.577196 0-30.084541 13.712002-30.084541 30.596183 0 16.781853 13.507345 30.493854 30.084541 30.493854zM204.196263 836.329769c-8.288598 0-15.04227-6.856001-15.042271-15.246927V219.903667c0-8.390926 6.753672-15.246927 15.042271-15.246927H229.266713c16.577196 0 30.084541-13.712002 30.084541-30.596182s-13.507345-30.596183-30.084541-30.596183h-25.07045c-41.44299 0-75.109024 34.280004-75.109024 76.439292v601.179175c0 42.159288 33.666034 76.439292 75.109024 76.439293h295.115019l65.080844-61.090037h-360.195863z" p-id="16270"></path></svg>