<?xml version="1.0" standalone="no"?><!DOCTYPE svg PUBLIC "-//W3C//DTD SVG 1.1//EN" "http://www.w3.org/Graphics/SVG/1.1/DTD/svg11.dtd"><svg class="icon" width="200px" height="200.00px" viewBox="0 0 1024 1024" version="1.1" xmlns="http://www.w3.org/2000/svg"><path d="M512 0C229.225688 0 0 229.225688 0 512s229.225688 512 512 512 512-229.225688 512-512S794.774312 0 512 0z m310.593761 822.558532a437.595596 437.595596 0 1 1 94.156331-139.625688 437.842202 437.842202 0 0 1-94.156331 139.625688z"  /><path d="M548.40367 498.29578v-277.137615a36.990826 36.990826 0 1 0-73.981652 0v292.40367a38.188624 38.188624 0 0 0 11.144221 26.492477l154.422018 154.445505a36.990826 36.990826 0 0 0 52.256881-52.303854z"  /></svg>