<svg class="icon" viewBox="0 0 1024 1024" xmlns="http://www.w3.org/2000/svg" width="200" height="200"><defs><style/></defs><path d="M965.964 486.747L526.97 47.84 89.258 485.532c-8.363 8.384-8.363 21.966 0 30.35 8.425 8.385 21.988 8.385 30.35 0l76.296-76.253V877.32c0 30.1 24.46 54.58 54.56 54.58h559.22c30.099 0 54.58-24.48 54.58-54.58V445.79l71.35 71.307c4.151 4.235 9.642 6.246 15.175 6.246 5.45 0 10.982-2.012 15.176-6.246 8.383-8.342 8.383-21.966-.001-30.351M821.338 877.32c0 6.415-5.24 11.655-11.656 11.655H250.464c-6.415 0-11.633-5.24-11.633-11.655V396.703l288.14-288.205 294.367 294.367v474.456z"/><path d="M406.409 455.834c0 66.822 54.328 121.193 121.193 121.193 66.863 0 121.192-54.371 121.192-121.193 0-66.82-54.33-121.15-121.192-121.15-66.865.002-121.193 54.33-121.193 121.15M527.6 377.61c43.134 0 78.263 35.13 78.263 78.224 0 43.18-35.129 78.265-78.263 78.265-43.137 0-78.267-35.087-78.267-78.265 0-43.094 35.13-78.224 78.267-78.224"/></svg>