<svg class="icon" viewBox="0 0 1024 1024" xmlns="http://www.w3.org/2000/svg" width="48" height="48"><defs><style/></defs><path d="M947.776 457.76c2.912 20.448 4.288 41.12 4.288 61.728C952.064 762.752 755.072 960 512 960 268.96 960 71.936 762.752 71.936 519.488S268.96 79.008 512 79.008a450.394 450.394 0 0 1 77.024 6.752l-11.392 60.896a378.368 378.368 0 0 0-443.808 372.832C133.728 728.448 303.04 897.952 512 898.048A378.56 378.56 0 0 0 798.688 766.56a378.496 378.496 0 0 0 87.424-303.104l61.664-5.696zM550.72 116a30.848 30.848 0 0 1 46.336-26.752A30.912 30.912 0 1 1 550.72 116zm335.168 343.264a30.88 30.88 0 0 1 46.4-26.752 30.912 30.912 0 1 1-46.304 26.752h-.096zm-210.912-226.08l97.248-97.472c12-12 21.92-8 21.92 9.024v78.624h115.808a31.04 31.04 0 0 1 0 62.048H794.144v79.904c0 17.056-9.792 21.152-21.92 8.96l-97.248-97.28a31.136 31.136 0 0 1 0-43.904v.096zm0 0" fill="#2c2c2c"/><path d="M660.128 317.792L550.272 504.64H636.8v41.312H536v56.864h100.8v41.856H536v82.816h-51.872v-82.816H379.584v-41.856h104.544v-56.864H379.584V504.64h89.184L360 317.792h58.496c50.816 92.8 81.696 151.648 92.64 176.512h1.056c3.68-10.24 13.856-30.88 30.432-61.92L604.8 317.792h55.328z" fill="#2c2c2c"/></svg>