<svg xmlns="http://www.w3.org/2000/svg" xmlns:xlink="http://www.w3.org/1999/xlink" width="1024" height="1024"><path d="M387.617 921.465H192.848c-42.379 0-76.848-34.471-76.848-76.846V179.368c0-42.379 34.469-76.848 76.848-76.848h548.89c42.375 0 76.871 34.469 76.871 76.848v189.496c0 7.062-5.73 12.797-12.793 12.797s-12.797-5.735-12.797-12.797V179.368c0-28.25-23.004-51.258-51.281-51.258h-548.89c-28.25 0-51.258 23.008-51.258 51.258v665.251c0 28.25 23.008 51.256 51.258 51.256h194.793c7.066 0 12.797 5.73 12.797 12.793s-5.731 12.797-12.821 12.797zm0 0"/><path d="M672.617 335.649H261.941c-7.062 0-12.793-5.734-12.793-12.797 0-7.062 5.731-12.793 12.793-12.793h410.676c7.063 0 12.793 5.731 12.793 12.793 0 7.063-5.73 12.797-12.793 12.797zM476.57 528.805H261.941c-7.062 0-12.793-5.734-12.793-12.797 0-7.062 5.731-12.792 12.793-12.792H476.57c7.063 0 12.793 5.731 12.793 12.792 0 7.062-5.73 12.797-12.793 12.797zm-42.019 193.129h-172.61c-7.062 0-12.793-5.729-12.793-12.793 0-7.061 5.731-12.797 12.793-12.797h172.61c7.063 0 12.793 5.736 12.793 12.797 0 7.064-5.707 12.793-12.793 12.793zm0 0"/><defs><path id="a" d="M515.828 545.045h369.164v369.676H515.828z"/></defs><clipPath id="b"><use xlink:href="#a" overflow="visible"/></clipPath><path clip-path="url(#b)" d="M515.769 889.076c0 14.264 10.908 25.172 25.171 25.172h318.848c14.264 0 25.172-10.908 25.172-25.172V712.871H515.77v176.205zm159.422-142.641h50.345c5.034 0 8.391 3.355 8.391 8.392 0 5.032-3.356 8.39-8.391 8.39h-50.345c-5.034 0-8.391-3.357-8.391-8.39.001-5.037 3.357-8.392 8.391-8.392zm184.596-117.47H540.939c-14.263 0-25.171 10.906-25.171 25.172v41.953h369.19v-41.953c.001-14.266-10.907-25.172-25.171-25.172zm-234.939-16.781c5.033 0 8.391-3.356 8.391-8.393v-28.526c0-7.554 6.712-13.427 14.263-13.427h105.725c7.552 0 14.264 5.873 14.264 13.427v28.526c0 5.036 3.357 8.393 8.391 8.393 5.035 0 8.391-3.356 8.391-8.393v-28.526c0-16.781-14.264-30.207-31.045-30.207H647.501c-16.78 0-31.044 13.426-31.044 30.207v28.526c0 5.036 3.356 8.393 8.391 8.393zm0 0"/></svg>