<svg class="icon" viewBox="0 0 1024 1024" xmlns="http://www.w3.org/2000/svg" width="48" height="48"><defs><style/></defs><path d="M886.81 711.31l-34.85-7a11.48 11.48 0 0 1-8.52-7.37q-1.73-4.77-3.87-9.33a11.48 11.48 0 0 1 .81-11.24l19.72-29.57a11.43 11.43 0 0 0-1.43-14.42l-19.07-19.05a11.43 11.43 0 0 0-14.42-1.43l-29.58 19.71a11.48 11.48 0 0 1-11.24.81q-4.56-2.13-9.33-3.87a11.48 11.48 0 0 1-7.37-8.52l-7-34.85a11.43 11.43 0 0 0-11.17-9.18h-27a11.43 11.43 0 0 0-11.21 9.19l-7 34.85a11.48 11.48 0 0 1-7.37 8.52q-4.77 1.73-9.33 3.87a11.48 11.48 0 0 1-11.24-.81l-29.52-19.72a11.43 11.43 0 0 0-14.42 1.43l-19.07 19.07a11.43 11.43 0 0 0-1.43 14.42l19.72 29.57a11.48 11.48 0 0 1 .81 11.24q-2.13 4.56-3.87 9.33a11.48 11.48 0 0 1-8.52 7.37l-34.85 7a11.43 11.43 0 0 0-9.19 11.18v27a11.43 11.43 0 0 0 9.19 11.21l34.85 7a11.48 11.48 0 0 1 8.52 7.37q1.73 4.77 3.87 9.33a11.48 11.48 0 0 1-.81 11.24l-19.72 29.52a11.43 11.43 0 0 0 1.43 14.42l19.07 19.07a11.43 11.43 0 0 0 14.42 1.43l29.57-19.72a11.48 11.48 0 0 1 11.24-.81q4.56 2.13 9.33 3.87a11.48 11.48 0 0 1 7.37 8.52l7 34.85a11.43 11.43 0 0 0 11.18 9.19h27a11.43 11.43 0 0 0 11.21-9.19l7-34.85a11.48 11.48 0 0 1 7.37-8.52q4.77-1.73 9.33-3.87a11.48 11.48 0 0 1 11.24.81l29.57 19.72a11.43 11.43 0 0 0 14.42-1.43l19.07-19.07a11.43 11.43 0 0 0 1.43-14.42l-19.76-29.58a11.48 11.48 0 0 1-.81-11.24q2.13-4.56 3.87-9.33a11.48 11.48 0 0 1 8.52-7.37l34.85-7a11.43 11.43 0 0 0 9.18-11.17v-27a11.43 11.43 0 0 0-9.19-11.18zm-102.32 73.18A68.57 68.57 0 1 1 804.57 736a68.12 68.12 0 0 1-20.08 48.49zm60.76-472.92a64 64 0 0 0 0-90.51L800 175.8a64 64 0 0 0-90.51 0l-45.25 45.25L800 356.82zm-226.27-45.26L189.06 696.24V832h135.76l429.93-429.92-135.77-135.77zm-493.918-3.876l135.764-135.765L487.1 352.943 351.336 488.708z"/></svg>