<svg xmlns="http://www.w3.org/2000/svg" xmlns:xlink="http://www.w3.org/1999/xlink" width="1024" height="1024"><path d="M387.617 921.465H192.848c-42.379 0-76.848-34.471-76.848-76.846V179.368c0-42.379 34.469-76.848 76.848-76.848h548.89c42.375 0 76.871 34.469 76.871 76.848v189.496c0 7.062-5.73 12.797-12.793 12.797s-12.797-5.735-12.797-12.797V179.368c0-28.25-23.004-51.258-51.281-51.258h-548.89c-28.25 0-51.258 23.008-51.258 51.258v665.251c0 28.25 23.008 51.256 51.258 51.256h194.793c7.066 0 12.797 5.73 12.797 12.793s-5.731 12.797-12.821 12.797zm0 0"/><path d="M672.617 335.649H261.941c-7.062 0-12.793-5.734-12.793-12.797 0-7.062 5.731-12.793 12.793-12.793h410.676c7.063 0 12.793 5.731 12.793 12.793 0 7.063-5.73 12.797-12.793 12.797zM476.57 528.805H261.941c-7.062 0-12.793-5.734-12.793-12.797 0-7.062 5.731-12.792 12.793-12.792H476.57c7.063 0 12.793 5.731 12.793 12.792 0 7.062-5.73 12.797-12.793 12.797zm-42.019 193.129h-172.61c-7.062 0-12.793-5.729-12.793-12.793 0-7.061 5.731-12.797 12.793-12.797h172.61c7.063 0 12.793 5.736 12.793 12.797 0 7.064-5.707 12.793-12.793 12.793zm0 0"/><defs><path id="a" d="M511.184 539.686H889.15V918.18H511.184z"/></defs><clipPath id="b"><use xlink:href="#a" overflow="visible"/></clipPath><path clip-path="url(#b)" d="M700.132 539.654c-104.238 0-189.011 84.772-189.011 189.01 0 104.236 84.773 189.009 189.011 189.009 104.236 0 189.009-84.772 189.009-189.009-.217-104.237-84.991-189.01-189.009-189.01zm-161.763 189.01c0-89.315 72.662-161.762 161.763-161.762 44.33 0 84.339 17.949 113.535 46.712L584.864 841.982c-28.762-29.195-46.495-69.203-46.495-113.318zm161.763 161.76c-35.467 0-68.124-11.461-94.938-30.924l225.989-225.558c19.248 26.599 30.709 59.255 30.709 94.722 0 89.315-72.663 161.76-161.76 161.76zm0 0"/><path d="M587.678 696.658h32.438v32.438c0 7.568 6.055 13.406 13.407 13.406 7.354 0 13.409-6.055 13.409-13.406v-32.438h32.438c3.679 0 7.138-1.515 9.516-3.894s3.893-5.839 3.893-9.516c0-7.353-6.055-13.408-13.408-13.408h-32.438v-32.438c0-3.677-1.514-7.139-3.894-9.516-2.378-2.38-5.838-3.894-9.516-3.894-7.353 0-13.407 6.055-13.407 13.409v32.438h-32.438c-7.569 0-13.41 6.056-13.41 13.408 0 7.356 6.054 13.411 13.41 13.411zm226.206 89.961l-91.695-.214c-7.568 0-13.406 6.056-13.406 13.407 0 7.354 6.054 13.408 13.406 13.408l91.695.217c3.675 0 7.136-1.513 9.514-3.895 2.38-2.377 3.893-5.839 3.893-9.514-.001-7.352-6.056-13.409-13.407-13.409zm0 0"/></svg>