<svg xmlns="http://www.w3.org/2000/svg" xmlns:xlink="http://www.w3.org/1999/xlink" width="1024" height="1024"><path d="M387.617 921.465H192.848c-42.379 0-76.848-34.471-76.848-76.846V179.368c0-42.379 34.469-76.848 76.848-76.848h548.89c42.375 0 76.871 34.469 76.871 76.848v189.496c0 7.062-5.73 12.797-12.793 12.797s-12.797-5.735-12.797-12.797V179.368c0-28.25-23.004-51.258-51.281-51.258h-548.89c-28.25 0-51.258 23.008-51.258 51.258v665.251c0 28.25 23.008 51.256 51.258 51.256h194.793c7.066 0 12.797 5.73 12.797 12.793s-5.731 12.797-12.821 12.797zm0 0"/><path d="M672.617 335.649H261.941c-7.062 0-12.793-5.734-12.793-12.797 0-7.062 5.731-12.793 12.793-12.793h410.676c7.063 0 12.793 5.731 12.793 12.793 0 7.063-5.73 12.797-12.793 12.797zM476.57 528.805H261.941c-7.062 0-12.793-5.734-12.793-12.797 0-7.062 5.731-12.792 12.793-12.792H476.57c7.063 0 12.793 5.731 12.793 12.792 0 7.062-5.73 12.797-12.793 12.797zm-42.019 193.129h-172.61c-7.062 0-12.793-5.729-12.793-12.793 0-7.061 5.731-12.797 12.793-12.797h172.61c7.063 0 12.793 5.736 12.793 12.797 0 7.064-5.707 12.793-12.793 12.793zm0 0"/><defs><path id="a" d="M494.79 531.575h411.243v380.716H494.79z"/></defs><clipPath id="b"><use xlink:href="#a" overflow="visible"/></clipPath><path clip-path="url(#b)" d="M613.478 796.359c-38.247 0-69.208-30.961-69.208-69.208 0-38.248 30.961-69.212 69.208-69.212 38.248 0 69.211 30.964 69.211 69.212-.001 38.247-30.963 69.208-69.211 69.208zm0-115.652c-25.498 0-46.443 20.945-46.443 46.444 0 25.498 20.945 46.442 46.443 46.442 25.499 0 46.444-20.944 46.444-46.442 0-25.499-20.945-46.444-46.444-46.444zm0 0"/><path clip-path="url(#b)" d="M505.394 911.758c-5.975 0-10.671-4.695-10.671-10.672 0-69.154 56.134-125.287 125.286-125.287a125.558 125.558 0 0 1 84.522 32.656c4.268 4.057 4.695 10.672.641 15.155-4.057 4.269-10.672 4.694-15.156.638a103.92 103.92 0 0 0-70.007-27.105c-57.413 0-103.944 46.529-103.944 103.943-.001 5.977-4.694 10.672-10.671 10.672zM779.02 792.234c-35.856 0-64.883-29.026-64.883-64.887 0-35.856 29.026-64.883 64.883-64.883s64.884 29.026 64.884 64.883c-.001 35.861-29.027 64.887-64.884 64.887zm0-108.427c-23.904 0-43.541 19.637-43.541 43.541 0 23.908 19.637 43.541 43.541 43.541 23.905 0 43.541-19.633 43.541-43.541 0-23.905-19.636-43.541-43.541-43.541zm0 0"/><path d="M894.915 911.758c-5.977 0-10.671-4.695-10.671-10.672 0-57.414-46.528-103.943-103.943-103.943s-103.943 46.529-103.943 103.943c0 5.977-4.696 10.672-10.672 10.672-5.977 0-10.673-4.695-10.673-10.672 0-69.154 56.134-125.287 125.288-125.287 69.152 0 125.286 56.133 125.286 125.287 0 5.977-4.694 10.672-10.672 10.672zM700.047 661.611c-35.856 0-64.883-29.028-64.883-64.886 0-35.856 29.026-64.884 64.883-64.884 35.859 0 64.887 29.027 64.887 64.884 0 35.858-29.028 64.886-64.887 64.886zm0-108.426c-23.904 0-43.541 19.637-43.541 43.541 0 23.905 19.637 43.54 43.541 43.54 23.905 0 43.541-19.635 43.541-43.54 0-23.905-19.636-43.541-43.541-43.541zm0 0"/><path d="M766.015 680.707c-2.05 0-4.098-.456-5.919-1.822-17.53-10.927-37.794-16.62-58.512-16.62-20.717 0-40.751 5.693-58.509 16.62-5.237 3.416-12.293 1.594-15.708-3.643-3.416-5.237-1.594-12.293 3.641-15.709 21.174-13.205 45.534-20.262 70.349-20.262 24.816 0 49.178 7.057 70.349 20.262 5.237 3.416 7.059 10.246 3.644 15.709-1.824 3.643-5.464 5.465-9.335 5.465zm0 0"/></svg>