<svg class="icon" viewBox="0 0 1264 1024" xmlns="http://www.w3.org/2000/svg" width="246.875" height="200"><defs><style/></defs><path d="M1066.165 174.682H1024l-21.082-102.4c-3.012-24.094-18.07-45.176-39.153-60.235C945.695 0 924.612-3.012 903.529 3.012L328.282 165.647c-18.07 3.012-36.14 15.059-45.176 33.13C265.036 213.834 256 237.928 256 262.023v316.235c-81.318 39.153-135.53 120.47-135.53 210.823C123.483 918.588 231.907 1024 361.413 1024c93.364 0 177.694-54.212 219.859-138.541h481.882c21.082 0 45.176-9.035 60.235-27.106 15.06-15.059 24.094-39.153 21.083-60.235V262.024c3.011-45.177-33.13-84.33-78.306-87.342zM921.6 63.247h9.035c6.024 3.012 9.036 12.047 12.047 18.07l21.083 93.365H518.024L921.6 63.247zM530.07 852.33c-27.105 66.26-93.364 111.436-168.658 111.436-96.377 0-174.683-78.306-174.683-174.683S265.035 614.4 361.412 614.4c96.376 0 177.694 78.306 180.706 174.682 0 21.083-3.012 42.165-12.047 63.247zm536.095-27.105H602.353v-36.142c-3.012-129.506-111.435-234.917-240.941-234.917-15.06 0-30.118 3.011-42.165 3.011V256c0-15.059 9.035-27.106 18.07-27.106h725.836c9.035 0 18.07 12.047 18.07 27.106v129.506H861.366c-9.036 0-15.06 3.012-21.083 9.035-6.023 6.024-9.035 12.047-9.035 21.083v225.882c0 18.07 12.047 30.118 30.118 30.118h222.87v123.482c0 21.082-9.035 30.118-18.07 30.118zm18.07-210.824h-189.74V448.753h189.74V614.4z"/><path d="M954.73 539.106c0 15.059 12.046 27.106 27.105 27.106s27.106-12.047 27.106-27.106S999.906 512 981.835 512s-27.106 12.047-27.106 27.106zm-521.036 171.67c-6.023-6.023-15.059-9.035-24.094-9.035-9.035 0-18.07 3.012-24.094 9.035l-39.153 39.153-39.153-39.153c-9.035-9.035-21.082-12.047-30.118-9.035-12.047 3.012-21.082 12.047-24.094 24.094-3.012 12.047 0 24.094 9.036 30.118l39.152 39.153-39.152 39.153c-12.048 12.047-12.048 33.13 0 45.176s33.129 12.047 45.176 0l39.153-42.164 39.153 39.153c9.035 9.035 21.082 12.047 30.118 9.035 12.047-3.012 21.082-12.047 24.094-24.094 3.011-12.047 0-24.094-9.036-30.118l-39.153-39.153 39.153-39.153c6.024-6.023 9.036-15.059 9.036-24.094 3.011-3.012 0-12.047-6.024-18.07z"/></svg>