<svg class="icon" viewBox="0 0 1024 1024" xmlns="http://www.w3.org/2000/svg" width="48" height="48"><defs><style/></defs><path d="M106.667 869.333h810.666v53.334H106.667zm64-768v768h458.666v-768H170.667zm405.333 768H224V154.667h352v714.666z"/><path d="M266.667 266.667H384V320H266.667zm149.333 0h117.333V320H416zM266.667 453.333H384v53.334H266.667zm149.333 0h117.333v53.334H416zM266.667 640H384v53.333H266.667zM416 640h117.333v53.333H416zm277.333-186.667h53.334v133.334h-53.334z"/><path d="M609.776 768a153.867 153.867 0 0 1 19.557-75.27V384H800v233.488a153.888 153.888 0 0 1 53.333 23.973V330.667H576v544h53.333v-31.398A153.867 153.867 0 0 1 609.776 768z"/><path d="M869.877 752.885c10.006-2.512 18.251-4.933 24.747-7.221.16-6.683-.064-13.499-1.045-20.32-.038-.581-.123-1.168-.187-1.76-6.752-1.605-15.12-3.099-25.333-4.49a101.973 101.973 0 0 0-5.451-16.763c7.381-7.158 13.285-13.312 17.739-18.587a127.184 127.184 0 0 0-12.102-18.48c-6.629 1.99-14.714 4.89-24.213 8.79a95.045 95.045 0 0 0-13.11-11.771c2.817-9.878 4.822-18.208 6.102-25.019a130.523 130.523 0 0 0-19.685-10c-.72.8-1.616 1.824-2.39 2.656a306.576 306.576 0 0 0-14.218 17.04c-1.798-.533-3.718-.715-5.547-1.152-3.872-.965-7.67-1.984-11.648-2.48-2.539-9.941-4.917-18.176-7.237-24.65a121.653 121.653 0 0 0-20.267.986 27.701 27.701 0 0 0-1.861.256 281.467 281.467 0 0 0-4.454 25.328c-5.392 1.216-10.56 3.003-15.509 5.077-.437.166-.843.187-1.216.374-7.152-7.403-13.317-13.318-18.581-17.744-3.931 2.048-7.376 4.741-11.03 7.189-2.442 1.69-5.141 3.024-7.461 4.89 1.979 6.625 4.901 14.651 8.795 24.187a102.384 102.384 0 0 0-11.232 12.544h-2.598c-8.901-2.474-16.64-4.357-22.885-5.498-1.093 1.733-1.808 3.712-2.795 5.498-2.597 4.651-5.232 9.296-7.221 14.224a217.14 217.14 0 0 0 8.699 7.675 337.397 337.397 0 0 0 11.002 8.832c-1.616 5.61-2.912 11.355-3.557 17.28-9.984 2.475-18.208 4.923-24.725 7.21-.24 6.667.106 13.446.976 20.289.08.592.176 1.216.266 1.808 6.688 1.6 15.115 3.061 25.339 4.474.688 2.928 1.861 5.611 2.757 8.432.896 2.763 1.552 5.648 2.667 8.31a430.625 430.625 0 0 0-11.312 11.482c-2.373 2.512-4.619 4.928-6.47 7.088a123.125 123.125 0 0 0 12.113 18.587c6.56-1.984 14.714-4.96 24.229-8.859a95.77 95.77 0 0 0 13.088 11.766c-2.843 9.856-4.88 18.213-6.09 25.002 6.186 3.894 12.82 7.238 19.685 9.963 4.773-4.955 10.224-11.515 16.544-19.67a97.6 97.6 0 0 0 17.242 3.627c2.523 9.974 4.934 18.182 7.222 24.694a126.773 126.773 0 0 0 20.33-1.003c.587-.064 1.168-.117 1.798-.208 1.568-6.73 3.066-15.152 4.426-25.37a97.99 97.99 0 0 0 16.726-5.451c7.152 7.408 13.37 13.317 18.613 17.776a119.84 119.84 0 0 0 18.49-12.102c-1.925-6.608-4.837-14.682-8.8-24.234a101.643 101.643 0 0 0 11.745-13.062c9.888 2.806 18.234 4.832 25.024 6.102a121.333 121.333 0 0 0 10.005-19.76c-5.056-4.704-11.6-10.23-19.733-16.539a92.115 92.115 0 0 0 3.594-17.243zm-88.666 58.688c-22.427 2.944-43.579-5.141-58.603-19.824a70.059 70.059 0 0 1-14.181-19.76c-3.222-6.624-5.696-13.706-6.726-21.45-2.261-17.04 2.075-33.334 10.598-46.87a70.683 70.683 0 0 1 29.04-25.914c6.672-3.206 13.722-5.696 21.44-6.688 11.37-1.52 22.336.064 32.453 3.589 7.088 2.507 13.819 5.819 19.733 10.31a70.725 70.725 0 0 1 27.344 47.14c5.078 38.795-22.325 74.39-61.098 79.467z"/></svg>