<svg xmlns="http://www.w3.org/2000/svg" width="800" height="500"><path d="M168.615 378.671H629.67c14.146 0 25.615 11.467 25.615 25.613s-11.469 25.615-25.615 25.615H168.615c-14.148 0-25.615-11.469-25.615-25.615s11.467-25.613 25.615-25.613zm230.527-153.686H629.67c14.146 0 25.615 11.467 25.615 25.613s-11.469 25.615-25.615 25.615H399.142c-14.146 0-25.613-11.469-25.613-25.615s11.466-25.613 25.613-25.613zM168.615 71.3H629.67c14.146 0 25.615 11.467 25.615 25.613s-11.469 25.615-25.615 25.615H168.615c-14.148 0-25.615-11.469-25.615-25.615S154.467 71.3 168.615 71.3zm66.182 232.899l-91.797-53 91.797-53z"/></svg>