<svg xmlns="http://www.w3.org/2000/svg" xmlns:xlink="http://www.w3.org/1999/xlink" width="1024" height="1024"><path d="M387.617 921.465H192.848c-42.379 0-76.848-34.471-76.848-76.846V179.368c0-42.379 34.469-76.848 76.848-76.848h548.89c42.375 0 76.871 34.469 76.871 76.848v189.496c0 7.062-5.73 12.797-12.793 12.797s-12.797-5.735-12.797-12.797V179.368c0-28.25-23.004-51.258-51.281-51.258h-548.89c-28.25 0-51.258 23.008-51.258 51.258v665.251c0 28.25 23.008 51.256 51.258 51.256h194.793c7.066 0 12.797 5.73 12.797 12.793s-5.731 12.797-12.821 12.797zm0 0"/><path d="M672.617 335.649H261.941c-7.062 0-12.793-5.734-12.793-12.797 0-7.062 5.731-12.793 12.793-12.793h410.676c7.063 0 12.793 5.731 12.793 12.793 0 7.063-5.73 12.797-12.793 12.797zM476.57 528.805H261.941c-7.062 0-12.793-5.734-12.793-12.797 0-7.062 5.731-12.792 12.793-12.792H476.57c7.063 0 12.793 5.731 12.793 12.792 0 7.062-5.73 12.797-12.793 12.797zm-42.019 193.129h-172.61c-7.062 0-12.793-5.729-12.793-12.793 0-7.061 5.731-12.797 12.793-12.797h172.61c7.063 0 12.793 5.736 12.793 12.797 0 7.064-5.707 12.793-12.793 12.793zm0 0"/><defs><path id="a" d="M487.781 498.471h370.828v421.337H487.781z"/></defs><clipPath id="b"><use xlink:href="#a" overflow="visible"/></clipPath><path clip-path="url(#b)" d="M858.268 903.992c-5.967-40.969-25.869-78.669-56.953-107.363a187.286 187.286 0 0 0-59.684-37.161c12.356-6.443 23.793-14.799 33.929-24.936 26.099-26.099 40.47-60.797 40.47-97.705 0-36.907-14.371-71.605-40.47-97.704-26.097-26.098-60.798-40.47-97.704-40.47-36.907 0-71.607 14.372-97.704 40.47-26.099 26.099-40.473 60.797-40.473 97.706 0 36.906 14.374 71.604 40.473 97.703 9.073 9.073 19.188 16.726 30.073 22.855a187.311 187.311 0 0 0-65.356 39.25c-31.083 28.697-50.987 66.404-56.95 107.38-1.12 7.7 4.708 14.702 12.627 15.196l.875.055c7.12.445 13.347-4.574 14.36-11.494 5.095-34.742 21.995-66.717 48.368-91.067 27.876-25.739 63.834-40.576 101.91-42.208 3.902.329 7.836.504 11.797.504 2.484 0 4.959-.07 7.422-.2 36.159 2.693 70.142 17.327 96.759 41.898 26.374 24.346 43.275 56.313 48.372 91.052 1.016 6.923 7.243 11.94 14.363 11.495l.874-.057c7.917-.495 13.746-7.496 12.622-15.199zM567.801 636.827c0-29.396 11.449-57.032 32.234-77.817 20.788-20.788 48.423-32.234 77.82-32.234 29.396 0 57.032 11.446 77.819 32.234 20.786 20.785 32.232 48.422 32.232 77.817 0 29.396-11.446 57.034-32.232 77.819-20.519 20.52-47.714 31.931-76.686 32.22a194.941 194.941 0 0 0-5.879-.091c-27.614-1.164-53.411-12.466-73.075-32.129-20.784-20.785-32.233-48.422-32.233-77.819zm0 0"/></svg>