<svg xmlns="http://www.w3.org/2000/svg" width="800" height="500"><path d="M629.67 122.528H168.615c-14.146 0-25.615-11.467-25.615-25.613 0-14.146 11.469-25.615 25.615-25.615H629.67c14.148 0 25.615 11.469 25.615 25.615 0 14.146-11.467 25.613-25.615 25.613zM399.144 276.214H168.615c-14.146 0-25.615-11.467-25.615-25.613s11.469-25.615 25.615-25.615h230.528c14.146 0 25.613 11.469 25.613 25.615s-11.466 25.613-25.612 25.613zM629.67 429.899H168.615c-14.146 0-25.615-11.467-25.615-25.613s11.469-25.615 25.615-25.615H629.67c14.148 0 25.615 11.469 25.615 25.615s-11.467 25.613-25.615 25.613zM563.488 197l91.797 53-91.797 53z"/></svg>