<svg class="icon" viewBox="0 0 1024 1024" xmlns="http://www.w3.org/2000/svg" width="200" height="200"><defs><style/></defs><path d="M939.648 728.305h-.276c-.916-8.978-8.061-16.124-17.04-17.04h-10.534v-.09c-11.177 0-20.98-6.505-25.65-15.94-1.099-2.291-2.017-4.766-2.475-7.421-2.106-5.864-4.488-11.634-7.145-17.132-1.374-2.016-2.382-4.123-3.205-6.413-1.1-3.023-1.648-6.23-1.648-9.527 0-7.88 3.204-15.025 8.335-20.247l5.864-5.862c.092-.093.183-.093.276-.183.092-.092.092-.184.183-.277 6.78-6.963 7.144-17.864 1.098-25.283l.094-.092a280.155 280.155 0 0 0-14.018-15.39 235.29 235.29 0 0 0-15.756-14.384l-.091.092c-6.689-5.496-16.309-5.68-23.273-.642l-4.212 4.215-3.94 3.848-.184-.183c-8.338 8.337-20.52 10.443-30.872 6.322-1.374-.55-2.748-1.19-4.03-2.017-6.597-3.205-13.374-5.953-20.337-8.337-1.284-.275-2.473-.731-3.665-1.19-3.298-1.283-6.505-3.389-9.253-6.137-4.67-4.671-7.33-10.534-8.153-16.673a31.056 31.056 0 0 1 0-7.146v-4.947c0-9.345-6.778-17.222-15.664-18.78l-3.302-.274c-6.412-.46-12.73-.733-19.146-.733a219.21 219.21 0 0 0-19.053.825c-1.097.09-2.198.181-3.39.275-8.885 1.557-15.667 9.343-15.667 18.781v8.518c0 12.278-7.695 22.72-18.595 26.843-.642.275-1.373.549-2.106.731-7.605 2.566-15.026 5.68-22.17 9.161h-.091c-.551.275-1.1.55-1.742.825a28.643 28.643 0 0 1-11.91 2.565 28.452 28.452 0 0 1-20.155-8.338h-.092l-6.045-6.045c-6.597-6.596-16.856-7.33-24.278-2.198-.823.733-1.741 1.374-2.565 2.107l-.09.091a234.4 234.4 0 0 0-26.934 26.933c-.733.825-1.466 1.741-2.197 2.566-5.224 7.42-4.487 17.68 2.197 24.368l6.047 6.045c8.61 8.703 10.625 21.529 5.864 32.064-.277.642-.642 1.284-1.009 1.924-3.482 7.054-6.594 14.475-9.16 22.079-.182.825-.55 1.556-.824 2.382-1.375 3.572-3.574 7.053-6.505 9.892-5.59 5.59-12.918 8.339-20.247 8.339v.09h-8.52c-9.343 0-17.222 6.78-18.78 15.667a596.377 596.377 0 0 0-.276 3.39 263.628 263.628 0 0 0-.731 19.053v.366c0 6.32.275 12.55.731 18.78.093 1.098.184 2.199.276 3.298 1.558 8.888 9.345 15.667 18.69 15.667h8.518c12.186 0 22.537 7.604 26.661 18.32.274.735.549 1.467.731 2.11.094 0 .094.09.094.09 2.564 7.603 5.679 15.025 9.16 22.168.089 0 .089.093.089.093.276.551.552 1.099.826 1.742a28.93 28.93 0 0 1 2.565 11.906c0 7.88-3.206 15.024-8.337 20.249l-5.771 5.772c-.092.09-.183.09-.183.181-.092.092-.183.182-.183.275-6.322 6.505-7.053 16.583-2.107 23.91a1571.647 1571.647 0 0 0 2.474 3.024c4.03 4.857 8.337 9.436 12.826 13.925 4.487 4.49 9.07 8.795 13.924 12.823 1.007.828 1.925 1.651 2.932 2.476 6.595 4.488 15.39 4.305 21.897-.458l4.213-4.213 3.938-3.94.183.184c8.706-8.612 21.528-10.626 32.065-5.773a8.26 8.26 0 0 1 1.557.731s.092 0 .092.092a171.56 171.56 0 0 0 22.353 9.254c.64.182 1.28.458 1.923.64 3.756 1.374 7.238 3.573 10.26 6.595 5.588 5.588 8.338 12.917 8.338 20.248h.09v8.337c0 9.801 7.513 17.954 17.132 18.96v.094c6.962.64 13.925 1.007 20.979 1.007s14.108-.275 20.978-1.007v-.093c9.619-1.007 17.133-9.16 17.133-18.961v-8.52c0-11.451 6.78-21.346 16.489-25.926 2.016-.916 4.03-1.649 6.228-2.106a187.628 187.628 0 0 0 18.323-7.604 30.825 30.825 0 0 1 5.497-2.748 28.006 28.006 0 0 1 9.987-1.833c7.236 0 13.832 2.748 18.962 7.237.916.732 1.649 1.559 2.475 2.475l4.855 4.852c6.686 6.69 17.223 7.331 24.643 2.018 0 0 .091 0 .091-.092.64-.55 1.19-1.008 1.833-1.557a197.632 197.632 0 0 0 14.384-13.284 222.025 222.025 0 0 0 13.283-14.475c.55-.64 1.099-1.281 1.649-2.015 5.22-7.144 4.764-17.13-1.284-23.909l-1.375-1.374-5.313-5.314c-8.52-8.52-10.535-21.07-6.047-31.515a27.468 27.468 0 0 1 1.468-2.838c3.389-6.872 6.32-14.018 8.885-21.346.276-1.009.55-1.923 1.007-2.841 1.375-3.573 3.574-6.87 6.414-9.802 5.587-5.589 12.917-8.337 20.245-8.337h8.246v-.092c10.169 0 18.504-7.97 19.055-18.045h.275c.55-6.599.824-13.285.824-19.971a270.366 270.366 0 0 0-1.103-20.98zm-110.94 21.16c0 13.375-2.198 26.202-6.323 38.11a112.257 112.257 0 0 1-5.497 13.284c-5.679 11.726-13.375 22.355-22.443 31.514-9.07 9.16-19.698 16.764-31.423 22.535-4.305 2.108-8.795 4.03-13.374 5.588a116.74 116.74 0 0 1-38.111 6.413h-.366a116.888 116.888 0 0 1-37.744-6.23c-4.764-1.557-9.345-3.572-13.833-5.679-11.634-5.678-22.17-13.284-31.24-22.353-9.16-9.07-16.763-19.696-22.535-31.33-2.197-4.397-4.122-8.978-5.678-13.742-4.123-11.91-6.322-24.552-6.322-37.835 0-13.193 2.289-26.567 6.322-38.384 1.648-4.672 3.572-9.255 5.678-13.742a116.213 116.213 0 0 1 22.536-31.331 116.205 116.205 0 0 1 31.514-22.444c4.397-2.108 8.887-4.03 13.65-5.588a117.347 117.347 0 0 1 37.745-6.23h.365a116.326 116.326 0 0 1 38.11 6.413c4.581 1.556 9.07 3.48 13.376 5.588 11.727 5.77 22.262 13.375 31.421 22.535 9.071 9.16 16.583 19.697 22.353 31.239 2.108 4.305 4.032 8.887 5.589 13.466 4.123 11.911 6.321 24.736 6.321 38.02v.182h-.092v.001z"/><path d="M462.103.4C313.788 7.988 190.524 125.8 177.011 273.685c-9.09 99.405 29.803 192.454 100.042 254.693C150.109 602.052 79.95 744.856 79.95 898.908v90.706h83.791a363.57 363.57 0 0 1-2.035-7.603c-.162-.633-.322-1.268-.482-1.901a356.863 356.863 0 0 1-1.783-7.411l-.065-.271a349.736 349.736 0 0 1-2.009-9.476 351.55 351.55 0 0 1-1.483-7.878c-.004-.022-.009-.043-.011-.064a357.645 357.645 0 0 1-1.367-8.41l-.145-.989a357.473 357.473 0 0 1-2.11-17.106c-.019-.184-.035-.37-.053-.554a352.562 352.562 0 0 1-.739-8.667l-.003-.035a360.548 360.548 0 0 1-.953-26.115c0-164.234 111.214-302.454 262.43-343.56v-28.857c-93.918-27.489-162.52-114.25-162.52-217.056 0-124.906 101.256-226.162 226.163-226.162 124.906 0 226.161 101.256 226.161 226.162 0 53.832-18.819 103.263-50.223 142.096l58.788 48.396c44.366-53.909 68.802-122.071 68.802-191.98C780.085 130.346 635.839-8.488 462.103.4z"/><path d="M152.2 927.951c.017.184.033.37.052.554a357.473 357.473 0 0 0 2.11 17.106c.05.329.096.66.145.989a361.962 361.962 0 0 0 1.367 8.41c.002.021.007.042.01.064.463 2.636.963 5.26 1.484 7.878a357.924 357.924 0 0 0 2.01 9.476l.064.27a356.863 356.863 0 0 0 1.783 7.412l.482 1.901a361.577 361.577 0 0 0 2.035 7.603h362.37v-70.366H151.457l.003.035c.211 2.9.46 5.788.74 8.668z"/><path d="M154.509 946.6c-.05-.329-.096-.66-.146-.989l.146.989zm-2.257-18.095c-.019-.184-.035-.37-.053-.554l.053.554zm9.455 53.505c-.162-.634-.322-1.268-.482-1.902.16.634.32 1.268.482 1.902zm-2.265-9.312l-.065-.272.065.272zm-1.766-8.212zm-6.216-45.203l-.003-.035.003.035zm4.425 35.79c-.004-.021-.009-.042-.011-.063.002.021.007.042.01.064z"/></svg>