<svg class="icon" viewBox="0 0 1024 1024" xmlns="http://www.w3.org/2000/svg" width="500" height="500"><defs><style/></defs><path d="M930.407 114.612c-45.815-45.552-136.669-29.06-182.48 16.49-.468.469-158.484 176.289-158.484 176.289l-202.21-49.95-66.442-16.41L100.3 186.575c-8.938-1.39-18.394 1.259-25.283 8.109-11.452 11.388-11.452 29.849 0 41.237.686.68 342.283 263.137 342.283 263.137L284.8 646.58l-157.297 34.488-.009.065c-7.017.342-13.94 3.077-19.295 8.407-11.46 11.386-11.46 29.846 0 41.236 2.558 2.548 5.511 4.435 8.626 5.844l-.011.054 133.365 53.747 53.049 129.571.057-.01c1.374 4.314 3.65 8.407 7.091 11.827 11.454 11.389 30.02 11.389 41.473 0 5.358-5.328 8.11-12.212 8.454-19.188l34.683-156.129.412.056 148.188-131.59S808.422 967.34 813.24 969.955c11.451 11.388 30.02 11.388 41.474 0 7.946-7.904 10.246-19.177 7.163-29.165l-57.826-223.56-16.997-65.574-51.184-197.443 176.555-156.779 1.391-1.383c45.808-45.552 62.398-135.888 16.59-181.439zm-71.155 167.015l-99.83-83.19c7.466-32.234 36.285-56.267 70.722-56.267 40.11 0 72.628 32.585 72.628 72.775 0 29.82-17.903 55.437-43.52 66.682z"/></svg>