<svg xmlns="http://www.w3.org/2000/svg" width="1024" height="1024"><path d="M387.617 921.465H192.848c-42.379 0-76.848-34.471-76.848-76.846V179.368c0-42.379 34.469-76.848 76.848-76.848h548.89c42.375 0 76.871 34.469 76.871 76.848v189.496c0 7.062-5.73 12.797-12.793 12.797s-12.797-5.735-12.797-12.797V179.368c0-28.25-23.004-51.258-51.281-51.258h-548.89c-28.25 0-51.258 23.008-51.258 51.258v665.251c0 28.25 23.008 51.256 51.258 51.256h194.793c7.066 0 12.797 5.73 12.797 12.793s-5.731 12.797-12.821 12.797zm0 0"/><path d="M672.617 335.649H261.941c-7.062 0-12.793-5.734-12.793-12.797 0-7.062 5.731-12.793 12.793-12.793h410.676c7.063 0 12.793 5.731 12.793 12.793 0 7.063-5.73 12.797-12.793 12.797zM476.57 528.805H261.941c-7.062 0-12.793-5.734-12.793-12.797 0-7.062 5.731-12.792 12.793-12.792H476.57c7.063 0 12.793 5.731 12.793 12.792 0 7.062-5.73 12.797-12.793 12.797zm-42.019 193.129h-172.61c-7.062 0-12.793-5.729-12.793-12.793 0-7.061 5.731-12.797 12.793-12.797h172.61c7.063 0 12.793 5.736 12.793 12.797 0 7.064-5.707 12.793-12.793 12.793zm0 0"/><g stroke="#000" stroke-miterlimit="10"><path d="M864.644 897.729h-51.665V669.285c0-4.071-3.308-7.371-7.38-7.371h-44.285c-4.075 0-7.383 3.3-7.383 7.371v228.443H724.41V750.347c0-4.071-3.307-7.372-7.379-7.372h-44.28a7.375 7.375 0 0 0-7.379 7.372v147.382h-36.904v-95.8c0-4.072-3.304-7.372-7.382-7.372h-44.28a7.375 7.375 0 0 0-7.379 7.372v95.8h-44.283V558.746a7.38 7.38 0 1 0-14.761 0v338.982a14.752 14.752 0 0 0 14.761 14.737h339.501c4.071 0 7.379-3.3 7.379-7.372-.002-4.066-3.309-7.364-7.38-7.364zm-95.95-221.075h29.52v221.074h-29.52V676.654zm-88.564 81.061h29.524v140.014H680.13V757.715zm-95.943 51.581h29.522v88.433h-29.522v-88.433zm0 0"/><path d="M598.95 757.715c16.303 0 29.52-13.197 29.52-29.479a28.483 28.483 0 0 0-1.476-8.104l47.974-29.475c10.076 8.631 24.671 9.489 35.691 2.098a29.458 29.458 0 0 0 11.546-33.79l42.063-48.637a29.535 29.535 0 0 0 19.187 7.372c16.307 0 29.524-13.196 29.524-29.475 0-16.283-13.218-29.479-29.524-29.479-16.303 0-29.523 13.196-29.523 29.479a29.517 29.517 0 0 0 1.476 9.581l-41.326 49.368a29.55 29.55 0 0 0-19.19-7.364c-16.302 0-29.519 13.193-29.519 29.475a29.409 29.409 0 0 0 1.472 9.577l-47.229 28.739c-9.426-9.589-24.132-11.608-35.792-4.916-11.656 6.681-17.314 20.4-13.758 33.354 3.567 12.962 15.443 21.872 28.884 21.676zm184.504-184.229c8.148 0 14.76 6.599 14.76 14.739s-6.605 14.739-14.76 14.739c-8.153 0-14.76-6.599-14.76-14.739s6.611-14.739 14.76-14.739zm-88.564 81.061c8.146-.005 14.756 6.593 14.765 14.738 0 8.143-6.611 14.736-14.765 14.736-8.152 0-14.76-6.599-14.76-14.736a14.75 14.75 0 0 1 14.76-14.738zM598.95 713.5a14.765 14.765 0 0 1 12.546 6.632v.735h.741a14.765 14.765 0 0 1 1.472 6.632 14.753 14.753 0 0 1-4.325 10.428 14.757 14.757 0 0 1-10.434 4.313c-8.154 0-14.764-6.6-14.764-14.74s6.606-14.739 14.764-14.739v.739zm0 0"/></g></svg>