<svg class="icon" viewBox="0 0 1024 1024" xmlns="http://www.w3.org/2000/svg" width="500" height="500"><defs><style/></defs><path d="M798.592 326.464a17.888 17.888 0 0 0-3.392-3.744L546.24 107.808A44.096 44.096 0 0 0 515.968 96c-11.264 0-21.888 4.128-29.184 10.976L228.992 322.528a22.784 22.784 0 0 0-4.032 4.416 31.616 31.616 0 0 0-6.784 19.488c0 17.504 14.624 31.776 32.64 31.776h62.56V630.08c0 23.104 18.848 41.92 41.952 41.92h313.344c23.232 0 41.952-18.848 41.952-41.952v-251.84h62.656c17.984 0 32.576-14.272 32.576-31.776a31.52 31.52 0 0 0-7.264-19.968zM533.024 466.336v31.488h62.816a20.992 20.992 0 0 1 0 41.952h-62.848v41.952a20.96 20.96 0 1 1-41.952 0v-41.952h-62.976a20.992 20.992 0 0 1 0-41.952h62.976v-31.488h-62.976a20.96 20.96 0 0 1 0-41.984h63.008v-1.792l-62.08-62.048a20.864 20.864 0 0 1 0-29.664 20.864 20.864 0 0 1 29.664 0L512 384.256l53.408-53.376a20.96 20.96 0 1 1 29.728 29.664l-62.08 62.112v1.76h62.976c11.552 0 20.896 9.376 20.896 20.96a20.928 20.928 0 0 1-20.896 21.024v-.032h-63.008zM128 864h768v64H128zm0-117.696h768v64H128z"/></svg>