<svg class="icon" viewBox="0 0 1024 1024" xmlns="http://www.w3.org/2000/svg" width="200" height="200"><defs><style/></defs><path d="M766.862 106.951c-10.24-11.378-21.618-20.48-35.27-27.307-11.379-4.55-26.17-7.964-43.236-9.102-17.067-1.138-36.41 4.551-59.165 15.93-14.791 7.964-34.133 18.204-60.302 31.857-26.169 13.653-51.2 27.307-78.507 40.96-29.582 15.929-62.578 32.995-95.573 50.062h426.667l-54.614-102.4zM739.556 681.53c-23.894 0-40.96-4.551-53.476-13.653-12.516-9.103-21.618-19.343-26.169-30.72-6.827-13.654-10.24-28.445-11.378-45.512 0-25.03 9.103-46.648 26.17-63.715 18.204-17.067 39.821-26.169 64.853-26.169H967.11V367.502c0-25.03-9.102-46.649-26.169-63.715-18.204-17.067-39.822-26.17-64.853-26.17H147.91c-25.031 0-46.649 9.103-64.853 26.17-18.205 17.066-26.17 38.684-26.17 63.715v493.796c0 12.515 2.276 23.893 7.965 35.27 4.551 11.379 11.378 20.48 20.48 28.445s18.205 14.791 29.583 19.343c11.377 4.55 23.893 6.826 36.408 6.826h728.178c12.516 0 23.894-2.275 35.271-6.826 10.24-4.552 20.48-11.378 28.445-19.343s13.653-18.204 18.204-28.444c4.551-11.378 6.827-22.756 6.827-35.271v-179.77H739.556zm-416.427 48.924c-77.369 0-139.947-62.577-139.947-138.809 0-76.23 62.578-138.808 139.947-138.808s139.947 62.577 139.947 138.808c0 76.232-62.578 138.81-139.947 138.81zm392.533-170.666c-9.102 9.102-13.653 20.48-13.653 32.995 0 13.654 4.551 23.894 13.653 34.134 9.102 9.102 20.48 13.653 32.996 13.653 13.653 0 23.893-4.551 32.995-13.653 9.103-9.103 13.654-20.48 13.654-34.134s-4.551-23.893-13.654-32.995c-9.102-9.103-20.48-13.654-32.995-13.654-12.516 0-23.894 4.551-32.996 13.654zM328.818 577.99c-20.48-9.102-31.858-18.204-31.858-28.444 1.138-15.93 9.102-23.894 23.893-25.031 17.067 0 26.17 10.24 26.17 30.72h26.168c-1.138-29.583-14.791-46.65-38.684-50.063V485.83h-18.205v19.342c-27.306 2.276-40.96 18.205-42.098 46.65 0 20.48 14.792 36.408 44.374 46.648 22.755 9.102 34.133 20.48 34.133 32.996-1.138 17.066-10.24 26.169-29.582 27.306-18.205-1.137-27.307-10.24-27.307-29.582h-25.03c1.137 31.858 14.79 47.787 43.235 50.062v19.343h19.342v-20.48c27.307-2.276 42.098-18.205 44.373-47.787-2.275-21.618-18.204-39.822-48.924-52.338z"/></svg>