<svg xmlns="http://www.w3.org/2000/svg" xmlns:xlink="http://www.w3.org/1999/xlink" width="1024" height="1024"><path d="M387.617 921.465H192.848c-42.379 0-76.848-34.471-76.848-76.846V179.368c0-42.379 34.469-76.848 76.848-76.848h548.89c42.375 0 76.871 34.469 76.871 76.848v189.496c0 7.062-5.73 12.797-12.793 12.797s-12.797-5.735-12.797-12.797V179.368c0-28.25-23.004-51.258-51.281-51.258h-548.89c-28.25 0-51.258 23.008-51.258 51.258v665.251c0 28.25 23.008 51.256 51.258 51.256h194.793c7.066 0 12.797 5.73 12.797 12.793s-5.731 12.797-12.821 12.797zm0 0"/><path d="M672.617 335.649H261.941c-7.062 0-12.793-5.734-12.793-12.797 0-7.062 5.731-12.793 12.793-12.793h410.676c7.063 0 12.793 5.731 12.793 12.793 0 7.063-5.73 12.797-12.793 12.797zM476.57 528.805H261.941c-7.062 0-12.793-5.734-12.793-12.797 0-7.062 5.731-12.792 12.793-12.792H476.57c7.063 0 12.793 5.731 12.793 12.792 0 7.062-5.73 12.797-12.793 12.797zm-42.019 193.129h-172.61c-7.062 0-12.793-5.729-12.793-12.793 0-7.061 5.731-12.797 12.793-12.797h172.61c7.063 0 12.793 5.736 12.793 12.797 0 7.064-5.707 12.793-12.793 12.793zm0 0"/><defs><path id="a" d="M508.932 536.575H891.89v380.717H508.932z"/></defs><clipPath id="b"><use xlink:href="#a" overflow="visible"/></clipPath><path clip-path="url(#b)" d="M738.834 884.035a157.9 157.9 0 0 1-9.564 2.07c-8.343 1.553-13.858 9.578-12.315 17.933a15.35 15.35 0 0 0 6.263 9.765 15.341 15.341 0 0 0 11.654 2.549 192.999 192.999 0 0 0 11.394-2.476c8.24-2.053 13.261-10.398 11.204-18.635-2.051-8.242-10.392-13.26-18.636-11.206zm113.717-206.121a15.328 15.328 0 0 0 5.733 7.728c3.853 2.714 8.892 3.628 13.702 2.038 8.062-2.68 12.432-11.374 9.762-19.435a191.533 191.533 0 0 0-3.999-10.946c-3.154-7.886-12.1-11.724-19.989-8.57-7.881 3.152-11.724 12.102-8.565 19.989a157.992 157.992 0 0 1 3.356 9.196zM788.804 862.08a159.39 159.39 0 0 1-8.335 5.147c-7.357 4.245-9.879 13.65-5.634 21.006a15.375 15.375 0 0 0 4.454 4.888c4.745 3.335 11.185 3.835 16.551.744a192.847 192.847 0 0 0 9.916-6.128c7.085-4.679 9.034-14.22 4.351-21.307-4.682-7.087-14.216-9.032-21.303-4.35zM891.31 720.863c-.333-8.483-7.482-15.091-15.973-14.761-8.479.335-15.091 7.487-14.757 15.97.127 3.245.159 6.536.086 9.778-.119 5.321 2.483 10.064 6.529 12.917a15.326 15.326 0 0 0 8.506 2.797c8.489.189 15.523-6.544 15.712-15.035a192.32 192.32 0 0 0-.103-11.666zm-41.266 100.764c-6.809-5.109-16.436-3.721-21.532 3.075a162.848 162.848 0 0 1-6.115 7.643c-5.501 6.464-4.725 16.173 1.738 21.675.369.314.741.603 1.129.869 6.427 4.532 15.355 3.489 20.552-2.606a192.646 192.646 0 0 0 7.298-9.13c5.097-6.793 3.716-16.428-3.07-21.526zm22.605-55.591c-8.104-2.542-16.735 1.97-19.274 10.074a163.154 163.154 0 0 1-3.216 9.255c-2.552 6.704-.104 14.086 5.504 18.037a15.11 15.11 0 0 0 3.394 1.803c7.933 3.028 16.818-.95 19.843-8.891 1.38-3.62 2.661-7.323 3.818-11.005 2.539-8.105-1.968-16.73-10.069-19.273zM671.743 886.245a158.688 158.688 0 0 1-39.444-12.536c-.148-.077-.278-.165-.436-.234a168.347 168.347 0 0 1-8.742-4.425c-.009-.014-.027-.021-.043-.025a162.912 162.912 0 0 1-15.301-9.565c-72.338-50.953-89.729-151.263-38.768-223.601 11.079-15.724 24.487-28.84 39.441-39.239.182-.127.366-.254.549-.385 52.683-36.297 124.213-38.742 180.154-1.445l-12.013 17.36c-3.342 4.831-1.285 8.352 4.563 7.827l52.187-4.672c5.854-.526 9.354-5.592 7.781-11.246l-14.014-50.492c-1.569-5.66-5.587-6.339-8.931-1.507l-12.042 17.4c-41.051-27.557-90.291-38.068-139.159-29.59a193.848 193.848 0 0 0-14.563 3.108.93.93 0 0 0-.094.015c-.186.047-.375.107-.555.156-42.14 10.822-78.911 35.4-105.148 70.47-.219.262-.446.518-.656.805a183.484 183.484 0 0 0-6.646 9.591c-.165.242-.287.487-.431.733-21.651 33.55-32.095 72.34-30.303 111.825.002.132-.006.263 0 .396.174 3.856.479 7.768.893 11.616.024.248.076.481.121.731.429 3.873.965 7.753 1.642 11.633 6.862 39.581 25.536 75.2 53.516 102.917.063.065.128.135.196.201.02.028.047.042.068.064a194.007 194.007 0 0 0 24.499 20.474c23.041 16.237 48.697 26.968 76.25 31.913 8.362 1.502 16.347-4.065 17.845-12.421 1.501-8.363-4.057-16.355-12.416-17.852zm19.014-282.211c-6.877 0-12.446 5.576-12.446 12.443v123.956l113.369 58.605a12.402 12.402 0 0 0 5.7 1.389c4.504 0 8.85-2.454 11.064-6.729 3.153-6.109.767-13.609-5.339-16.762l-99.914-51.656V616.476c-.002-6.867-5.566-12.442-12.434-12.442zm0 0"/></svg>