<svg xmlns="http://www.w3.org/2000/svg" xmlns:xlink="http://www.w3.org/1999/xlink" width="1024" height="1024"><path d="M387.617 921.465H192.848c-42.379 0-76.848-34.471-76.848-76.846V179.368c0-42.379 34.469-76.848 76.848-76.848h548.89c42.375 0 76.871 34.469 76.871 76.848v189.496c0 7.062-5.73 12.797-12.793 12.797s-12.797-5.735-12.797-12.797V179.368c0-28.25-23.004-51.258-51.281-51.258h-548.89c-28.25 0-51.258 23.008-51.258 51.258v665.251c0 28.25 23.008 51.256 51.258 51.256h194.793c7.066 0 12.797 5.73 12.797 12.793s-5.731 12.797-12.821 12.797zm0 0"/><path d="M672.617 335.649H261.941c-7.062 0-12.793-5.734-12.793-12.797 0-7.062 5.731-12.793 12.793-12.793h410.676c7.063 0 12.793 5.731 12.793 12.793 0 7.063-5.73 12.797-12.793 12.797zM476.57 528.805H261.941c-7.062 0-12.793-5.734-12.793-12.797 0-7.062 5.731-12.792 12.793-12.792H476.57c7.063 0 12.793 5.731 12.793 12.792 0 7.062-5.73 12.797-12.793 12.797zm-42.019 193.129h-172.61c-7.062 0-12.793-5.729-12.793-12.793 0-7.061 5.731-12.797 12.793-12.797h172.61c7.063 0 12.793 5.736 12.793 12.797 0 7.064-5.707 12.793-12.793 12.793zm0 0"/><defs><path id="a" d="M505.797 461.973h291.289v133.664H505.797z"/></defs><clipPath id="b"><use xlink:href="#a" overflow="visible"/></clipPath><path clip-path="url(#b)" d="M776.062 484.935l-63.885 24.119-80.532-43.101c-9.565-4.31-9.86-5.137-16.592-2.599l-28.665 10.836c-8.913 3.305-4.664 6.406 8.946 21.196l40.325 42.599-101.345 38.259c10.095 1.535 71.439 6.199 85.375.976l167.324-63.206c8.03-3.01 12.074-11.985 9.065-20.044-3.043-8.032-12.016-12.074-20.016-9.035zm-191.563 65.98l-34.068-17.713c-10.095-5.372-13.99-5.344-29.077.354l-15.557 5.877 29.431 30.081 49.271-18.599zm0 0"/><path d="M707.218 595.197l21.847-15.559 20.665 15.559h-42.512zm0 0"/><defs><path id="c" d="M494.345 605.857h314.187v314.634H494.345z"/></defs><clipPath id="d"><use xlink:href="#c" overflow="visible"/></clipPath><path clip-path="url(#d)" d="M651.236 606.172c-86.678 0-156.945 70.268-156.945 156.945 0 86.679 70.268 156.945 156.945 156.945 86.679 0 156.944-70.267 156.944-156.945.001-86.678-70.265-156.945-156.944-156.945zm13.404 11.119s9.831-5.701 13.252-2.28 15.396-.571 46.187 17.674c0 0-6.781 7.233-8.265 6.799.866 1.572 3.527 6.366 5.414 9.328 2.28 3.582 2.851 3.831 2.851 3.831l-2.281 3.421 2.281.57c-2.281-.57-3.421 6.271-6.724 7.412-3.301 1.141 1.021 7.412-.118 8.552-1.141 1.141.57 11.405 0 17.45s-2.852.797-5.702 0c-2.853-.796-7.414-2.626-7.803-4.336-.391-1.711-1.321-6.842-.181-9.693 1.14-2.85-3.422-5.701-5.702-7.792-2.28-2.09-11.403.381-13.113 0-1.711-.38-2.851-5.321-2.851-9.882 0-4.562 7.981.569 12.475 0 4.492-.571 5.2-11.938 5.2-11.938l-.259-9.664c-1.843-.737-2.145-1.693.828-2.917 0 0-9.692-2.28-11.973 2.852-2.281 5.131-3.421 4.634-3.991 9.729s-9.505.606-11.595 0c-2.091-.607-7.793-7.449-7.793-7.449a337.824 337.824 0 0 0 2.852-6.842l-2.989-6.842v-7.983zm-89.953 53.026c.968-1.29 7.415-12.544 15.396-9.122 7.982 3.421 13.113-3.992 13.113-3.992s11.721-11.973 12.419-10.262l.697 1.71c-.697-1.71 9.692-4.562 10.833 1.141 1.14 5.701 7.982 8.569 7.982 8.569s-3.991 6.825-2.852 11.956c1.142 5.134 5.132 6.273 2.852 10.835-2.281 4.561-6.843 6.271-7.982 8.553-1.141 2.28-10.518-7.413-11.53-10.833-1.016-3.421-6.024-6.842-10.361-5.702-4.338 1.141-15.741 3.991-18.021 2.851-2.282-1.14-15.217-2.138-12.546-5.704zm152.812 167.638c-4.562 11.974-15.395 32.501-21.096 38.202-5.704 5.702-12.546 16.535-17.677 20.526-5.132 3.991-5.132 11.405-11.403 10.834-6.272-.569-13.686-18.246-11.976-22.808 1.711-4.561-31.36-12.545-31.36-12.545s-14.254-1.711-17.104-29.078c-.508-4.872-.834-8.328-1.029-10.729-4.284-1.894-21.089-8.851-31.472-6.379-11.976 2.852-14.826-3.802-25.089-5.322l-17.677-16.344s-29.078-33.643-25.657-39.344c3.421-5.702 3.421-21.097 3.99-24.517.571-3.422-4.55-25.089-4.271-27.94.281-2.853-4.28-13.686-4.28-13.686s10.833-22.809 12.544-22.809c1.71 0 7.982 19.388 14.255 19.958 6.271.57 23.377-.57 25.943-3.421 2.565-2.851 4.846-6.271 7.697-6.271 2.85 0 2.85-1.711 7.983.57 5.131 2.28 10.833 5.701 13.113 9.122 2.281 3.421-1.71 10.263 10.263 10.263 11.976 0 11.976-2.851 13.687 5.132 1.711 7.983 3.738 25.659-1.268 26.801-5.005 1.139-19.83 18.498-18.689 24.074 1.142 5.574 1.142 14.129-1.141 19.26-2.28 5.132-3.991 6.842-12.544 6.271-8.553-.569-15.783-5.132-18.156 1.711-2.371 6.842-6.908 22.256 1.052 20.699 0 0 12.544-3.817 17.104 0 4.562 3.819 33.642 16.363 33.642 16.363s26.229-28.51 67.282-10.264l6.842 4.562 11.405-2.479s14.824-4.364 19.955-3.222l5.134 1.14v-2.282c-.002.004 4.56 11.976-.002 23.952zm66.712-65.002s-3.421-5.133-3.421-10.529c0-5.398-3.991-4.867-3.991-11.709s-5.131-4.561-8.552-9.122-5.132 1.711-7.982 2.28c-2.853.57-2.282 5.132-5.134 10.55-2.851 5.417-10.263 8.838-12.543 7.823-2.281-1.013-10.835-8.68-11.403-10.391-.572-1.71-11.976-11.402-11.658-13.684.315-2.282-3.168-14.256-5.448-19.957-2.281-5.702 0-28.167 0-28.167-3.421-1.938 31.36-16.31 26.799-18.02-4.561-1.711-6.842-20.526-6.842-20.526l16.598 8.553c16.599 8.553 37.569 76.407 37.569 76.407v19.385l-3.992 17.107zm0 0"/></svg>