<svg class="icon" viewBox="0 0 1024 1024" xmlns="http://www.w3.org/2000/svg" width="200" height="200"><defs><style/></defs><path d="M902.211 434.834l-76.748-61.588a18.193 18.193 0 0 0-11.451-4.025c-.7 0-1.39.039-2.07.116-4.734.519-9.142 2.946-12.177 6.722L582.748 646.534a18.196 18.196 0 0 0-3.794 8.543l-35.44 93.838c-.732 1.9-1.157 4.099-1.157 6.396 0 4.882 1.915 9.315 5.036 12.592a18.202 18.202 0 0 0 13.239 5.687h.004c1.966 0 3.86-.31 5.634-.884l112.989-35.707c4.307-1.391 7.824-4.208 10.08-7.884l215.689-268.59c6.313-7.881 5.052-19.373-2.817-25.69zM662.966 703.812l-72.09 22.782 22.219-59.474 203.747-253.932 48.24 38.719-202.116 251.904zm180.622-128.337c-14.551 0-26.355 12.269-26.355 27.413v274.268H204.41V146.937h431.349l181.474 113.002v68.539c0 15.142 11.806 27.411 26.355 27.411 14.559 0 26.353-12.269 26.353-27.411v-84.074c0-9.637-4.864-18.567-12.817-23.521L656.59 96.004c-4.093-2.543-8.769-3.891-13.54-3.891H178.056c-14.551 0-26.356 12.268-26.356 27.411v785.042c0 15.143 11.805 27.413 26.356 27.413h665.532c14.559 0 26.353-12.269 26.353-27.413V602.888c.002-15.143-11.794-27.413-26.354-27.413zM295.651 290.206v-.006a9.132 9.132 0 0 0-9.131-9.131h-34.227c-5.042 0-9.137 4.087-9.137 9.137v34.209a9.136 9.136 0 0 0 9.137 9.137h34.227a9.13 9.13 0 0 0 9.131-9.131v-34.215zm-18.274 25.073h-15.946v-15.937h15.947v15.937zm9.137 140.948h-34.221c-5.042 0-9.137 4.087-9.137 9.135v34.211a9.136 9.136 0 0 0 9.137 9.137h34.227a9.132 9.132 0 0 0 9.131-9.131v-34.221a9.132 9.132 0 0 0-9.131-9.131h-.006zm-9.137 34.21h-15.946v-15.938h15.947v15.938zM687.866 307.31v-.006a9.132 9.132 0 0 0-9.131-9.131H347.283c-5.051 0-9.137 4.087-9.137 9.137s4.087 9.137 9.137 9.137h331.452a9.13 9.13 0 0 0 9.131-9.131v-.006zM347.281 473.333c-5.05 0-9.136 4.087-9.136 9.136s4.087 9.136 9.137 9.136h268.174c5.05 0 9.137-4.087 9.137-9.136s-4.087-9.136-9.137-9.136H347.281z"/></svg>