<svg class="icon" viewBox="0 0 1024 1024" xmlns="http://www.w3.org/2000/svg" width="48" height="48"><defs><style/></defs><path d="M520.533 72.533C332.8 72.533 179.2 93.867 179.2 243.2v405.333c0 81.067 68.267 149.334 149.333 149.334l-64 64V883.2h512v-21.333l-64-64c81.067 0 149.334-68.267 149.334-149.334V243.2c0-149.333-149.334-170.667-341.334-170.667zm-187.733 640c-34.133 0-64-29.866-64-64s29.867-64 64-64 64 29.867 64 64-29.867 64-64 64zm145.067-256H264.533V243.2h213.334v213.333zm234.666 256c-34.133 0-64-29.866-64-64s29.867-64 64-64 64 29.867 64 64-25.6 64-64 64zm64-256H563.2V243.2h213.333v213.333z"/></svg>