<svg class="icon" viewBox="0 0 1024 1024" xmlns="http://www.w3.org/2000/svg" width="500" height="500"><defs><style/></defs><path d="M825.23 744.334H709.404a5.22 5.22 0 0 0-5.233 5.234v68.494a5.22 5.22 0 0 0 5.233 5.234h115.94a5.22 5.22 0 0 0 5.234-5.234v-68.38a5.341 5.341 0 0 0-5.348-5.348zm-52.11 23.21h29.81a5.22 5.22 0 0 1 5.234 5.235 5.22 5.22 0 0 1-5.234 5.233h-29.81a5.22 5.22 0 0 1-5.234-5.233c-.114-2.845 2.276-5.234 5.234-5.234zm-18.546 31.631c0 4.324-3.527 7.965-7.964 7.965h-26.397c-4.323 0-7.964-3.528-7.964-7.965v-31.63c0-4.324 3.527-7.965 7.964-7.965h26.397c4.323 0 7.964 3.528 7.964 7.965v31.63zm53.476 2.73h-34.93a5.22 5.22 0 0 1-5.234-5.233 5.22 5.22 0 0 1 5.234-5.234h34.93a5.22 5.22 0 0 1 5.234 5.234 5.22 5.22 0 0 1-5.234 5.234z"/><path d="M968.818 803.157c-1.934-21.617-5.462-40.618-10.013-57.685-3.754-20.366-16.953-69.29-59.278-102.4-27.648-24.348-87.495-32.2-94.208-32.54-36.067-4.096-65.877-15.702-90.567-24.576-77.369-34.475-111.73-97.736-115.598-105.7 17.635-7.51 37.66-33.223 54.386-59.506 9.216-12.97 18.204-27.875 25.827-44.373 6.6-12.516 10.695-20.935 10.695-20.935s2.048 1.706 5.348 2.39c10.012 3.299 28.103-.911 37.774-66.106 13.767-92.956-18.887-80.896-18.887-80.896s11.719-104.562-64.967-164.978C619.52 20.594 576.057 3.072 512.91 4.21 449.764 3.072 406.3 20.594 376.49 45.852c-76.686 60.416-64.966 164.978-64.966 164.978s-32.655-12.06-18.888 80.896c9.672 65.195 27.762 69.405 37.775 66.105 3.3-.796 5.347-2.39 5.347-2.39s3.982 8.42 10.695 20.936c7.51 16.611 16.498 31.403 25.828 44.373 16.725 26.17 36.75 51.883 54.386 59.506-3.755 7.85-38.116 71.225-115.599 105.7-24.69 8.76-54.5 20.48-90.567 24.576-6.826.34-66.56 8.192-94.208 32.54-42.325 33.11-55.523 82.034-59.278 102.4-4.551 16.953-8.078 36.068-10.012 57.685L40.96 1020.245h943.332l-15.474-217.088zM571.164 873.7l-52.224 60.302-64.853-62.01 48.242-265.101-48.242-43.008 29.241-32.655h55.068l32.655 32.655-43.919 43.008L571.164 873.7zm294.457-33.792c0 5.802-4.665 10.58-10.581 10.58H679.595c-5.803 0-10.582-4.664-10.582-10.58V727.723c0-5.803 4.779-10.582 10.582-10.582H855.04c5.803 0 10.581 4.665 10.581 10.582v112.185z"/></svg>