<svg class="icon" viewBox="0 0 1024 1024" xmlns="http://www.w3.org/2000/svg" width="200" height="200"><defs><style/></defs><path d="M508.078 51.512h30.598c53.101 2.474 105.996 12.76 155.37 32.753C796.967 125 883.835 204.408 933.825 303.136c31.778 61.889 48.604 131.105 50.103 200.582v16.508c-1.46 68.58-17.838 136.895-48.867 198.166-30.205 60.353-74.011 113.791-127.02 155.538-54.226 42.777-118.232 73.132-185.743 87.821-27.412 6.184-55.444 9.05-83.437 10.737h-30.636c-36.706-1.949-73.357-6.895-108.75-16.994-85.743-23.74-164.028-73.282-222.487-140.287-41.11-46.787-72.494-102.099-91.7-161.364-14.034-43.116-21.21-88.31-22.334-133.598v-16.47c1.63-84.075 26.363-167.606 71.689-238.507 48.08-75.736 118.682-137.026 200.638-173.545 54.246-24.677 113.38-37.532 172.796-40.21zm-87.896 98.24c-29.193 36.65-48.23 80.102-63.707 124.04 21.716 5.454 43.995 7.815 66.086 11.15 27.394 2.83 54.863 5.32 82.444 5.528-.02-66.78.02-133.56-.02-200.377-35.056 7.4-63.256 32.19-84.803 59.659zM541.88 290.47c37.268-.675 74.518-3.767 111.336-9.743a324.093 324.093 0 0 0 37.175-6.971c-18.08-51.415-41.39-102.606-79.633-142.329-18.7-19.58-42.008-35.657-68.822-41.335-.113 66.798-.019 133.578-.056 200.378zM383.793 112.015c-65.13 22.691-124.527 61.627-171.277 112.33 34.196 18.062 70.846 31.422 108.264 41.016 19.525-58.892 46.937-117.146 91.1-161.704-9.611 1.893-18.83 5.229-28.087 8.358zm251.024-8.62c9.2 8.47 16.583 18.588 24.622 28.107 30.091 40.21 51.134 86.435 66.76 133.953 37.4-9.743 73.937-23.16 108.264-40.978-53.457-57.955-123.386-100.807-199.646-121.081zM187.97 253.164c-52.914 68.69-84.317 153.74-87.69 240.455 61.365-.111 122.748-.036 184.112-.036 1.2-64.981 9.519-129.87 25.876-192.788-42.402-11.169-83.793-26.627-122.298-47.631zm548.647 47.63c16.357 62.92 24.676 127.807 25.838 192.77 61.421-.02 122.823 0 184.244 0-3.616-86.699-34.795-171.804-87.859-240.438-38.43 21.155-79.895 36.407-122.223 47.668zm-415.425 192.62c61.29.319 122.542.056 183.813.15V327.305c-53.327-.993-106.709-6.54-158.855-17.95-15.851 60.016-23.59 122.036-24.958 184.057zm220.689-166.126c0 55.444 0 110.85.019 166.275 61.27-.111 122.522.206 183.794-.169-1.387-62.02-9.126-124.04-24.96-184.075-52.127 11.486-105.528 16.976-158.853 17.97zm-441.639 203.13c3.448 86.716 34.795 171.766 87.748 240.456 38.467-21.06 79.914-36.444 122.278-47.668-16.375-62.919-24.62-127.825-25.913-192.788-61.364.038-122.73.038-184.113 0zm220.988.15c1.368 62.02 9.013 124.135 25.014 184.15 52.07-11.618 105.454-16.976 158.742-18.006.02-55.425.02-110.87.02-166.275-61.272.094-122.524-.169-183.776.13zm220.65-.131v166.256c53.364.975 106.747 6.577 158.892 17.93 15.627-60.127 23.872-122.167 24.696-184.28-61.196.225-122.392.039-183.587.094zm220.575 0c-1.087 64.944-9.519 129.85-25.819 192.77 42.346 11.167 83.774 26.55 122.223 47.648 53.063-68.616 84.224-153.722 87.84-240.4-61.42-.037-122.841.001-184.244-.018zM356.512 750.113c17.931 51.546 41.428 102.775 79.69 142.517 18.662 19.56 41.972 35.6 68.784 41.24.058-66.76 0-133.54.02-200.32-49.842.974-99.72 6.052-148.494 16.563zm185.369-16.601c.019 66.798-.038 133.598.037 200.377 34.983-7.382 63.145-32.097 84.674-59.51 29.249-36.706 48.417-80.232 63.8-124.266-22.372-5.396-45.231-8-67.941-11.279-26.813-2.625-53.627-5.153-80.57-5.322zm-329.421 66.03c53.439 57.899 123.33 100.807 199.571 121.006-44.164-44.67-71.745-102.906-91.25-161.91-37.495 9.444-73.956 23.198-108.321 40.905zm513.702-40.959c-19.618 59.06-47.143 117.37-91.4 162.096 76.185-20.367 146.132-63.107 199.61-121.043-34.18-18.08-70.83-31.328-108.21-41.053zm0 0"/></svg>