<svg class="icon" viewBox="0 0 1024 1024" xmlns="http://www.w3.org/2000/svg" width="48" height="48"><defs><style/></defs><path d="M749.568 984.064H323.584c-97.792 0-177.152-79.36-177.152-177.152v-573.44c0-97.792 79.36-177.152 177.152-177.152h425.984c97.792 0 177.152 79.36 177.152 177.152v573.44c0 47.104-18.432 91.648-51.712 124.928-33.792 33.792-78.336 52.224-125.44 52.224zM323.584 115.2c-59.904 0-118.784 58.88-118.784 118.784v573.44c0 59.904 58.88 118.784 118.784 118.784h425.984c59.904 0 118.784-58.88 118.784-118.784v-573.44c0-59.904-58.88-118.784-118.784-118.784H323.584z"/><path d="M288.256 332.288l76.8 69.632 147.456-104.448-32.768-34.816-117.76 88.064-39.936-45.056-33.792 26.624zm1.024 203.776l76.8 69.632 147.456-104.448-32.768-34.816-117.76 88.064-39.424-45.056-34.304 26.624zm271.872-203.776h221.696v39.424H561.152v-39.424zm1.024 184.32h221.696v39.424H562.176v-39.424zm-271.872 207.36l76.8 69.632L514.56 689.152l-32.768-34.816-117.76 88.064-39.936-45.056-33.792 26.624zM563.2 704h221.184v39.424H563.2V704z"/></svg>