<svg class="icon" viewBox="0 0 1024 1024" xmlns="http://www.w3.org/2000/svg" width="200" height="200"><defs><style/></defs><path d="M997.381 746.257c0 67.28-54.745 122.023-122.023 122.023-67.28 0-122.024-54.742-122.024-122.023 0-67.28 54.744-122.024 122.024-122.024 5.536 0 11.138.382 16.708 1.16 4.983-24.961 7.505-49.874 7.505-74.112 0-133.512-68.008-255.09-181.925-325.234-11.518-7.101-15.12-22.247-8.028-33.759 4.506-7.307 12.314-11.663 20.897-11.663a24.55 24.55 0 0 1 12.853 3.634c128.546 79.117 205.267 216.317 205.267 367.022 0 29.76-3.348 60.274-9.934 90.74 36.26 22.09 58.68 61.774 58.68 104.236zm-122.023-72.96c-40.226 0-72.96 32.734-72.96 72.96 0 40.224 32.734 72.961 72.96 72.961 40.224 0 72.959-32.737 72.959-72.961 0-40.226-32.735-72.96-72.96-72.96zM682.5 949.38c-52.285 21.66-107.663 32.64-164.614 32.64-113.104 0-223.798-45.906-304.137-126.054-16.535 8.062-34.909 12.313-53.332 12.313-67.279 0-122.024-54.742-122.024-122.023 0-67.28 54.745-122.024 122.024-122.024 67.28 0 122.024 54.744 122.024 122.024 0 29.26-10.457 57.346-29.53 79.466 70.706 68.2 167.071 107.235 264.975 107.235 50.412 0 99.491-9.728 145.842-28.911 2.95-1.239 6.109-1.857 9.377-1.857 9.965 0 18.868 5.934 22.691 15.123 5.158 12.503-.809 26.88-13.296 32.068zM160.418 673.296c-40.225 0-72.96 32.735-72.96 72.96 0 40.225 32.735 72.962 72.96 72.962 40.226 0 72.96-32.737 72.96-72.961 0-40.226-32.734-72.96-72.96-72.96zm357.47-406.198c-51.143 0-96.667-31.887-114.391-79.73-150.712 47.017-255.058 178.784-266.199 336.653-.936 12.797-11.694 22.81-24.483 22.81l-1.682-.064c-6.586-.452-12.536-3.427-16.851-8.377-4.302-4.96-6.412-11.275-5.967-17.813C100.93 342.063 224.46 188.796 396.054 138.361c3.54-63.837 57.616-115.326 121.833-115.326 67.28 0 122.024 54.742 122.024 122.03 0 67.288-54.744 122.033-122.024 122.033zm0-194.984c-40.225 0-72.96 32.726-72.96 72.951 0 40.225 32.735 72.954 72.96 72.954 40.225 0 72.959-32.73 72.959-72.954 0-40.225-32.734-72.951-72.96-72.951z"/></svg>