<svg xmlns="http://www.w3.org/2000/svg" width="1024" height="1024"><path d="M387.617 921.465H192.848c-42.379 0-76.848-34.471-76.848-76.846V179.368c0-42.379 34.469-76.848 76.848-76.848h548.89c42.375 0 76.871 34.469 76.871 76.848v189.496c0 7.062-5.73 12.797-12.793 12.797s-12.797-5.735-12.797-12.797V179.368c0-28.25-23.004-51.258-51.281-51.258h-548.89c-28.25 0-51.258 23.008-51.258 51.258v665.251c0 28.25 23.008 51.256 51.258 51.256h194.793c7.066 0 12.797 5.73 12.797 12.793s-5.731 12.797-12.821 12.797zm0 0"/><path d="M672.617 335.649H261.941c-7.062 0-12.793-5.734-12.793-12.797 0-7.062 5.731-12.793 12.793-12.793h410.676c7.063 0 12.793 5.731 12.793 12.793 0 7.063-5.73 12.797-12.793 12.797zM476.57 528.805H261.941c-7.062 0-12.793-5.734-12.793-12.797 0-7.062 5.731-12.792 12.793-12.792H476.57c7.063 0 12.793 5.731 12.793 12.792 0 7.062-5.73 12.797-12.793 12.797zm-42.019 193.129h-172.61c-7.062 0-12.793-5.729-12.793-12.793 0-7.061 5.731-12.797 12.793-12.797h172.61c7.063 0 12.793 5.736 12.793 12.797 0 7.064-5.707 12.793-12.793 12.793zm242.616 197.5c-104.733 0-189.875-85.139-189.875-189.873 0-104.735 85.142-189.875 189.875-189.875 104.734 0 189.873 85.14 189.873 189.875 0 104.734-85.139 189.873-189.873 189.873zm0-358.571c-93.077 0-168.696 75.618-168.696 168.697 0 93.078 75.619 168.692 168.696 168.692 93.078 0 168.693-75.614 168.693-168.692 0-93.079-75.615-168.697-168.693-168.697zm0-4.247"/><path d="M630.905 760.32c-3.632 31.165-15.783 59.342-36.453 84.53-5.167-5.007-10.738-9.851-16.713-14.532 15.662-16.956 26.16-37.137 31.488-60.553 3.714-17.274 5.572-41.173 5.572-71.691v-83.806h161.793V803.19c0 23.898-11.385 35.847-34.151 35.847-9.527 0-21.798-.162-36.815-.482-.809-5.814-2.021-12.596-3.633-20.346 14.855.97 26.562 1.453 35.119 1.453 13.081 0 19.619-6.379 19.619-19.136V760.32H630.905zm1.938-17.679h123.889v-46.505h-122.07c-.001 16.148-.607 31.65-1.819 46.505zm1.818-110.206v46.021h122.073v-46.021H634.661zm0 0"/></svg>