<svg class="icon" viewBox="0 0 1024 1024" xmlns="http://www.w3.org/2000/svg" width="48" height="48"><defs><style/></defs><path d="M512 0C229.669 0 0 229.669 0 512s229.669 512 512 512 512-229.669 512-512S794.331 0 512 0zm0 938.642A427.154 427.154 0 0 1 85.358 512 427.154 427.154 0 0 1 512 85.358 427.154 427.154 0 0 1 938.642 512 427.154 427.154 0 0 1 512 938.642zm198.29-301.129l-177.005-102.4V256A42.715 42.715 0 0 0 448 256v298.642c0 15.872 19.675 29.111 32.475 36.425 3.511 5.34 13.24 10.24 19.164 13.605l176.055 106.642c20.407 11.776 42.423 4.828 54.272-15.58 11.703-20.406.731-46.445-19.676-58.22z"/></svg>