<svg class="icon" viewBox="0 0 1228 1024" xmlns="http://www.w3.org/2000/svg" width="57.563" height="48"><defs><style/></defs><path d="M744.735 950.845H894.32a36.577 36.577 0 0 1 0 73.155H222.74a36.577 36.577 0 0 1 0-73.155h149.626v-72.499a37.274 37.274 0 0 1 37.233-37.191h297.902a37.274 37.274 0 0 1 37.233 37.232v72.5zm372.367-433.48a289.956 289.956 0 0 0-74.465-4.792V147.62a74.465 74.465 0 0 0-74.506-74.465h-819.2a74.465 74.465 0 0 0-74.466 74.465v509.337c0 41.124 33.342 74.466 74.466 74.466h671.252a175.309 175.309 0 0 0 25.395 73.154H74.465A74.465 74.465 0 0 1 0 730.112V74.465C0 33.341 33.341 0 74.465 0h968.172c41.124 0 74.465 33.341 74.465 74.465v442.9z"/><path d="M491.52 245.76a40.96 40.96 0 0 1 40.96 40.96v286.72a40.96 40.96 0 0 1-81.92 0V286.72a40.96 40.96 0 0 1 40.96-40.96zM614.4 368.64a40.96 40.96 0 0 1 40.96 40.96v163.84a40.96 40.96 0 0 1-81.92 0V409.6a40.96 40.96 0 0 1 40.96-40.96zm-204.8 81.92v122.88a40.96 40.96 0 0 1-81.92 0V450.56a40.96 40.96 0 0 1 81.92 0zM696.32 204.8a40.96 40.96 0 0 1 81.838 0l-.82 369.132a40.55 40.55 0 0 1-81.018 0V204.8zm434.34 569.958c-1.065-1.024-2.171-1.802-3.277-2.621a141.926 141.926 0 0 0 23.839-78.807c0-79.954-65.946-144.753-147.415-144.753-81.347 0-147.374 64.799-147.374 144.753 0 79.954 66.027 144.753 147.374 144.753 29.655 0 57.18-8.684 80.281-23.43.86 1.065 1.639 2.171 2.663 3.195l89.088 87.532a31.293 31.293 0 0 0 43.868 0 30.147 30.147 0 0 0 0-43.131l-89.047-87.49zm-126.853 17.613c-55.583 0-100.844-44.441-100.844-99.041 0-54.6 45.261-99.041 100.844-99.041 55.623 0 100.843 44.441 100.843 99.04 0 54.6-45.22 99.042-100.843 99.042"/></svg>