<svg class="icon" viewBox="0 0 1024 1024" xmlns="http://www.w3.org/2000/svg" width="48" height="48"><defs><style/></defs><path d="M271.616 115.45h197.897L300.207 346.213H77.651L271.616 115.45zm452.081 271.716h218.47L566.34 834.853l157.356-447.687zM350.9 346.214l158.987-216.692 158.998 216.692H350.9zm329.515 40.952L509.887 872.302 339.374 387.166h341.04zm-384.334 0l157.356 447.687L77.615 387.166H296.08zm646.047-40.952H719.576L550.256 115.45h197.921l193.951 230.765zm59.517 7.279L773.272 81.774a20.373 20.373 0 0 0-15.606-7.276H262.128a20.392 20.392 0 0 0-15.607 7.276L18.133 353.493a20.52 20.52 0 0 0-2.907 21.827c.774 1.662 1.799 3.157 2.944 4.517l-.045.042 491.76 585.792 491.767-585.792-.047-.042c1.148-1.36 2.17-2.855 2.942-4.517a20.518 20.518 0 0 0-2.902-21.827z"/></svg>