<svg xmlns="http://www.w3.org/2000/svg" xmlns:xlink="http://www.w3.org/1999/xlink" width="1024" height="1024"><path d="M387.617 921.465H192.848c-42.379 0-76.848-34.471-76.848-76.846V179.368c0-42.379 34.469-76.848 76.848-76.848h548.89c42.375 0 76.871 34.469 76.871 76.848v189.496c0 7.062-5.73 12.797-12.793 12.797s-12.797-5.735-12.797-12.797V179.368c0-28.25-23.004-51.258-51.281-51.258h-548.89c-28.25 0-51.258 23.008-51.258 51.258v665.251c0 28.25 23.008 51.256 51.258 51.256h194.793c7.066 0 12.797 5.73 12.797 12.793s-5.731 12.797-12.821 12.797zm0 0"/><path d="M672.617 335.649H261.941c-7.062 0-12.793-5.734-12.793-12.797 0-7.062 5.731-12.793 12.793-12.793h410.676c7.063 0 12.793 5.731 12.793 12.793 0 7.063-5.73 12.797-12.793 12.797zM476.57 528.805H261.941c-7.062 0-12.793-5.734-12.793-12.797 0-7.062 5.731-12.792 12.793-12.792H476.57c7.063 0 12.793 5.731 12.793 12.792 0 7.062-5.73 12.797-12.793 12.797zm-42.019 193.129h-172.61c-7.062 0-12.793-5.729-12.793-12.793 0-7.061 5.731-12.797 12.793-12.797h172.61c7.063 0 12.793 5.736 12.793 12.797 0 7.064-5.707 12.793-12.793 12.793zm0 0"/><defs><path id="a" d="M515.736 541.213h375.351v375.853H515.736z"/></defs><clipPath id="b"><use xlink:href="#a" overflow="visible"/></clipPath><path clip-path="url(#b)" d="M703.327 568.062c82.295.125 151.12 62.563 159.236 144.457 8.115 81.893-47.117 156.624-127.786 172.898-80.672 16.274-160.556-31.198-184.825-109.832-24.269-78.637 14.966-162.873 90.775-194.894a159.782 159.782 0 0 1 62.6-12.629m0-26.808c-103.636 0-187.653 84.018-187.653 187.653 0 103.638 84.018 187.655 187.653 187.655 103.638 0 187.655-84.018 187.655-187.655 0-103.636-84.017-187.653-187.655-187.653zm0 0"/><path clip-path="url(#b)" d="M703.327 541.254c-103.636 0-187.653 84.018-187.653 187.653 0 103.638 84.018 187.655 187.653 187.655 103.638 0 187.655-84.018 187.655-187.655H703.327V541.254zm0 0"/></svg>