<svg class="icon" viewBox="0 0 1024 1024" xmlns="http://www.w3.org/2000/svg" width="200" height="200"><defs><style/></defs><path d="M967.68 700.928h-67.584V499.2c0-14.848-11.264-26.112-26.112-26.112H537.6V320h67.072c30.72 0 55.296-25.088 55.296-55.808V76.288c0-30.72-25.088-55.808-55.296-55.808H418.816c-30.72 0-55.296 25.088-55.296 55.808v187.904c0 30.72 25.088 55.808 55.296 55.808H486.4v153.088H148.992c-14.336 0-26.112 11.264-26.112 26.112v201.216H55.296C24.576 700.416 0 725.504 0 756.224v187.904c0 30.72 25.088 55.808 55.296 55.808h185.856c30.72 0 55.296-25.088 55.296-55.808V756.224c0-30.72-25.088-55.808-55.296-55.808h-67.584V525.312h311.296l.512 175.104h-67.072c-30.72 0-55.296 25.088-55.296 55.808v187.904c0 30.72 25.088 55.808 55.296 55.808H604.16c30.72 0 55.296-25.088 55.296-55.808V756.224c0-30.72-25.088-55.808-55.296-55.808h-66.048l-.512-175.104h310.272v175.104h-67.584c-30.72 0-55.296 25.088-55.296 55.808v187.904c0 30.72 25.088 55.808 55.296 55.808h185.856c30.72 0 55.296-25.088 55.296-55.808V756.224c1.536-29.696-23.552-55.296-53.76-55.296z"/></svg>