<svg xmlns="http://www.w3.org/2000/svg" width="200" height="200"><path d="M199.121 139.127c-.02-.156-.039-.293-.059-.43-.781-4.238-3.633-7.851-7.616-9.667l-.117-.059-6.581-2.812c-1.328-.703-2.012-1.895-1.816-3.203 0-.02 0-.059.02-.078l.918-7.129c.02-.117.02-.234.039-.352.332-4.374-1.523-8.689-4.824-11.229l-.02-.02c-4.629-3.945-9.472-6.816-14.842-8.73h-.02c-.02 0-.039-.02-.059-.02-1.289-.527-2.695-.801-4.219-.801-2.773 0-5.605.898-7.948 2.559-.039.02-.078.059-.117.078l-5.897 4.316c-.039.039-.078.059-.117.098-.449.352-1.094.547-1.738.547-.664 0-1.289-.195-1.738-.547-.039-.039-.078-.059-.117-.098l-5.957-4.394h-.02c-2.148-1.66-4.901-2.578-7.772-2.578-1.425 0-2.831.234-4.179.703a2.605 2.605 0 0 0-.352.137c-5.313 2.207-10.176 5.058-14.823 8.73l-.039.02c-.02 0-.02.02-.039.02l-.02.02c-3.339 2.402-5.116 6.562-4.765 11.209 0 .117.02.215.039.332l.938 7.188c0 .02 0 .059.02.078.176 1.27-.508 2.48-1.816 3.164l-6.64 2.851a.931.931 0 0 1-.137.059 13.225 13.225 0 0 0-7.539 9.628c-.02.137-.039.293-.059.43l-.078.684c-.293 2.539-.547 4.941-.547 7.636 0 2.91 0 6.229.684 9.276v.02c.762 4.023 3.691 7.637 7.636 9.434h.02l6.328 2.851c.02.02.039.02.078.039 1.289.684 1.934 1.855 1.777 3.145 0 .078-.02.137-.02.215l-.625 6.581v.098c-.352 4.336 1.465 8.632 4.706 11.229.059.039.117.098.195.137 5.819 4.276 10.78 7.05 15.644 8.769 1.387.488 2.852.742 4.296.742 2.871 0 5.644-.918 7.792-2.598l5.391-4.121c.039-.039.078-.059.117-.098.273-.234.879-.488 1.66-.488.664 0 1.289.215 1.738.566a.613.613 0 0 0 .137.098l5.214 3.945.059.039c1.991 1.66 4.823 2.617 7.772 2.617 1.465 0 3.223-.371 4.336-.723.02 0 .02 0 .039-.02 5.858-1.953 11.131-4.922 15.701-8.808 3.457-2.441 5.215-6.581 4.844-11.366v-.098l-.625-6.522c0-.078-.02-.137-.02-.215-.176-1.289.488-2.461 1.777-3.145.02 0 .039-.02.059-.02l6.347-2.851c4.159-1.875 6.874-5.195 7.636-9.355.02-.137.039-.273.059-.43.313-2.773.625-5.995.625-8.944 0-2.675-.273-5.077-.547-7.616l-.177-.723zm-12.381 15.369a2.04 2.04 0 0 1-.469.273l-6.289 2.832-.098.039c-.117.059-.234.098-.352.156-6.113 3.066-9.53 9.297-8.71 15.877l.605 6.367c.02.156 0 .313 0 .43-.078.059-.156.117-.234.195l-.176.156c-3.34 2.871-7.226 5.059-11.562 6.522a4.326 4.326 0 0 1-.527.098h-.039c-.02 0-.02-.02-.039-.02l-5.273-4.003c-2.655-2.09-6.014-3.242-9.49-3.242-3.496 0-6.836 1.133-9.434 3.203l-5.312 4.081a.514.514 0 0 1-.215.039c-.039 0-.078 0-.156-.02-3.593-1.269-7.46-3.456-12.128-6.874a.952.952 0 0 1-.098-.449l.605-6.406c.801-6.601-2.598-12.83-8.729-15.896-.098-.059-.215-.098-.332-.156l-6.347-2.891a1.356 1.356 0 0 1-.547-.469 4.118 4.118 0 0 0-.098-.469c-.352-1.698-.352-4.101-.352-6.425 0-1.991.215-3.866.469-6.249l.039-.332a.829.829 0 0 1 .371-.41l6.483-2.773.039-.02a5.14 5.14 0 0 0 .469-.215l.137-.059c3.008-1.504 5.409-3.809 6.972-6.659a15.288 15.288 0 0 0 1.719-9.452l-.898-6.934v-.293c.02-.02.039-.02.059-.039 3.691-2.909 7.5-5.175 11.659-6.932h.039c.078 0 .156.02.215.039l.02.02.059.059 5.976 4.394c2.637 2.011 5.938 3.124 9.336 3.124s6.718-1.113 9.334-3.124l5.742-4.237c.215-.137.449-.215.605-.254.02 0 .039.02.059.02 4.004 1.425 7.656 3.573 11.171 6.6.02 0 .02.02.039.02l.078.078c.059.059.137.117.215.176.039.078.078.234.098.41l-.898 6.836a15.245 15.245 0 0 0 1.719 9.491c1.562 2.87 3.964 5.175 6.972 6.659l.117.059c.156.078.332.156.508.234l6.426 2.754c.215.117.391.273.449.449l.039.352c.273 2.363.469 4.238.469 6.23-.001 2.148-.255 4.824-.509 7.03z"/><path d="M130.944 147.271c0 7.27 5.884 13.162 13.144 13.162 7.258 0 13.143-5.893 13.143-13.162 0-7.271-5.885-13.164-13.143-13.164-7.26 0-13.144 5.894-13.144 13.164zM15.624 74.954h19.881c8.612 0 15.624-7.011 15.624-15.624s-7.011-15.624-15.624-15.624H15.624C7.011 43.707 0 50.718 0 59.33s7.011 15.624 15.624 15.624zm0-18.748h19.881c1.719 0 3.125 1.406 3.125 3.125s-1.406 3.125-3.125 3.125H15.624c-1.719 0-3.125-1.406-3.125-3.125s1.406-3.125 3.125-3.125zm0 59.407h19.881c8.612 0 15.624-7.011 15.624-15.623s-7.011-15.624-15.624-15.624H15.624C7.011 84.367 0 91.378 0 99.99s7.011 15.623 15.624 15.623zm0-18.747h19.881c1.719 0 3.125 1.406 3.125 3.125s-1.406 3.125-3.125 3.125H15.624c-1.719 0-3.125-1.406-3.125-3.125s1.406-3.125 3.125-3.125zm35.504 43.784c0-8.612-7.011-15.623-15.624-15.623h-19.88C7.011 125.027 0 132.038 0 140.65s7.011 15.623 15.624 15.623h19.881c8.612 0 15.623-7.01 15.623-15.623zm-38.629 0a3.134 3.134 0 0 1 3.125-3.125h19.881c1.719 0 3.125 1.406 3.125 3.125s-1.406 3.125-3.125 3.125H15.624a3.134 3.134 0 0 1-3.125-3.125zm83.078 46.831H43.238c-3.281 0-6.054-3.163-6.054-6.913v-11.503c0-3.456-2.793-6.249-6.25-6.249s-6.25 2.793-6.25 6.249v11.503c0 10.702 8.319 19.412 18.553 19.412h52.319a6.243 6.243 0 0 0 6.25-6.25c.001-3.456-2.792-6.249-6.229-6.249zM30.954 37.165a6.243 6.243 0 0 0 6.25-6.25V19.412c0-3.75 2.773-6.913 6.054-6.913h104.638c3.281 0 6.054 3.164 6.054 6.913v62.455c0 3.457 2.793 6.249 6.25 6.249s6.25-2.792 6.25-6.249V19.412C166.449 8.71 158.129 0 147.896 0H43.238C33.004 0 24.685 8.71 24.685 19.412v11.503c.02 3.457 2.813 6.25 6.269 6.25zM180.588 0c-3.457 0-6.25 2.793-6.25 6.25s2.793 6.25 6.25 6.25c3.809 0 6.894 3.105 6.894 6.913v62.455a6.242 6.242 0 0 0 6.249 6.249 6.242 6.242 0 0 0 6.25-6.249V19.412C199.98 8.71 191.271 0 180.588 0z"/></svg>