<svg class="icon" viewBox="0 0 1024 1024" xmlns="http://www.w3.org/2000/svg" width="500" height="500"><defs><style/></defs><path d="M982.656 486.912l-61.632-61.568A33.024 33.024 0 0 0 874.368 472l39.936 40H800V192a64 64 0 0 0-64-64H288a64 64 0 0 0-64 64v320H110.976l39.552-39.488a33.152 33.152 0 1 0-47.04-46.976l-62.016 61.952A32.896 32.896 0 0 0 32 512.384V768a128 128 0 0 0 128 128h704a128 128 0 0 0 128-128V512h-.064a32.64 32.64 0 0 0-9.28-25.088zM288 192h448v320H288V192zm640 576a64 64 0 0 1-64 64H160a64 64 0 0 1-64-64V576h832v192z"/><path d="M640 256H384a32 32 0 0 0 0 64h256a32 32 0 0 0 0-64zm0 128H384a32 32 0 0 0 0 64h256a32 32 0 0 0 0-64z"/></svg>