<svg class="icon" viewBox="0 0 1024 1024" xmlns="http://www.w3.org/2000/svg" width="48" height="48"><defs><style/></defs><path d="M64.044 451.262v382.373c0 21.036 16.962 38.059 37.935 38.059H143.6V413.327h-41.62c-20.974 0-37.936 16.964-37.936 37.935zm831.936-89.318l-78.953-129.72c-11.287-19.12-23.748-30.038-42.47-25.29L112.65 380.512l783.33-18.567zM562.86 123.293c-6.66-9.838-21.742-17.734-34.418-11.35L67.807 358.275l549.243-164.91-54.19-70.072zm358.997 290.034H198.33v458.368h723.528c21.034 0 37.998-16.962 37.998-37.996V451.262c.062-20.971-16.901-37.935-37.998-37.935zm-118.186 329.82c0 5.244-4.317 9.499-9.56 9.499H321.725c-5.305 0-9.576-4.255-9.576-9.499v-15.113c0-5.241 4.271-9.56 9.576-9.56h472.448c5.244 0 9.56 4.319 9.56 9.56v15.113h-.062zm0-163.52c0 5.242-4.317 9.497-9.56 9.497H321.725c-5.305 0-9.576-4.255-9.576-9.498v-15.174c0-5.245 4.271-9.5 9.576-9.5h472.448c5.244 0 9.56 4.255 9.56 9.5v15.174h-.062z"/></svg>