<svg class="icon" viewBox="0 0 1132 1024" xmlns="http://www.w3.org/2000/svg" width="53.063" height="48"><defs><style/></defs><path d="M1129.38 743.982c2.708 5.443 3.906 12.908 3.553 22.42-.333 9.503-1.858 18.34-4.587 26.491-1.367 5.443-3.564 9.012-6.62 10.706-3.067 1.695-5.945 2.545-8.658 2.545-10.19-.691-20.04 1.53-29.548 6.625s-16.317 12.396-20.378 21.893c-4.07 9.508-5.094 18.862-3.056 28.032 2.027 9.17 6.794 17.49 14.264 24.966.681 1.356 1.7 3.056 3.057 5.094.68 1.362 1.362 3.226 2.032 5.601.681 2.381.681 4.588 0 6.625-1.367 7.476-6.62 15.796-15.79 24.966s-17.828 14.095-25.979 14.781c-4.08.681-7.311.328-9.692-1.019a75.571 75.571 0 0 1-7.634-5.09c-5.442-4.76-12.907-9.169-22.425-13.25-9.498-4.07-19.021-4.408-28.519-1.013-9.508 4.075-16.64 10.531-21.401 19.353-4.762 8.832-7.143 18.007-7.143 27.51 0 7.48-3.056 12.907-9.17 16.312-5.432 3.395-13.92 4.92-25.472 4.583-11.55-.328-21.058-2.207-28.528-5.602-5.443-2.037-8.151-6.789-8.151-14.259 0-9.503-2.381-19.026-7.148-28.528-4.756-9.503-11.883-16.65-21.396-21.402-9.508-4.08-19.528-4.588-30.06-1.531-10.532 3.062-19.19 8.32-25.979 15.79-4.756 4.762-11.202 5.443-19.348 2.038-7.47-3.395-15.632-9.682-24.453-18.852-8.837-9.17-13.927-17.49-15.283-24.96-1.357-5.443 1.372-11.56 8.16-18.34 5.443-4.772 9.683-11.56 12.73-20.377 3.06-8.832 2.887-18.002-.513-27.51-2.038-6.113-5.442-10.87-10.189-14.264s-9.85-6.114-15.278-8.157a89.267 89.267 0 0 0-19.348-4.07c-5.443-1.362-9.17-3.4-11.208-6.118-5.432-5.433-7.982-14.772-7.634-28.022.333-13.24 2.55-23.26 6.62-30.055 4.086-6.113 8.484-8.837 13.256-8.156 10.179 0 20.193-2.37 30.044-7.142 9.861-4.752 16.814-11.879 20.885-21.397 4.085-9.507 4.418-19.358 1.019-29.547-3.395-10.189-8.49-19.026-15.273-26.501-4.767-4.757-5.443-11.203-2.033-19.349 3.4-7.47 9-14.95 16.809-22.42 7.803-7.47 15.12-11.889 21.903-13.25 4.762-.682 9.503 1.361 14.26 6.112 6.794 6.79 15.114 11.377 24.965 13.758a49.792 49.792 0 0 0 29.035-1.531c4.767-2.027 9.011-5.258 12.734-9.682a77.768 77.768 0 0 0 9.17-13.245c2.38-4.414 4.249-8.658 5.606-12.739 1.372-4.07 2.038-7.137 2.038-9.17.675-1.367 1.172-3.39 1.525-6.103.349-2.719 1.531-4.761 3.569-6.108 3.395-2.714 7.798-4.588 13.245-5.612a91.53 91.53 0 0 1 16.815-1.52 69.12 69.12 0 0 1 16.808 2.027l12.227 3.062c3.395 1.367 5.606 3.733 6.625 7.137s1.531 6.457 1.531 9.17c-.68 9.503 1.357 18.51 6.108 26.993 4.752 8.489 11.879 14.787 21.402 18.857 9.508 4.08 19.185 5.1 29.035 3.067s18.171-6.794 24.966-14.27c2.037-1.356 4.756-2.703 8.15-4.07 3.4-1.367 6.462-1.367 9.17 0 7.47 3.395 15.284 9.17 23.435 17.32 8.161 8.157 12.907 16.979 14.264 26.497.681 2.714.17 5.258-1.53 7.634-1.7 2.386-3.226 4.25-4.588 5.616-7.47 6.784-12.4 14.94-14.782 24.443-2.375 9.503-1.525 19.021 2.55 28.529 4.076 9.503 10.87 16.64 20.378 21.402 9.497 4.756 19.02 7.137 28.523 7.137 7.496-1.393 12.928 1.669 16.328 9.14zM972.472 800.02c7.47-18.34 7.47-36.68 0-55.019-7.475-18.34-20.04-31.59-37.698-39.741-18.34-7.47-36.839-7.47-55.532 0-18.672 7.47-31.76 20.04-39.23 37.698-8.15 18.34-9.333 37.53-3.563 57.57 5.786 20.039 18.51 34.13 38.216 42.28l2.027-3.051c19.707 8.832 38.549 9 56.55.507 17.998-8.49 31.08-21.904 39.23-40.244zM516.224 209.162h114.115v440.156H516.224zm184.765 360.556c31.494-30.009 70.575-52.142 114.115-63.13V312.412H700.989v257.306z"/><path d="M621.128 755.855c0-15.98 1.53-31.585 4.316-46.755H86.938c-10.87 0-21.74-10.87-21.74-21.735V138.516c0-10.87 10.87-21.734 21.74-21.734h809.697c10.87 0 21.73 10.87 21.73 21.734v363.398a254.981 254.981 0 0 1 65.202 19.456V116.782c0-38.042-27.171-65.208-65.203-65.208H65.193C32.599 51.574 0 78.746 0 116.782v597.75c0 32.604 27.172 65.213 65.193 65.213h557.092a255.98 255.98 0 0 1-1.157-23.89z"/><path d="M331.474 415.657h114.11v233.661h-114.11zm345.39 499.937h-30.208V867.64a255.35 255.35 0 0 1-20.434-60.718H364.078c-10.87 0-16.302 10.86-16.302 21.73v86.942H157.583v65.203h596.173a257.838 257.838 0 0 1-76.892-65.203zM173.88 518.912H288v130.427H173.88z"/></svg>