<svg class="icon" viewBox="0 0 1024 1024" xmlns="http://www.w3.org/2000/svg" width="200" height="200"><defs><style/></defs><path d="M146.286 438.857h117.028v438.857H146.286V438.857zm204.8 131.657h117.028v307.2H351.086v-307.2zm204.8 0h117.028v307.2H555.886v-307.2zm204.8-131.657h117.028v438.857H760.686V438.857zM512 146.286a175.543 175.543 0 1 0 175.543 175.543A175.543 175.543 0 0 0 512 146.286zm10.24 281.234v20.114h-21.943V426.79a69.851 69.851 0 0 1-65.463-61.075l32.183-9.143a42.789 42.789 0 0 0 49.372 43.155q39.131 0 39.131-31.086 5.12-21.943-45.349-33.28-73.142-14.994-68.388-59.246a56.32 56.32 0 0 1 58.514-57.783v-20.845h21.943v19.383a64.366 64.366 0 0 1 62.903 56.685l-32.549 9.143q-6.948-36.571-40.228-36.571t-36.572 28.16q-2.194 18.285 41.326 28.16c50.469 10.24 73.143 31.817 73.143 65.463s-27.063 57.05-68.023 59.61z"/></svg>