<svg xmlns="http://www.w3.org/2000/svg" xmlns:xlink="http://www.w3.org/1999/xlink" width="1024" height="1024"><path d="M387.617 921.465H192.848c-42.379 0-76.848-34.471-76.848-76.846V179.368c0-42.379 34.469-76.848 76.848-76.848h548.89c42.375 0 76.871 34.469 76.871 76.848v189.496c0 7.062-5.73 12.797-12.793 12.797s-12.797-5.735-12.797-12.797V179.368c0-28.25-23.004-51.258-51.281-51.258h-548.89c-28.25 0-51.258 23.008-51.258 51.258v665.251c0 28.25 23.008 51.256 51.258 51.256h194.793c7.066 0 12.797 5.73 12.797 12.793s-5.731 12.797-12.821 12.797zm0 0"/><path d="M672.617 335.649H261.941c-7.062 0-12.793-5.734-12.793-12.797 0-7.062 5.731-12.793 12.793-12.793h410.676c7.063 0 12.793 5.731 12.793 12.793 0 7.063-5.73 12.797-12.793 12.797zM476.57 528.805H261.941c-7.062 0-12.793-5.734-12.793-12.797 0-7.062 5.731-12.792 12.793-12.792H476.57c7.063 0 12.793 5.731 12.793 12.792 0 7.062-5.73 12.797-12.793 12.797zm-42.019 193.129h-172.61c-7.062 0-12.793-5.729-12.793-12.793 0-7.061 5.731-12.797 12.793-12.797h172.61c7.063 0 12.793 5.736 12.793 12.797 0 7.064-5.707 12.793-12.793 12.793zm358.651-109.526h16.033l6.415 13.512c7.479-4.504 14.963-9.011 22.446-13.512v13.512h-3.208v20.271c-7.608.679-7.934 1.401-12.826 3.378 2.265 6.31 3.184 13.211 3.207 23.648-2.137-1.124-4.279-2.249-6.416-3.378-5.184 4.39 3.507 6.36-9.618 10.136v6.759h-9.619c-3.889 7.186-7.224 7.354-9.622 16.891-11.623 2.471-14.124 8.397-22.445 13.512v-10.134h3.208v-10.136h-6.415c-2.137 8.424-7.609 15.268-12.826 20.27h-6.414c-3.087 3.503 2.98 3.293 3.207 3.38 3.654 3.849.011 1.346 6.413 3.378v6.758h6.413l3.206-6.758 16.033 3.378v6.758h-9.617c-5.082 9.287-7.925 6.072-9.622 20.274 7.662 4.594 10.739 9.631 12.829 20.268h6.41c-1.065 3.378-2.137 6.756-3.207 10.134h3.207v3.378h-3.207v3.379c.431 1.262 10.974 4.798 6.415 16.895-2.137 1.126-4.275 2.25-6.415 3.376v10.136h-3.203c-2.978 5.13-2.609 8.255-3.207 16.892h-6.416v6.758h-6.413c-2.261 10.432-6.248 14.371-16.033 16.893v3.375H729.07v6.76c-6.11-3.339.691-1.976-3.207-6.76h-3.207v6.76c-4.561 4.135-19.291 5.522-25.655 6.756v3.379c8.505 7.697 4.999 9.242 3.208 20.273-5.345 1.121-10.688 2.251-16.033 3.376v-13.512c3.206-1.129 6.414-2.254 9.622-3.381-1.07-3.378-2.14-6.757-3.208-10.135l-22.448-3.379v-10.138c-13.744-2.435-19.995-.239-38.48 0v13.517h-3.206c-6.006-9.218-3.854-3.209-12.826-6.757-2.595-4.441-2.259-3.979-6.413-6.76v-3.375h3.207c.123-1.339-2.832-7.582-3.207-13.515h-9.62c1.438-10.571 2.364-10.286 6.414-16.891h3.206c3.611-8.693-2.188-17.678-3.206-23.648-3.651 3.849-1.278.012-3.206 6.754-8.784-2.177-7.3-4.419-16.032-6.754-5.109 6.434-11.989 9.121-22.45 10.134-3.026-6.088-4.438-5.321-6.411-13.515-5.346-1.125-10.688-2.251-16.033-3.379v6.76c-5.965-1.938-8.26-1.394-3.207-6.76l-22.445-3.376c-1.071-2.254-2.141-4.505-3.209-6.759l-6.413-3.379c-8.031-11.52-4.602-17.676-22.446-20.27-3.336-13.228-9.02-11.731-9.621-30.405 2.14 1.125 4.277 2.252 6.414 3.379v-20.271h-3.207c1.069-2.254 2.139-4.505 3.207-6.758h-3.207c-7.285-9.393-8.723-1.973-9.618-20.269h-6.413v-6.756c2.137 1.124 4.275 2.251 6.413 3.375v-10.134c-5.511-3.808-4.347-2.138-6.413-10.136 7.094-4.026 9.581-7.871 19.238-10.136v6.758l32.066-6.758c3.438-13.853 7.987-8.47 3.209-23.648h9.618v-3.375c2.137 1.121 4.278 2.25 6.415 3.375v-6.758l6.412-3.378v-3.377c2.441-4.026-.259-.297 3.207-3.378 4.029 6.45 3.25 5.603 12.828 6.755v-10.133h3.205c3.738-4.599 5.852-5.162 12.825-6.757 4.012 15.871 13.736 13.453 16.036 33.783-3.653 3.849-1.279.012-3.207 6.757 16.321 2.795 25.705 10.257 28.858 27.027 9.62 1.126 19.239 2.25 28.859 3.38v3.378h6.414v3.379c5.345 1.124 10.689 2.251 16.033 3.375v3.383c3.208-1.129 6.417-2.255 9.62-3.383v-3.375h22.448l6.411-10.137h6.414c.977-1.384-5.161-7.603-3.205-13.514h3.205v-3.378c13.29 5 12.468-.181 25.654-3.381v-6.755c6.413-1.124 12.825-2.252 19.239-3.379-1.067-3.378-2.139-6.757-3.207-10.136-12.272.981-14.721 4.422-19.239 0h-3.207c1.07-5.63 2.139-11.261 3.207-16.891h12.828c1.067-3.376 2.138-6.757 3.204-10.135h3.207v-6.758h3.207c2.201-6.492-1.672-10.311-3.207-13.514h3.207c5.6-6.922 12.991-6.965 25.651-6.758 5.501 10.695 13.084 16.617 16.035 30.41zm-9.62 222.977c2.139 1.125 4.275 2.252 6.412 3.378-2.137 10.134-4.273 20.271-6.412 30.406h-3.207c-4.431-8.826-5.672-5.72-6.41-20.272 3.907-3.34 7.147-8.751 9.617-13.512zm0 0"/><defs><path id="a" d="M505.797 461.973h291.289v133.664H505.797z"/></defs><clipPath id="b"><use xlink:href="#a" overflow="visible"/></clipPath><path clip-path="url(#b)" d="M776.062 484.935l-63.885 24.119-80.532-43.101c-9.565-4.31-9.86-5.137-16.592-2.599l-28.665 10.836c-8.913 3.305-4.664 6.406 8.946 21.196l40.325 42.599-101.345 38.259c10.095 1.535 71.439 6.199 85.375.976l167.324-63.206c8.03-3.01 12.074-11.985 9.065-20.044-3.043-8.032-12.016-12.074-20.016-9.035zm-191.563 65.98l-34.068-17.713c-10.095-5.372-13.99-5.344-29.077.354l-15.557 5.877 29.431 30.081 49.271-18.599zm0 0"/><path d="M707.218 595.197l21.847-15.559 20.665 15.559h-42.512zm0 0"/></svg>