<svg xmlns="http://www.w3.org/2000/svg" width="48" height="48"><path d="M42.909 27.627A17.742 17.742 0 0 0 38.81 13.42a17.746 17.746 0 0 0-13.438-6.164c-9.795.004-17.731 7.949-17.727 17.745 0 1.031.089 2.061.268 3.075 1.694 9.647 10.889 16.096 20.536 14.401l.534 2.854a21.198 21.198 0 0 1-3.61.316C13.98 45.647 4.745 36.402 4.745 25c0-11.403 9.235-20.649 20.628-20.649C36.767 4.352 46 13.598 46 25.001c0 .967-.064 1.936-.201 2.894l-2.89-.268zm-14.996 15.03a1.45 1.45 0 1 1 1.446 2.513 1.45 1.45 0 0 1-1.446-2.513zm14.989-14.833a1.45 1.45 0 0 1 2.707-.724 1.45 1.45 0 0 1-1.265 2.173 1.447 1.447 0 0 1-1.445-1.449h.003zm2.11 8.543a1.461 1.461 0 0 1 0 2.058l-4.558 4.561c-.569.571-1.028.379-1.028-.42V38.82h-5.429a1.454 1.454 0 0 1 0-2.908h5.429v-3.686c0-.798.466-.985 1.028-.423l4.558 4.569v-.005z"/><path d="M32.315 15.544l-5.149 8.759h4.056v1.937h-4.725v2.664h4.725v1.963h-4.725v3.883h-2.432v-3.883h-4.9v-1.963h4.9V26.24h-4.9v-1.937h4.181l-5.099-8.759h2.742c2.382 4.35 3.829 7.108 4.343 8.274h.049c.173-.48.649-1.447 1.427-2.902l2.914-5.372h2.593z"/></svg>