<svg class="icon" viewBox="0 0 1030 1024" xmlns="http://www.w3.org/2000/svg" width="201.172" height="200"><defs><style/></defs><path d="M995.837 751.198h-11.13V150.08h11.13c18.45 0 33.4-14.955 33.4-33.395 0-18.445-14.95-33.395-33.4-33.395H38.515C20.07 83.29 5.12 98.24 5.12 116.685c0 18.44 14.95 33.395 33.395 33.395h11.132v601.118H38.515c-18.445 0-33.395 14.945-33.395 33.39s14.95 33.39 33.395 33.39h434.134v66.8h-77.92c-18.445 0-33.395 14.945-33.395 33.39s14.95 33.39 33.395 33.39h222.629c18.45 0 33.4-14.945 33.4-33.39s-14.95-33.39-33.4-33.39h-77.92v-66.8h456.399c18.45 0 33.4-14.945 33.4-33.39s-14.95-33.39-33.4-33.39zm-879.402 0V150.08h801.483v601.118H116.435zm646.093-450.349L557.874 505.504l-110.205-110.2c-8.692-8.692-22.787-8.692-31.482 0l-173.172 173.17c-8.692 8.7-8.692 22.795 0 31.48 8.7 8.7 22.795 8.7 31.487 0l157.427-157.42 110.2 110.205c8.695 8.685 22.79 8.685 31.485 0l220.394-220.404c8.69-8.695 8.69-22.79 0-31.487-8.69-8.691-22.79-8.691-31.48.001z"/></svg>