<svg class="icon" viewBox="0 0 1024 1024" xmlns="http://www.w3.org/2000/svg" width="500" height="500"><defs><style/></defs><path d="M855.604 580.144V472.827c0-151.45-109.07-278.67-256.59-314.52v-1.81c0-50.921-38.22-92.199-85.37-92.199-47.145 0-85.368 41.278-85.368 92.198v2.103C281.363 194.842 172.88 321.783 172.88 472.825v88.31h-.074C174.57 670.141 87.235 691.52 87.235 750.36s47.696 81.797 106.54 81.797h149.013C344.87 903.04 420.76 960.02 514.081 960.02c93.32 0 169.21-56.978 171.29-127.863H834c58.842 0 106.545-22.957 106.545-81.797 0-55.24-77.28-77.708-84.94-170.216zM514.186 916.961c-70.88 0-128.335-37.293-128.335-83.301 0-.503.015-1.002.03-1.502h256.613c.013.5.03 1 .03 1.502-.002 46.007-57.46 83.301-128.338 83.301zm383.862-163.29c-2.666 27.628-39.147 36.426-62.1 36.426H192.012c-17.58 2.39-62.765-6.2-62.098-35.828v-7.523c.588-26.75 66.307-49.552 85.193-144.29v-41.319h-.676v-80.935c0-145.37 111.339-265.626 256.209-285.727v-35.963c0-28.412 19.15-51.443 42.774-51.443 23.624 0 42.772 23.031 42.772 51.443v35.918c145.034 19.96 256.547 140.29 256.547 285.773v80.935h-.25v37.26h.33c.863 68.06 84.568 124.622 85.236 145.087v10.186z"/><path d="M850.49 561.327h-.075v-88.31c0-151.043-108.483-277.984-255.396-314.226v-2.103c0-50.921-38.222-92.198-85.369-92.198-47.148 0-85.37 41.277-85.37 92.198v1.81c-147.52 35.85-256.589 163.07-256.589 314.52v107.318c-7.66 92.507-84.94 114.977-84.94 170.22 0 58.84 47.704 81.796 106.546 81.796h148.627c2.082 70.886 77.972 127.863 171.29 127.863 93.322 0 169.212-56.977 171.294-127.863h149.014c58.842 0 106.54-22.957 106.54-81.797-.002-58.844-87.338-80.223-85.573-189.228zM509.11 917.153c-70.88 0-128.337-37.294-128.337-83.302 0-.502.016-1.002.03-1.502h256.613c.014.5.03 1 .03 1.502 0 46.007-57.455 83.302-128.336 83.302zm384.271-162.695c.667 29.628-44.518 38.217-62.098 35.828H187.347c-22.953 0-59.433-8.796-62.1-36.426v-10.188c.667-20.465 84.373-77.026 85.236-145.087h.331v-37.26h-.251V480.39c0-145.482 111.512-265.812 256.547-285.773V158.7c0-28.412 19.148-51.443 42.772-51.443s42.774 23.031 42.774 51.443v35.964c144.87 20.1 256.21 140.357 256.21 285.726v80.935h-.677v41.32c18.886 94.737 84.604 117.537 85.193 144.29v7.524z"/></svg>