<svg class="icon" viewBox="0 0 1024 1024" xmlns="http://www.w3.org/2000/svg" width="200" height="200"><defs><style/></defs><path d="M620.313 913.691L220.932 683.64H102.745c-19.437 0-35.248-15.826-35.248-35.263V375.666c0-19.451 15.812-35.269 35.248-35.269h118.186L620.313 110.31v803.381zM102.745 373.394a2.272 2.272 0 0 0-2.257 2.271v272.712c0 1.214 1.03 2.257 2.257 2.257h127.016l357.547 205.961V167.398L229.761 373.394H102.745z"/><path d="M625.313 922.342L219.595 688.64h-116.85c-22.193 0-40.248-18.062-40.248-40.263V375.666c0-22.205 18.055-40.269 40.248-40.269h116.848l405.719-233.738v820.683zM102.745 345.396c-16.679 0-30.248 13.579-30.248 30.269v272.711c0 16.687 13.569 30.263 30.248 30.263h119.523l1.159.667L615.312 905.04V118.96L222.268 345.396H102.745zm489.563 519.849L228.424 655.634H102.745c-4.001 0-7.257-3.255-7.257-7.257V375.665c0-4.009 3.255-7.271 7.257-7.271h125.678l363.884-209.646v706.497zm-486.82-219.611h125.609l1.159.667 350.051 201.644V176.05L231.098 378.394h-125.61v267.24z"/><path d="M208.857 356.891h32.992v310.245h-32.992V356.891z"/><path d="M246.849 672.136h-42.992V351.891h42.992v320.245zm-32.992-10h22.992V361.891h-22.992v300.245zm521.383-29.98l-14.373-29.704c37.843-18.28 61.342-55.602 61.342-97.431 0-41.834-23.499-79.171-61.313-97.437l14.33-29.712c48.578 23.442 79.989 73.353 79.989 127.148 0 54.61-30.651 103.327-79.975 127.136z"/><path d="M732.915 638.831l-18.728-38.705 4.505-2.176c36.095-17.436 58.517-53.044 58.517-92.929 0-39.897-22.411-75.508-58.488-92.934l-4.5-2.174 18.674-38.717 4.504 2.174c50.309 24.277 82.816 75.953 82.816 131.651 0 56.543-31.728 106.983-82.801 131.638l-4.499 2.172zm-5.414-34.148l10.026 20.72c44.967-23.697 72.688-69.375 72.688-120.381 0-50.219-28.374-96.93-72.698-120.388l-9.993 20.718c36.944 19.823 59.686 57.568 59.686 99.67-.001 42.088-22.749 79.83-59.709 99.661z"/><path d="M791.067 762.231l-13.696-30.028c88.776-40.482 146.141-129.653 146.141-227.168 0-95.421-55.616-183.773-141.657-225.102l14.274-29.741c97.438 46.772 160.375 146.805 160.375 254.842.001 110.408-64.925 211.357-165.437 257.197z"/><path d="M788.593 768.855l-17.846-39.127 4.55-2.074c87-39.673 143.215-127.056 143.215-222.619 0-93.499-54.491-180.088-138.822-220.595l-4.506-2.164 18.602-38.755 4.508 2.164c99.146 47.593 163.211 149.394 163.211 259.35.001 112.358-66.085 215.1-168.361 261.745l-4.551 2.075zm-4.618-34.222l9.548 20.934c96.14-45.962 157.982-143.747 157.981-250.531 0-104.462-59.913-201.303-153.051-248.13l-9.949 20.73c85.216 43.043 140.008 131.748 140.008 227.399 0 97.8-56.568 187.37-144.537 229.598z"/></svg>