<svg class="icon" viewBox="0 0 1024 1024" xmlns="http://www.w3.org/2000/svg" width="200" height="200"><defs><style/></defs><path d="M771.876 901.652H660.54c-61.475 0-111.329-49.838-111.329-111.329v-111.33c0-61.48 49.854-111.328 111.33-111.328h111.334c61.48 0 111.33 49.848 111.33 111.329v111.33c0 61.485-49.85 111.328-111.33 111.328zm55.65-222.663c0-30.74-24.915-55.65-55.65-55.65H660.54c-30.735 0-55.67 24.91-55.67 55.65v111.33c0 30.75 24.935 55.68 55.67 55.68h111.335c30.735 0 55.65-24.93 55.65-55.68v-111.33zm-55.65-556.641c61.48 0 111.33 49.848 111.33 111.329V345.01c0 61.481-49.85 111.33-111.33 111.33H660.54c-61.475 0-111.329-49.844-111.329-111.33V233.677c0-61.481 49.854-111.33 111.33-111.33m166.983 111.33c0-30.74-24.914-55.665-55.65-55.665H660.542c-30.735 0-55.67 24.92-55.67 55.665V345.01c0 30.74 24.935 55.665 55.67 55.665h111.335c30.735 0 55.65-24.924 55.65-55.665V233.677zM326.538 901.652H215.22c-61.486 0-111.334-49.838-111.334-111.329v-111.33c0-61.48 49.848-111.328 111.334-111.328h111.32c61.5 0 111.344 49.848 111.344 111.329v111.33c0 61.485-49.838 111.328-111.345 111.328zm55.675-222.663c0-30.74-24.914-55.65-55.675-55.65H215.22c-30.745 0-55.67 24.91-55.67 55.65v111.33c0 30.75 24.92 55.68 55.67 55.68h111.32c30.76 0 55.674-24.93 55.674-55.68v-111.33zm-55.675-556.641c61.502 0 111.345 49.848 111.345 111.329V345.01c0 61.481-49.843 111.33-111.345 111.33H215.22c-61.486 0-111.334-49.844-111.334-111.33V233.677c0-61.481 49.848-111.33 111.334-111.33m166.994 111.33c0-30.74-24.914-55.665-55.675-55.665H215.22c-30.745 0-55.67 24.92-55.67 55.665V345.01c0 30.74 24.92 55.665 55.67 55.665h111.32c30.76 0 55.674-24.924 55.674-55.665V233.677z"/></svg>