<svg class="icon" viewBox="0 0 1024 1024" xmlns="http://www.w3.org/2000/svg" width="200" height="200"><defs><style/></defs><path d="M941.59 896.267H125.567V80.177c0-12.018-9.71-21.665-21.664-21.665a21.613 21.613 0 0 0-21.666 21.665v837.751c0 11.933 9.67 21.667 21.666 21.667H941.59c11.974 0 21.666-9.734 21.666-21.667 0-12.015-9.69-21.661-21.666-21.661"/><path d="M204.97 704.832c6.369 0 12.696-2.793 16.99-8.208l165.431-208.446 204.847 204.89c4.487 4.486 10.75 6.941 16.926 6.347 6.263-.507 12.018-3.64 15.742-8.632l258.205-344.869c7.194-9.563 5.248-23.104-4.359-30.298-9.562-7.194-23.146-5.246-30.337 4.316L605.271 644.744 400.89 440.361c-4.401-4.315-10.156-6.77-16.588-6.262-6.178.338-11.933 3.302-15.741 8.125L188.025 669.71c-7.449 9.309-5.883 23.02 3.469 30.465 4.04 3.132 8.758 4.657 13.477 4.657"/></svg>