<?xml version="1.0" encoding="utf-8"?>
<!-- Generator: Adobe Illustrator 16.0.0, SVG Export Plug-In . SVG Version: 6.00 Build 0)  -->
<!DOCTYPE svg PUBLIC "-//W3C//DTD SVG 1.1//EN" "http://www.w3.org/Graphics/SVG/1.1/DTD/svg11.dtd">
<svg version="1.1" id="图层_1" xmlns="http://www.w3.org/2000/svg" xmlns:xlink="http://www.w3.org/1999/xlink" x="0px" y="0px"
	 width="500px" height="500px" viewBox="0 0 500 500" enable-background="new 0 0 500 500" xml:space="preserve">
<path fill="#fff" d="M206.276,190.854c-0.013,28.155,22.801,50.991,50.957,51.005c28.155,0.013,50.991-22.801,51.004-50.957
	c0-0.016,0-0.033,0-0.048c0.014-28.156-22.801-50.992-50.956-51.005c-28.156-0.013-50.991,22.801-51.005,50.957
	C206.276,190.822,206.276,190.838,206.276,190.854z"/>
<path fill="#fff" d="M129.476,295.817h244.227c10.742-0.032,19.442-8.732,19.476-19.476V103.585
	c-0.024-10.749-8.728-19.458-19.476-19.491h-52.586l-16.055-24.476c-1.535-2.338-4.498-4.154-6.664-4.154h-90.493
	c-2.166,0-5.055,1.816-6.487,4.154l-15.006,24.476h-56.936c-10.743,0.033-19.443,8.733-19.476,19.476v172.757
	C110.024,287.076,118.728,295.785,129.476,295.817L129.476,295.817z M349.975,117.154c7,0.011,12.665,5.694,12.654,12.693
	c-0.012,7-5.694,12.665-12.693,12.654c-6.994-0.011-12.657-5.685-12.654-12.679c0-7,5.675-12.674,12.674-12.674L349.975,117.154z
	 M257.257,261.605c-39.075,0-70.751-31.676-70.751-70.751c0-39.075,31.676-70.751,70.751-70.751s70.752,31.676,70.752,70.751l0,0
	C328.009,229.929,296.332,261.605,257.257,261.605z"/>
<path fill="#fff" d="M220.309,361.677c-1.204,3.277-4.146,5.601-7.614,6.01c-26.898-1.673-52.171-5.006-74.896-9.696
	c-68.655-13.919-114.915-40.113-114.915-70.137c0-20.878,22.365-39.901,59.062-54.238c0.113-0.197,0.227-0.389,0.349-0.586
	C34.75,251.196,5.057,276.967,5.057,305.548c0,50.006,90.892,91.403,209.351,98.53c2.745,1.133,4.782,3.512,5.478,6.398
	l-0.295,34.06l63.93-56.021l-62.965-55.455L220.309,361.677z M429.847,237.326c0.049,0.153,0.089,0.31,0.133,0.463
	c25.077,11.231,41.899,24.885,47.249,39.803c1.548,3.655,2.355,7.582,2.377,11.552c0,38.72-78.522,70.993-182.664,78.258v36.008
	c113.636-8.756,199.552-49.219,199.552-97.861C496.474,279.162,471.155,255.168,429.847,237.326L429.847,237.326z"/>
</svg>
