<svg class="icon" viewBox="0 0 1025 1024" xmlns="http://www.w3.org/2000/svg" width="200.195" height="200"><defs><style/></defs><path d="M954.742 919.779l-198.085-197.98c28.4-32.03 51.218-68.14 67.936-107.666 20.543-48.572 30.96-100.153 30.96-153.312s-10.417-104.74-30.96-153.311c-19.838-46.903-48.232-89.02-84.396-125.183-36.161-36.162-78.279-64.557-125.182-84.394-48.57-20.544-100.152-30.96-153.311-30.96s-104.74 10.416-153.31 30.96c-46.903 19.837-89.02 48.232-125.183 84.394s-64.557 78.28-84.395 125.183c-20.543 48.57-30.96 100.152-30.96 153.311s10.417 104.74 30.96 153.312c19.838 46.903 48.232 89.02 84.395 125.182 36.163 36.162 78.28 64.558 125.182 84.396 48.571 20.543 100.153 30.96 153.312 30.96s104.74-10.417 153.311-30.96c39.188-16.575 75.02-39.146 106.845-67.207L920 954.539a24.49 24.49 0 0 0 17.371 7.192 24.5 24.5 0 0 0 17.38-7.202c9.593-9.599 9.59-25.156-.01-34.75zM461.705 805.524c-92.073 0-178.636-35.855-243.741-100.96S117.002 552.895 117.002 460.822s35.856-178.635 100.962-243.74S369.632 116.12 461.704 116.12s178.637 35.855 243.743 100.961 100.96 151.668 100.96 243.741-35.855 178.636-100.96 243.742-151.67 100.96-243.742 100.96z"/></svg>