<svg class="icon" viewBox="0 0 1025 1024" xmlns="http://www.w3.org/2000/svg" width="200.195" height="200"><defs><style/></defs><path d="M614.058 993.832H399.106a24.573 24.573 0 0 1-23.833-18.587L350.475 876.5l-85.407 54.724c-9.624 6.166-22.228 4.884-30.412-3.097L82.223 779.506c-8.376-8.167-9.833-21.106-3.483-30.932l59.394-91.897-99.005-18.862c-11.59-2.208-19.974-12.342-19.974-24.14v-210.85c0-11.5 7.975-21.46 19.196-23.977l106.083-23.794-54.341-79.272c-6.717-9.797-5.463-22.998 2.98-31.356l151.5-149.996a24.575 24.575 0 0 1 30.01-3.562l88.01 53.25 23.16-93.535a24.574 24.574 0 0 1 23.853-18.666H624.54a24.572 24.572 0 0 1 23.873 18.75l23.812 97.63 84.215-47.738a24.574 24.574 0 0 1 29.132 3.647l153.901 147.68c8.485 8.142 10.012 21.156 3.643 31.04L886.12 371.38l98.21 22.852c11.128 2.59 19.004 12.507 19.004 23.933v210.853c0 11.867-8.48 22.037-20.153 24.172l-101.439 18.548 56.139 80.73c6.858 9.862 5.581 23.237-3.02 31.623L782.404 932.745a24.575 24.575 0 0 1-29.534 3.634l-93.646-54.609-21.208 92.956c-2.55 11.177-12.492 19.106-23.957 19.106zM418.27 944.686h176.19l24.29-106.46a24.573 24.573 0 0 1 36.336-15.762l106.392 62.042 124.168-121.072-66.044-94.974a24.573 24.573 0 0 1 15.754-38.202l118.83-21.73v-170.85l-113.196-26.34a24.577 24.577 0 0 1-15.088-37.243l64.93-100.767-126.08-120.986-96.579 54.746a24.575 24.575 0 0 1-35.99-15.555L605.24 81.063H428.837l-26.56 107.262a24.57 24.57 0 0 1-36.574 15.118l-100.169-60.607-123.305 122.08 63.259 92.28a24.574 24.574 0 0 1-14.89 37.871L68.3 422.497v170.845l114.88 21.886a24.572 24.572 0 0 1 16.038 37.478L130.934 758.36 254.99 879.313l97.74-62.626a24.572 24.572 0 0 1 37.09 14.705l28.452 113.294z"/><path d="M513.431 706.032c-107.08 0-194.198-87.117-194.198-194.198 0-107.08 87.117-194.198 194.198-194.198S707.63 404.753 707.63 511.834s-87.118 194.198-194.2 194.198zm0-339.25c-79.981 0-145.051 65.07-145.051 145.051s65.07 145.052 145.051 145.052 145.052-65.07 145.052-145.052-65.07-145.052-145.052-145.052z"/></svg>