<svg class="icon" viewBox="0 0 1025 1024" xmlns="http://www.w3.org/2000/svg" width="200.195" height="200"><defs><style/></defs><path d="M567.472 821.41a24.573 24.573 0 0 1-24.568-24.573V627.708c-29.786 2.079-83.528 7.617-145.686 22.262-55.144 12.99-106.047 30.51-151.293 52.068-55.849 26.61-103.141 59.469-140.563 97.663a24.572 24.572 0 1 1-41.874-20.703c.354-2.458 9.061-61.056 42.625-136.625 19.692-44.336 43.952-85.48 72.103-122.294 35.209-46.039 76.62-85.377 123.09-116.93 9.492-7.12 109.304-80.01 241.598-99.935V153.476a24.574 24.574 0 0 1 40.811-18.444l364.754 321.139a24.572 24.572 0 0 1 .032 36.86L583.746 815.252a24.565 24.565 0 0 1-16.274 6.157zm.005-244.078a24.571 24.571 0 0 1 24.573 24.573v140.436l303.03-267.695-303.03-266.794v117.024c0 12.612-9.547 23.176-22.096 24.448-132.768 13.45-238.417 92.577-239.468 93.374a25.9 25.9 0 0 1-1.094.786c-42.29 28.637-80.019 64.452-112.136 106.45-25.814 33.756-48.097 71.57-66.227 112.389a599.585 599.585 0 0 0-19.759 50.54c28.352-20.624 59.822-39.183 94.154-55.496 48.56-23.075 102.962-41.75 161.693-55.509 99.705-23.357 176.846-24.488 180.082-24.524.092-.002.186-.002.278-.002z"/></svg>