<?xml version="1.0" standalone="no"?><!DOCTYPE svg PUBLIC "-//W3C//DTD SVG 1.1//EN" "http://www.w3.org/Graphics/SVG/1.1/DTD/svg11.dtd"><svg t="1530754122200" class="icon" style="" viewBox="0 0 1024 1024" version="1.1" xmlns="http://www.w3.org/2000/svg" p-id="10604" xmlns:xlink="http://www.w3.org/1999/xlink" width="500" height="500"><defs><style type="text/css"></style></defs><path d="M983.201684 421.726316c-3.772632-22.528-24.090947-45.541053-45.271579-50.553263l-15.791158-3.880421a159.528421 159.528421 0 0 1-90.920421-76.853895 178.283789 178.283789 0 0 1-16.707368-123.418948l4.904421-15.845052c6.359579-21.989053-1.886316-52.277895-18.432-67.368421 0 0-14.874947-13.365895-56.589474-39.127579-41.876211-25.653895-59.823158-32.821895-59.823158-32.821895-20.372211-7.922526-48.882526-0.323368-63.757473 16.545684l-10.994527 12.611369a150.474105 150.474105 0 0 1-107.789473 45.702737A151.066947 151.066947 0 0 1 393.754947 40.636632L383.245474 28.402526C368.532211 11.533474 339.860211 4.042105 319.434105 11.856842c0 0-18.216421 7.168-60.038737 32.87579-41.876211 25.923368-56.589474 39.343158-56.589473 39.343157-16.491789 14.874947-24.737684 44.894316-18.324211 67.098948l4.473263 16.060631a178.499368 178.499368 0 0 1-16.707368 123.203369 158.558316 158.558316 0 0 1-91.513263 77.069474l-15.252211 3.664842c-20.857263 5.173895-41.391158 27.917474-45.271579 50.553263 0 0-3.449263 20.372211-3.449263 72.003368 0 51.631158 3.449263 71.949474 3.449263 71.949474 3.772632 22.797474 24.090947 45.594947 45.271579 50.607158l14.874948 3.664842c38.804211 12.126316 71.68 39.882105 91.621052 77.285053 20.857263 38.804211 25.869474 82.997895 16.761263 123.418947l-4.311579 15.629474c-6.359579 21.989053 1.886316 52.277895 18.432 67.368421 0 0 14.874947 13.365895 56.589474 39.127579 41.876211 25.761684 59.877053 32.821895 59.877053 32.821894 20.318316 7.922526 48.882526 0.323368 63.757473-16.545684l10.401685-11.964631a150.096842 150.096842 0 0 1 216.764631 0.107789l10.401684 12.018526c14.659368 16.815158 43.331368 24.306526 63.757474 16.49179 0 0 18.216421-7.168 60.092632-32.821895 41.822316-25.761684 56.481684-39.181474 56.481684-39.181474 16.545684-14.821053 24.791579-45.109895 18.432-67.368421l-4.527158-16.222315a177.205895 177.205895 0 0 1 16.707368-122.772211 159.636211 159.636211 0 0 1 91.621053-77.285053l14.928842-3.664842c20.857263-5.173895 41.391158-27.917474 45.271579-50.553263 0 0 3.449263-20.372211 3.449263-72.003368-0.215579-51.631158-3.664842-72.111158-3.664842-72.111158zM501.975579 700.631579c-106.711579 0-193.428211-92.537263-193.428211-206.901895a212.722526 212.722526 0 0 1 56.42779-145.893052 188.308211 188.308211 0 0 1 137.054316-60.685474c106.711579 0 193.374316 92.429474 193.374315 206.794105C695.242105 608.094316 608.633263 700.631579 501.975579 700.631579z" p-id="10605"></path></svg>