<?xml version="1.0" standalone="no"?><!DOCTYPE svg PUBLIC "-//W3C//DTD SVG 1.1//EN" "http://www.w3.org/Graphics/SVG/1.1/DTD/svg11.dtd"><svg t="1530754084193" class="icon" style="" viewBox="0 0 1027 1024" version="1.1" xmlns="http://www.w3.org/2000/svg" p-id="9221" xmlns:xlink="http://www.w3.org/1999/xlink" width="501.46484375" height="500"><defs><style type="text/css"></style></defs><path d="M1009.297575 725.615894H588.847244c-9.041943 0-18.083885-11.302428-18.083885-24.865342v-58.772627c0-13.562914 6.781457-24.865342 18.083885-24.865342h420.450331c9.041943 0 18.083885 11.302428 18.083885 24.865342V700.750552c-2.260486 13.562914-9.041943 24.865342-18.083885 24.865342z m0 149.192053H588.847244c-9.041943 0-18.083885-11.302428-18.083885-24.865342V791.169978c0-13.562914 6.781457-24.865342 18.083885-24.865342h420.450331c9.041943 0 18.083885 11.302428 18.083885 24.865342v58.772627c-2.260486 13.562914-9.041943 24.865342-18.083885 24.865342z m0 149.192053H588.847244c-9.041943 0-18.083885-11.302428-18.083885-24.865342v-58.772627c0-13.562914 6.781457-24.865342 18.083885-24.865342h420.450331c9.041943 0 18.083885 11.302428 18.083885 24.865342v58.772627c-2.260486 13.562914-9.041943 24.865342-18.083885 24.865342z m-452.09713-474.701987h74.596027c2.260486-11.302428 4.520971-24.865342 4.520971-36.16777 0-81.377483-72.335541-149.192053-155.97351-140.150111-63.293598 6.781457-115.284768 58.772627-122.066225 122.066226-9.041943 83.637969 56.512141 155.97351 140.15011 155.97351V610.331126c-2.260486-33.907285 24.865342-61.033113 58.772627-61.033113z" fill="#010101" p-id="9222"></path><path d="M283.681681 513.130243c0-117.545254 97.200883-214.746137 214.746137-214.746137s214.746137 97.200883 214.746137 214.746137c0 13.562914-2.260486 24.865342-2.260486 36.16777H905.315235c2.260486-11.302428 2.260486-24.865342 2.260486-36.16777 0-15.8234 0-33.907285-2.260486-49.730685l61.033113-47.470198c27.125828-18.083885 36.16777-54.251656 20.344371-83.637969l-90.419426-151.452539c-9.041943-13.562914-22.604857-24.865342-38.428256-29.386313-15.8234-4.520971-31.646799-2.260486-45.209713 4.520971l-70.075056 29.386313C717.694926 165.015453 688.308613 146.931567 656.661814 135.629139l-11.302429-74.596026c0-33.907285-27.125828-61.033113-61.033112-61.033113H408.008392c-33.907285 0-61.033113 27.125828-63.293598 58.772627L335.672851 135.629139c-31.646799 13.562914-58.772627 29.386313-85.898455 49.730684L179.699341 155.97351C150.313028 140.15011 114.145257 151.452539 96.061372 180.838852L7.902432 332.291391c-15.8234 29.386313-6.781457 65.554084 22.604856 83.637969l58.772627 47.470198c-2.260486 18.083885-2.260486 33.907285-2.260485 49.730685s0 31.646799 2.260485 49.730684L28.246803 610.331126c-29.386313 18.083885-36.16777 54.251656-20.344371 83.637969l88.15894 151.452539c9.041943 13.562914 22.604857 24.865342 38.428256 29.386313 15.8234 4.520971 31.646799 2.260486 45.209713-4.520971l70.075055-29.386314c27.125828 20.344371 54.251656 36.16777 85.898455 49.730685l11.302428 74.596026c2.260486 33.907285 29.386313 58.772627 63.293599 58.772627H498.427818V727.87638c-119.80574 0-214.746137-97.200883-214.746137-214.746137z" fill="#010101" p-id="9223"></path></svg>