<svg xmlns="http://www.w3.org/2000/svg" viewBox="0 0 300 300"><path d="M210.1 156.8h-22.4v-16.3h14.4L234 108h11l35.8 36.6-41.3 42.2-29.4-30zm29.4-31.4l-18.8 19.2 18.8 19.2 18.8-19.2-18.8-19.2zm-115.4 15.2H140v16.3h-15.9v-16.3zm47.8 0v16.3H156v-16.3h15.9zM234 91.7l-23.9-24.4h-71.2c-2.8 11.3-11.5 20.2-22.7 23.3v116.2c11.2 3.1 19.9 12 22.7 23.3h71.2l23.9-24.4h11l35.8 36.6-41.3 42.2-37.3-38.2H139c-4.4 17.4-21.7 27.8-38.7 23.4-17-4.5-27.2-22.2-22.9-39.5 2.8-11.4 11.6-20.3 22.9-23.4v-50h-16v-16.3h15.9v-50C83.2 86.1 73 68.3 77.3 51 81.7 33.7 99 23.2 116 27.6c11.2 2.9 20 11.9 22.9 23.4h63.2l37.3-38.2L280.7 55 245 91.7h-11zm5.5 169.8l18.8-19.2-18.8-19.2-18.8 19.2 18.8 19.2zM92.3 238.2c0 9 7.1 16.3 15.9 16.3 8.9-.1 16-7.4 15.9-16.3.1-8.9-7-16.2-15.9-16.3-8.9.1-16 7.4-15.9 16.3zm15.9-195.3c-8.9.1-16 7.4-15.9 16.3 0 9 7.1 16.3 15.9 16.3 8.9-.1 16-7.4 15.9-16.3.1-8.9-7-16.2-15.9-16.3zm131.3-7l-18.8 19.2 18.8 19.2 18.8-19.2-18.8-19.2zm-195 145.3c-17.6 0-31.8-14.6-31.8-32.5s14.2-32.5 31.8-32.5 31.8 14.6 31.8 32.5c.1 18-14.2 32.5-31.8 32.5zm0-48.8c-8.9.1-16 7.4-15.9 16.3 0 9 7.1 16.3 15.9 16.3 8.9-.1 16-7.4 15.9-16.3.2-8.9-6.9-16.2-15.9-16.3.1 0 .1 0 0 0z"/></svg>