<svg class="icon" viewBox="0 0 1024 1024" xmlns="http://www.w3.org/2000/svg" width="500" height="500"><defs><style/></defs><path d="M765.952 154.624H61.44c-33.638 0-61.184 27.546-61.184 61.184v592.64c0 33.638 27.546 61.184 61.133 61.184h694.477c33.587 0 61.132-27.546 61.132-61.184v-144.23c0-9.012 10.906-13.517 17.306-7.168l154.624 154.726a18.944 18.944 0 0 0 32.256-13.312V225.792a18.893 18.893 0 0 0-32.256-13.312L834.304 367.104a10.138 10.138 0 0 1-17.306-7.117V205.722a51.2 51.2 0 0 0-51.046-51.098zM306.534 690.842V351.795c0-7.987 8.807-12.8 15.565-8.499l251.75 160.307a10.086 10.086 0 0 1 0 17.05L306.587 690.842z"/></svg>