<?xml version="1.0" encoding="utf-8"?>
<!-- Generator: Adobe Illustrator 20.0.0, SVG Export Plug-In . SVG Version: 6.00 Build 0)  -->
<svg version="1.1" id="图层_1" xmlns="http://www.w3.org/2000/svg" xmlns:xlink="http://www.w3.org/1999/xlink" x="0px" y="0px"
	 viewBox="0 0 300.5 300.5" style="enable-background:new 0 0 300.5 300.5;" xml:space="preserve">
<path d="M272.9,96.2h-11.3l-43.8-75.8c-7.3-12.6-23.4-16.9-36-9.7L151.9,28L123.5,5.7c-5.6-4.2-12.6-6-19.5-4.9
	c-7,1-13.1,4.7-17.3,10.3L21.6,96.9C9.8,99.5,1,110,1,122.6v151.1C1,288.2,12.8,300,27.3,300h245.4c14.5,0,26.3-11.8,26.3-26.3v-151
	C299.2,108,287.4,96.2,272.9,96.2L272.9,96.2z M189.3,23.6c5.4-3.2,12.5-1.3,15.6,4.2l36.7,63.6H71.7L189.3,23.6z M98.7,20
	c1.8-2.5,4.5-4,7.5-4.5c3-0.4,6,0.3,8.3,2L138,36L46.4,88.8L98.7,20z M284.3,223.6H221c-14.1,0-25.6-11.5-25.6-25.6
	s11.5-25.6,25.6-25.6h63.4L284.3,223.6L284.3,223.6L284.3,223.6z M221,157.5c-22.3,0-40.5,18.2-40.5,40.5s18.2,40.5,40.5,40.5h63.4
	v35c0,6.3-5.1,11.4-11.4,11.4H69.7v-21.8H55.6v21.8H27.5c-6.3,0-11.4-5.1-11.4-11.4v-151c0-6.3,5.1-11.4,11.4-11.4h28.1v22.3h14.1
	v-22.3h203.2c6.3,0,11.4,5.1,11.4,11.4v35L221,157.5L221,157.5z"/>
<path d="M55.5,146.6h14.1v25.5H55.5V146.6z M55.5,185.5h14.1V211H55.5V185.5z M55.5,224.3h14.1v25.5H55.5V224.3z M202.1,198
	c0,10.4,8.5,18.9,18.9,18.9s18.9-8.5,18.9-18.9s-8.5-18.9-18.9-18.9C210.5,179.1,202.1,187.6,202.1,198z"/>
<path d="M162.3,126.9c-2.7,0-5.4,0.7-7.8,1.9c-9.6,5.1-18.1,8.9-18.6,9.1c-0.2,0.1-0.4,0.1-0.5,0.1c-11.6-1.4-23.3-2.9-34.9-4.4
	c-1.6,0-3.1,0.6-4.2,1.7c-1.1,0.8-2.2,1.7-3.4,2.6c-0.9,0.5-1.2,1.5-0.7,2.4c0.2,0.4,0.6,0.7,1,0.9l18.6,9.4c1.2,0.7,0.5,1.8,0,2.2
	l-9.9,4.7c-0.3,0.1-0.6,0.1-0.9,0c-4-1.9-9.4-3.3-12.7-4.5c-1.8-0.7-3.8-0.2-5.1,1.2c-0.6,0.7-1,1.5-1.1,2.4s0.2,1.8,0.9,2.4
	l11.2,10.3c1.2,0.9,2.7,1.3,4.2,1c2.8-0.1,4.5-0.2,7.2-0.4c1.6-0.1,3.1-0.6,4.5-1.3c20.6-10.8,59.1-32.2,59.1-32.2
	c3-1.8,3.5-4.3,2.2-5.9C168.9,128.1,165.7,126.8,162.3,126.9"/>
<g>
	<path d="M177,40.3l9,21.3l-3.3,1.4l-7.4-17.4c-0.8,1.8-2,3.4-3.8,4.8l-1.4-3.2c0.9-0.6,1.7-1.5,2.5-2.5c0.8-1.1,1.4-2.2,1.7-3.2
		L177,40.3z"/>
	<path d="M196.4,34.8c2.1,1.4,3.8,3.8,5.2,7.1c1.4,3.3,1.9,6.2,1.5,8.7c-0.5,2.7-2,4.6-4.5,5.6c-2.5,1.1-4.9,0.8-7.2-0.7
		c-2.1-1.4-3.8-3.8-5.2-7.1c-1.4-3.3-1.9-6.2-1.5-8.7c0.5-2.7,2-4.6,4.5-5.6C191.7,33.1,194.1,33.3,196.4,34.8z M187.9,41.4
		c0,1.5,0.5,3.4,1.5,5.8c1,2.3,2,4,3.1,5.1c1.5,1.6,3.2,2.1,4.9,1.3c1.8-0.7,2.6-2.2,2.5-4.5c-0.1-1.6-0.6-3.5-1.5-5.8
		c-1-2.3-2-4-3.1-5.1c-1.5-1.6-3.2-2.1-4.9-1.3C188.6,37.6,187.8,39.1,187.9,41.4z"/>
</g>
<g>
	<path d="M102.6,30.4c1.1-0.1,2.2,0.2,3.1,1c0.9,0.8,1.4,1.8,1.6,3.2c0.1,0.8,0,2-0.2,3.6c-0.2,1.8-0.2,3,0.2,3.8l4.6-5.2l1.4,1.2
		l-6.3,7.2c-1-0.9-1.6-2.1-1.8-3.4c-0.1-0.7-0.1-2.1,0.2-4c0.1-1.2,0.2-2,0.1-2.5c-0.1-0.9-0.5-1.7-1.1-2.2s-1.2-0.7-1.7-0.7
		c-0.6,0.1-1.1,0.4-1.7,1c-0.6,0.7-0.8,1.4-0.6,2.1c0.1,0.7,0.6,1.5,1.4,2.2l-1.4,1.6c-1.2-1-1.8-2.2-1.9-3.5
		c-0.2-1.3,0.2-2.6,1.2-3.7C100.5,31.1,101.5,30.5,102.6,30.4z"/>
	<path d="M111.2,22c1.5,0.2,3.1,1.1,4.7,2.5c1.6,1.4,2.6,2.9,3.1,4.3c0.4,1.6,0.1,3-1,4.2s-2.4,1.7-4.1,1.5
		c-1.5-0.2-3.1-1.1-4.7-2.5c-1.6-1.4-2.7-2.9-3.1-4.3c-0.4-1.6-0.1-3,1-4.2C108.2,22.2,109.6,21.7,111.2,22z M108.3,27.7
		c0.4,0.8,1.2,1.7,2.3,2.7s2.1,1.7,3,2c1.3,0.5,2.3,0.3,3-0.6c0.8-0.9,0.8-1.9,0.2-3.1c-0.5-0.8-1.2-1.8-2.3-2.7c-1.1-1-2.1-1.6-3-2
		c-1.3-0.5-2.3-0.3-3,0.6S107.7,26.5,108.3,27.7z"/>
</g>
</svg>
