<svg class="icon" viewBox="0 0 1024 1024" xmlns="http://www.w3.org/2000/svg" width="500" height="500"><defs><style/></defs><path d="M873.045 136.96c23.936 3.456 44.502 27.435 41.088 51.413v493.142c0 30.848-68.522 116.48-130.133 174.677-82.219 75.35-274.005 164.395-280.832 167.808h-6.827c-10.325-3.413-198.656-92.459-280.874-167.808-61.654-58.24-130.134-143.83-130.134-174.677V188.373c0-27.392 20.566-48 44.502-51.413L503.168 0l369.877 136.96zM612.78 585.643l-68.523 3.413v-61.653a143.872 143.872 0 0 0 106.155-140.374 144.725 144.725 0 0 0-143.83-143.872 144.725 144.725 0 0 0-143.829 143.83 143.83 143.83 0 0 0 106.155 140.416v239.744c0 20.565 17.109 34.261 34.261 34.261 17.11 0 34.219-17.152 34.219-34.261V660.992h75.349c20.565 0 34.261-17.152 34.261-37.675 0-20.565-17.109-37.674-34.261-37.674z"/></svg>