<svg class="icon" viewBox="0 0 1024 1024" xmlns="http://www.w3.org/2000/svg" width="300" height="300"><defs><style/></defs><path d="M586.438 234.127c9.53 0 58.887-90.002 69.796-104.325 3.74-4.97 4.533-6.103 1.68-9.68-3.005-3.673-9.34-2.662-16.426-.628-13.23 3.891-29.628.191-48.073-5.161-36.987-10.677-90.358-25.614-111.78 13.421-2.103 3.741-.655.983 3.482 5.53 11.264 12.493 58.627 100.83 68.307 100.83l33.014.013zm181.535 326.247l-82.262 38.98-4.45 1.693c-5.858-10.39-15.77-17.244-29.601-17.244h-83.954c-19.224 0-48.483-27.99-71.64-27.99h-82.233c-33.792 0-64.007 27.69-81.033 43.527a205815.326 205815.326 0 0 0-79.121 79.367l128.573 128.737c21.04-21.04 45.794-41.82 67.27-41.82h167.84c26.215 0 52.266-8.041 70.78-26.555l139.195-139.182 39.554-98.905c-24.084-24.112-79.135 1.68-98.918 59.392zM647.537 662.979H542.269a39.827 39.827 0 0 1-37.478-26.57 39.062 39.062 0 0 0 34.243 20.016H641.98c21.572 0 39.062-16.944 39.062-37.847 0-14.336-8.315-26.651-20.453-33.082a39.786 39.786 0 0 1 26.87 37.56 39.922 39.922 0 0 1-39.922 39.923zm-437.89-21.108l-83.913 83.913L321.55 921.6l83.913-83.913L209.647 641.87zm16.67 81.756l-35.716-35.731 15.305-15.305 35.73 35.717-15.318 15.319z"/><path d="M780.438 392.629c-11.85-50.64-36.932-103.71-149.094-171.663-36.605-22.214-83.45-16.876-106.578-4.52C409.573 278.064 384.15 341.99 372.299 392.643c-3.127 13.393-7.318 35.744-7.36 60.648a217.757 217.757 0 0 0 21.737 94.658c8.656-3.454 17.75-5.734 27.17-5.734h82.193c23.184 0 52.456 27.976 71.653 27.976h83.954c13.831 0 23.757 6.853 29.6 17.257l4.506-1.706 77.183-36.591a217.853 217.853 0 0 0 22.282-95.942c-.014-26.529-1.611-47.145-4.779-60.58zm-141.667 2.348l-12.028 27.362h-30.27v11.14h40.223l-9.953 27.28h-30.27v24.14l-30.72 11.25v-35.39H527.06v-27.28h38.693v-11.14H527.06v-27.362h34.338l-51.87-72.158h34.257l38.707 50.64 34.393-51.063h34.447l-50.244 72.581h37.683zM253.406 262.663h-28.55v-28.536h-26.883v28.536h-28.549v26.883h28.55v28.55h26.883v-28.55h28.549zm140.192-97.908H365.05v-28.536h-26.883v28.536h-28.55v26.883h28.55v28.55h26.883v-28.55h28.55z"/></svg>