<svg class="icon" viewBox="0 0 1024 1024" xmlns="http://www.w3.org/2000/svg" width="500" height="500"><defs><style/></defs><path d="M905.28 143.296L756.352 11.136A33.216 33.216 0 0 0 732.224.384H142.912c-19.072 0-34.56 16.704-34.56 37.184v849.344c0 9.984 3.712 20.032 10.56 26.752l104.32 95.424c18.432 14.592 38.144 6.016 47.872 0l106.56-96.384 110.464 100.416c20.16 13.184 30.208 10.496 47.872 0l110.528-100.416 110.528 100.416c9.792 7.104 15.424 10.496 24 10.496s15.296-3.968 24-10.496l100.032-90.816a38.848 38.848 0 0 0 10.624-26.624V169.6a38.912 38.912 0 0 0-10.432-26.304zm-44.16 753.856l-68.352 64.768-115.328-94.208c-16.832-13.504-33.984-13.504-50.048 0L512.128 961.92 396.8 867.712c-9.088-6.72-15.936-10.624-24.96-10.624-9.088 0-16.128 4.032-25.024 10.624l-107.008 94.08-77.12-73.344V54.208h557.44v100.736c0 12.8 9.728 23.232 21.696 23.232H861.12v718.976zm-70.784-469.248a13.44 13.44 0 0 0-5.952-8.384l-111.552-69.504a13.312 13.312 0 0 0-10.112-1.664 13.056 13.056 0 0 0-8.448 5.952l-181.12 291.2 25.344 108.928 109.056-25.344 181.12-291.072a13.824 13.824 0 0 0 1.664-10.112zM520.768 717.76l-14.016-60.48 74.496 46.528-60.48 13.952zm129.408-421.824c-21.696-113.152-376.64-113.472-407.296-.448v325.568c7.616 54.656 97.408 69.312 188.48 73.344v-48.128c-125.504-3.776-138.24-33.216-138.304-44.48v-86.464s20.544 43.52 157.312 43.52c8.96 0 28.736-.192 44.864-.64V501.76c-16.128.448-35.904.768-44.864.768-142.912.64-157.184-53.568-157.248-65.6v-75.392s15.36 38.016 152.128 38.016c136.768 0 172.992-39.744 172.992-39.744s39.104-26.56 31.936-63.872zm-204.288 59.84c-90.432-1.6-134.272-23.744-131.648-50.56 1.92-20.48 42.24-54.208 131.648-52.992s145.664 20.8 147.712 51.008c1.856 28.608-56.064 54.208-147.712 52.544z"/></svg>