<svg class="icon" viewBox="0 0 1024 1024" xmlns="http://www.w3.org/2000/svg" width="500" height="500"><defs><style/></defs><path d="M512 312.889c68.267 0 125.156-56.889 125.156-125.156S585.956 56.89 512 56.89c-68.267 0-125.156 56.889-125.156 125.155S443.734 312.89 512 312.89zM295.822 688.356c-34.133-62.578-113.778-79.645-176.355-45.512-28.445 17.067-51.2 45.512-56.89 79.645-11.377 34.133-5.687 68.267 11.38 96.711 34.133 62.578 113.777 79.644 176.355 45.511 28.445-17.067 51.2-45.511 56.889-79.644 11.378-34.134 5.689-68.267-11.378-96.711zm546.134-62.578c-45.512 0-85.334 22.755-108.09 62.578-17.066 28.444-22.755 62.577-11.377 96.71 11.378 34.134 28.444 62.578 56.889 79.645 17.066 11.378 39.822 17.067 62.578 17.067 45.51 0 85.333-22.756 108.088-62.578 17.067-28.444 22.756-62.578 11.378-96.711s-28.444-62.578-56.889-79.645c-22.755-11.377-39.822-17.066-62.577-17.066zM671.289 250.31c119.467 62.58 193.421 193.423 187.733 329.957 0 17.066 11.378 34.133 28.445 34.133s28.444-11.378 34.133-28.444c5.689-85.334-17.067-170.667-62.578-244.623-39.822-62.577-96.71-113.777-159.289-147.91-5.689-5.69-17.066-5.69-22.755 0-5.69 0-17.067 5.688-17.067 17.066-5.689 5.689-5.689 17.067 0 22.755 0 5.69 5.689 11.378 11.378 17.067zm-534.756 358.4c17.067 0 34.134-17.067 34.134-34.133-11.378-136.534 62.577-261.69 182.044-324.267 17.067-5.689 22.756-28.444 11.378-45.511-5.689-17.067-22.756-22.756-39.822-11.378C256 227.556 204.8 278.756 164.977 341.333c-45.51 73.956-68.266 159.29-62.577 238.934 0 17.066 17.067 28.444 34.133 28.444zm557.511 238.933c-56.888 34.134-119.466 51.2-182.044 51.2-68.267 0-130.844-17.066-187.733-51.2-11.378-5.688-22.756-5.688-34.134 0-5.689 5.69-11.377 17.067-11.377 28.445s5.688 22.755 17.066 28.444c136.534 85.334 307.2 85.334 438.045 0 5.689-5.689 11.377-11.377 17.066-22.755s0-17.067-5.689-22.756c-5.688-5.689-11.377-11.378-22.755-17.066-11.378 0-17.067 0-28.445 5.688z"/></svg>