<svg class="icon" viewBox="0 0 1024 1024" xmlns="http://www.w3.org/2000/svg" width="200" height="200"><defs><style/></defs><path d="M909.155 449.567h-39.796c-18.18 0-37.455-14.22-42.899-31.598l-22.77-55.398c-8.55-16.06-5.107-39.694 7.745-52.6l28.214-28.101c12.906-12.957 12.906-34.007 0-46.852l-46.858-46.745c-12.899-12.903-33.952-12.903-46.8 0l-28.208 28.105c-12.848 12.844-36.536 16.401-52.6 7.745l-55.336-22.77c-17.33-5.39-31.604-24.72-31.604-42.9V118.71c0-18.18-14.913-33.096-33.09-33.096H479.02c-18.23 0-33.147 14.92-33.147 33.096v39.741c0 18.238-14.158 37.567-31.6 42.954l-55.395 22.719c-16.06 8.598-39.636 5.096-52.538-7.745l-28.215-28.157c-12.848-12.909-33.901-12.909-46.749 0l-46.79 46.74c-12.906 12.898-12.906 33.948 0 46.796l28.095 28.157c12.913 12.899 16.408 36.533 7.803 52.596l-22.828 55.46c-5.39 17.377-24.71 31.597-42.895 31.597h-39.684c-18.244 0-33.157 14.858-33.157 33.089v66.133c0 18.234 14.913 33.089 33.096 33.089h39.745c18.186.058 37.45 14.281 42.84 31.652l22.883 55.401c8.544 16.05 5.11 39.8-7.803 52.586l-28.153 28.106c-12.848 12.96-12.848 34.003 0 46.858l46.848 46.797c12.848 12.899 33.905 12.899 46.75 0l28.214-28.16c12.79-12.845 36.417-16.343 52.418-7.687l55.515 22.77c17.442 5.451 31.6 24.72 31.6 42.906v39.567c0 18.176 14.917 33.096 33.15 33.096h66.13c18.126 0 33.09-14.916 33.09-33.096v-39.567c0-18.19 14.274-37.465 31.607-42.906l55.45-22.77c15.998-8.656 39.748-5.158 52.592 7.687l28.04 28.16c12.907 12.899 33.96 12.899 46.804 0l46.859-46.797c12.899-12.903 12.899-33.96 0-46.858l-28.222-28.106c-12.848-12.786-16.285-36.536-7.745-52.586l22.774-55.401c5.448-17.374 24.778-31.598 42.889-31.598h39.751c18.125 0 33.038-14.854 33.038-33.088v-66.188c.116-18.231-14.797-33.09-32.925-33.09zm-251.945 66.13c0 80.172-64.925 145.063-145.043 145.063-80.162 0-145.09-64.891-145.09-145.063 0-80.132 64.976-145.07 145.09-145.07s145.043 64.938 145.043 145.07z"/></svg>