<svg xmlns="http://www.w3.org/2000/svg" viewBox="0 0 200 200"><path d="M141.9 138.9h-23.4c.2 0 .3-.1.3-.3v-13c0-.1 0-.2-.1-.2h2.7c-1-1-1.4-2.7-.6-4.1l3.2-5.6H38.3V32.8h112.8V72l1.9-3.3c1.3-2.3 4.6-2.3 5.9 0l1.9 3.3V27.2c0-2.3-1.9-4.1-4.1-4.1H33c-.3 0-.6 0-.9.1-2 .3-3.5 2-3.5 4.1V121c0 1.4.7 2.7 1.8 3.4.7.5 1.6.8 2.5.8H70c-.1.1-.1.1-.1.2v13c0 .2.1.3.3.3H45.8c-.2 0-.3.1-.3.3v13c0 .2.1.3.3.3h96.1c.2 0 .3-.1.3-.3v-13s-.2-.1-.3-.1z"/><path d="M58.2 72.7h11.7v24.2H58.2V72.7zm24-12.2h11.7v36.3H82.2V60.5zM106 48.4h12.3v48.4H106V48.4zm73.7 50.1h-4.9c-.4-1.6-1.1-3.1-1.9-4.6l3.4-3.4c.6-.6.6-1.7 0-2.3l-5.6-5.6c-.3-.3-.7-.5-1.1-.5-.4 0-.8.2-1.1.5l-3.4 3.4c-1.4-.8-3-1.4-4.6-1.9v-4.9c0-.9-.7-1.6-1.6-1.6H151c-.9 0-1.6.7-1.6 1.6v4.9c-1.6.4-3.1 1.1-4.6 1.9l-3.4-3.4c-.3-.3-.7-.5-1.1-.5-.4 0-.8.2-1.1.5l-5.6 5.6c-.6.6-.6 1.7 0 2.3l3.4 3.4c-.8 1.4-1.4 3-1.9 4.6h-4.9c-.9 0-1.6.7-1.6 1.6v7.9c0 .9.7 1.6 1.6 1.6h4.9c.4 1.6 1.1 3.1 1.9 4.6l-3.4 3.4c-.6.6-.6 1.7 0 2.3l5.6 5.6c.3.3.7.5 1.1.5.4 0 .8-.2 1.1-.5l3.4-3.4c1.4.8 3 1.4 4.6 1.9v4.9c0 .9.7 1.6 1.6 1.6h7.9c.9 0 1.6-.7 1.6-1.6V124c1.6-.4 3.1-1.1 4.6-1.9l3.4 3.4c.3.3.7.5 1.1.5.4 0 .8-.2 1.1-.5l5.6-5.6c.6-.6.6-1.7 0-2.3l-3.4-3.4c.8-1.4 1.4-3 1.9-4.6h4.9c.9 0 1.6-.7 1.6-1.6v-7.9c0-.9-.7-1.6-1.6-1.6zm-10.9 10.4c-.3 1.1-.8 2.2-1.3 3.2l-2 3.5-3.5 2c-1 .6-2 1-3.2 1.3l-3.9 1.1-3.9-1.1c-1.1-.3-2.2-.8-3.2-1.3l-3.5-2-2-3.5c-.6-1-1-2-1.3-3.2l-1.1-3.9 1.1-3.9c.3-1.1.8-2.2 1.3-3.2l2-3.5 3.5-2c1-.6 2-1 3.2-1.3l3.9-1.1 3.9 1.1c1.1.3 2.2.8 3.2 1.3l3.5 2 2 3.5c.6 1 1 2 1.3 3.2l1.1 3.9-1.1 3.9zM155 94.2c-5.4 0-9.9 4.4-9.9 9.9 0 5.4 4.4 9.9 9.9 9.9 5.4 0 9.9-4.4 9.9-9.9s-4.4-9.9-9.9-9.9zm0 13.5c-2 0-3.6-1.6-3.6-3.6s1.6-3.6 3.6-3.6 3.6 1.6 3.6 3.6c0 1.9-1.6 3.6-3.6 3.6z"/></svg>