<svg id="图层_1" xmlns="http://www.w3.org/2000/svg" viewBox="0 0 250 250"><style>.st0{display:none}</style><path d="M229 30.7c-3.5-3.5-8.2-5.5-13.2-5.5H34.2c-5 0-9.7 2-13.2 5.5S15.5 39 15.5 44v132c0 4.9 2 9.8 5.5 13.3s8.2 5.5 13.2 5.5h83v14.6H58.4c-4.2 0-7.7 3.5-7.7 7.7s3.5 7.7 7.7 7.7h133.3c4.2 0 7.7-3.5 7.7-7.7s-3.5-7.7-7.7-7.7h-58.8v-14.6h83c5 0 9.7-2 13.2-5.5s5.5-8.3 5.5-13.3V43.9c-.1-4.9-2.1-9.8-5.6-13.2zM31 175.8V43.9c0-1.8 1.5-3.3 3.3-3.3h181.5c1.8 0 3.3 1.5 3.3 3.3v131.9c0 1.8-1.5 3.3-3.3 3.3H34.3c-1.8 0-3.3-1.5-3.3-3.3z"/><path class="st0" d="M111.9 79.9h-2.7c-1.1 0-2 1.1-2 2.2s.9 2.2 2 2.2h4.2v1.5h-4.2c-1.1 0-2 1.1-2 2.2s.9 2.2 2 2.2h4.2v3c0 1.1 1.1 2 2.2 2s2.2-.9 2.2-2v-3h4.9c1.1 0 2-1.1 2-2.2s-.9-2.2-2-2.2h-4.9v-1.5h4.9c1.1 0 2-1.1 2-2.2s-.9-2.2-2-2.2H120l5.1-5c.7-.7.7-2 0-2.8-.7-.7-2-.7-2.8 0l-6.3 6.3-6.3-6.3c-.7-.7-2-.7-2.8 0-.7.7-.7 2 0 2.7 0 .1 5 5.1 5 5.1z"/><path class="st0" d="M168.1 120.5V79.7c0-3.2-2.3-5.7-5.5-5.7h-17.8v-6c0-3.2-2.3-5.7-5.5-5.7H91.7c-2.8 0-5.2 2.3-5.2 5.2v53c-2.9 0-5.8 2.6-5.8 5.8v24.1c0 2.8 2.3 5.2 5.2 5.2h82.9c2.8 0 5.2-2.3 5.2-5.2v-24.1c-.1-3.2-2.3-5.8-5.9-5.8zm-5.8-40.6v40.8h-5.8V79.9h5.8zm-12.1 0h.4v40.8h-5.8V79.9h5.4zM92.3 68.2H139v52.4h-.7c-1 0-1.9.7-2.1 1.7-.8 4-4.4 6.9-8.6 6.9-4.2 0-7.7-2.9-8.6-6.9-.1-.9-1-1.7-2-1.7H92.3V68.2z"/><path class="st0" d="M101.4 103.2h29.1c1.6 0 2.9-1.3 2.9-2.9s-1.3-2.9-2.9-2.9h-29.1c-1.6 0-2.9 1.3-2.9 2.9 0 1.6 1.3 2.9 2.9 2.9zm32 8.7c0-1.6-1.3-2.9-2.9-2.9h-29.1c-1.6 0-2.9 1.3-2.9 2.9s1.3 2.9 2.9 2.9h29.1c1.7.1 2.9-1.3 2.9-2.9z"/><path d="M168.8 121.6c.1.8.1 1.7-.1 2.9-.2 1.1-.5 2.3-1 3.4-.5 1.2-1 2.2-1.7 3.1-.7.9-1.4 1.6-2.2 2-.8.4-1.5.6-2.1.6-.6 0-1.2-.1-2-.4-.7-.2-1.5-.4-2.5-.5-1-.2-2-.2-3-.1s-2 .3-3.1.6c-1 .3-1.9.9-2.6 1.7-1.6 1.6-2.5 3.5-2.8 5.6-.3 2.1 0 4.1.9 6 .7 1.3.6 2.6-.3 4-.4.5-1 1.1-1.9 1.6-.9.6-1.8 1.1-2.8 1.5-1 .5-2.1.8-3.2 1.1-1.1.3-2.1.4-3 .4-.6 0-1.1-.2-1.7-.7-.5-.5-.9-1-1.1-1.5h-.1c-.7-2-2-3.8-3.7-5.3-1.7-1.5-3.8-2.2-6.1-2.2-2.2 0-4.3.7-6.1 2.2-1.8 1.5-3.1 3.2-3.8 5.2-.3.8-.8 1.4-1.5 1.7-.6.4-1.4.5-2.2.5-.9 0-2-.2-3.1-.5-1.2-.3-2.3-.7-3.5-1.2s-2.2-1.1-3.1-1.7c-.9-.7-1.6-1.3-2.1-2-.3-.5-.5-1-.5-1.6 0-.6.2-1.5.7-2.6.7-1.5 1-3.2.8-5.2-.2-1.9-1-3.7-2.5-5.4-.9-1-2-1.6-3.4-1.9-1.3-.3-2.6-.4-3.7-.3-1.4.1-2.8.3-4.2.8-.9.3-1.8.2-2.8-.2-.7-.3-1.4-.9-2-1.8-.6-1-1.2-2-1.7-3.2-.5-1.2-.9-2.3-1.1-3.6-.3-1.2-.3-2.2-.2-3 .2-1.4.9-2.4 2-2.8 2-.8 3.7-2.1 5.3-3.9 1.6-1.8 2.4-3.8 2.4-6.1s-.8-4.3-2.4-6c-1.6-1.7-3.4-3-5.3-3.8-.6-.2-1.1-.7-1.5-1.4-.4-.8-.6-1.5-.6-2.3 0-.9.1-1.8.4-2.9.3-1.1.6-2.1 1-3.1s.9-1.9 1.5-2.7c.6-.8 1.2-1.4 1.8-1.8.5-.3 1-.5 1.5-.4.5.1 1 .2 1.6.4 2 .8 4 1 6.2.7 2.1-.3 4-1.2 5.7-2.8.8-.8 1.4-1.8 1.7-2.9.4-1.2.6-2.3.7-3.4.1-1.1.1-2.1 0-3.1-.1-.9-.2-1.6-.2-2-.1-.4-.2-.9-.3-1.4-.1-.5-.1-1 .1-1.4.4-.9 1.1-1.7 2.1-2.4s2.1-1.3 3.3-1.7c1.2-.5 2.3-.8 3.5-1 1.1-.2 2-.3 2.7-.3.9 0 1.5.3 2 .8s.8 1.1 1 1.7c.7 1.8 1.9 3.3 3.6 4.7 1.6 1.4 3.6 2 5.8 2 2.3 0 4.3-.6 6.1-1.9 1.8-1.3 3-2.9 3.7-4.9.3-.5.7-1.1 1.2-1.6.6-.6 1.1-.8 1.7-.8.9 0 1.9.1 3 .4 1.1.3 2.2.6 3.2 1.1 1.1.5 2 1.1 2.9 1.8.9.7 1.6 1.5 2.1 2.4.3.5.4 1.1.3 1.7-.1.6-.3 1.1-.4 1.3-.9 1.9-1.1 3.9-.8 6 .3 2.1 1.3 4 2.9 5.5 1.6 1.6 3.5 2.4 5.8 2.6 2.3.2 4.4-.2 6.4-1.1.5-.3 1.2-.5 1.9-.4.8.1 1.4.4 1.9.9 1 .9 1.9 2.3 2.6 4.2.8 1.9 1.3 3.8 1.5 5.7.1 1.1 0 2-.5 2.6-.5.6-1 1-1.5 1.2-2 .7-3.8 2-5.2 3.8-1.4 1.8-2.2 3.9-2.2 6.2 0 2.2.6 4.2 1.8 5.9 1.2 1.7 2.8 2.9 4.8 3.6.5.3.9.5 1.2.8 1.3.6 1.8 1.4 2.1 2.3zm-45.9 8.9c3 0 5.8-.6 8.4-1.7 2.6-1.1 4.9-2.7 6.9-4.6 1.9-2 3.5-4.3 4.6-6.9s1.7-5.4 1.7-8.3c0-3-.6-5.8-1.7-8.3-1.1-2.6-2.6-4.9-4.6-6.8-1.9-1.9-4.2-3.5-6.9-4.6-2.6-1.1-5.4-1.7-8.4-1.7s-5.7.6-8.3 1.7c-2.6 1.1-4.9 2.7-6.8 4.6-1.9 1.9-3.5 4.2-4.6 6.8-1.1 2.6-1.7 5.4-1.7 8.3s.6 5.7 1.7 8.3c1.1 2.6 2.7 4.9 4.6 6.9 1.9 2 4.2 3.5 6.8 4.6 2.6 1.1 5.3 1.7 8.3 1.7z"/></svg>