<svg class="icon" viewBox="0 0 1024 1024" xmlns="http://www.w3.org/2000/svg" width="500" height="500"><defs><style/></defs><path d="M948.023 423.752c-6.084-32.157-26.673-52.828-52.44-52.363h-3.586c-53.268 0-96.601-43.339-96.601-96.602 0-16.602 8.105-35.847 8.459-36.67 12.378-27.978 2.804-62.246-22.232-79.711l-1.06-.746c-.442-.315-.901-.6-1.371-.863L671.65 97.055a14.23 14.23 0 0 0-1.285-.633l-1.167-.514c-8.298-3.605-17.333-5.436-26.858-5.436-19.363 0-38.474 7.847-51.103 20.956-13.937 14.389-51.099 44.098-76.99 44.098-26.126 0-63.521-30.297-77.501-44.937C424.04 97.199 404.774 89.2 385.22 89.2c-9.344 0-18.219 1.764-26.368 5.242l-1.162.49a18.45 18.45 0 0 0-1.372.667l-111.337 61.163c-.47.257-.92.533-1.357.84l-1.095.76c-25.166 17.483-34.786 51.757-22.389 79.738 2.364 5.484 8.463 22.666 8.463 36.686 0 53.265-43.338 96.602-96.602 96.602h-3.579a49.27 49.27 0 0 0-.868-.009c-25.317 0-45.562 20.559-51.582 52.381-.946 5.033-9.263 50.231-9.263 87.12 0 36.89 8.317 82.084 9.268 87.131 6.021 31.814 26.28 52.368 51.606 52.368.278 0 .552-.004.833-.01H132c53.27 0 96.602 43.338 96.602 96.602 0 16.553-8.066 35.752-8.454 36.667-12.367 27.947-2.824 62.216 22.245 79.762l1.046.732c.411.285.839.552 1.274.8l105.497 58.993c.424.237.862.455 1.306.65l1.121.493c8.302 3.644 17.328 5.494 26.824 5.494 19.682 0 38.971-8.202 51.601-21.937 13.521-14.688 52.103-46.893 78.687-46.893 26.892 0 64.999 32.24 79.211 47.818 12.654 13.966 32.08 22.315 51.96 22.32h.006c9.32 0 18.19-1.788 26.353-5.314l1.138-.49c.46-.194.907-.417 1.343-.66l109.351-60.434c.466-.262.92-.542 1.361-.847l1.056-.742c25.109-17.499 34.706-51.738 22.347-79.69-.383-.896-8.482-20.147-8.482-36.725 0-53.265 43.338-96.602 96.601-96.602h3.595c.257.005.524.005.76.01 25.371-.005 45.649-20.56 51.66-52.338.093-.49 9.277-48.947 9.277-87.16.002-36.944-8.315-82.093-9.264-87.127zM918.09 592.345c-3.115 16.49-11.854 27.574-21.74 27.574l-.302-.004c-.106 0-.207-.005-.315-.005h-3.735c-70.064 0-127.063 56.998-127.063 127.057 0 23.336 10.57 47.868 11.022 48.9.015.029.029.063.043.096 6.492 14.625 1.274 33.262-11.903 42.447l-.42.29-107.996 59.687-.46.204c-4.335 1.87-9.147 2.819-14.296 2.819-11.423-.004-22.41-4.607-29.425-12.347-8.11-8.886-22.846-22.54-39.898-34.217-22.852-15.642-43.657-23.572-61.849-23.572-40.116 0-86.577 40.95-101.101 56.732-6.86 7.465-18.046 12.096-29.186 12.096-5.258 0-10.166-.984-14.577-2.921l-.447-.193-104.202-58.273-.407-.285c-13.127-9.19-18.316-27.861-11.8-42.53.11-.252 11.03-25.22 11.03-48.927 0-70.065-56.998-127.058-127.06-127.058h-4.068l-.349.009c-9.844 0-18.558-11.083-21.68-27.565-.358-1.894-8.737-46.767-8.737-81.477 0-34.714 8.38-79.588 8.738-81.468 3.116-16.494 11.82-27.573 21.65-27.573h.35c.116.004.236.004.358.004h3.739c70.06 0 127.06-56.999 127.06-127.059 0-23.117-10.219-47.061-11.065-48.996-6.493-14.63-1.261-33.261 11.912-42.413l.436-.304 109.968-60.404.473-.204c4.366-1.86 9.224-2.806 14.436-2.806 11.191 0 22.469 4.56 29.47 11.937 7.996 8.372 22.5 21.234 39.22 32.219 22.38 14.714 42.684 22.168 60.337 22.168 17.483 0 37.62-7.31 59.85-21.731 16.622-10.783 31.054-23.408 39.051-31.662 6.923-7.194 18.114-11.662 29.192-11.662 5.324 0 10.275.978 14.674 2.892l.47.209 106.203 59 .45.315c13.149 9.176 18.351 27.837 11.845 42.48-.112.254-11.046 25.11-11.046 48.963 0 70.06 57 127.06 127.058 127.06h3.74c.116 0 .228 0 .344-.005h.324c9.854 0 18.57 11.08 21.688 27.565.36 1.889 8.74 46.715 8.74 81.471 0 35.358-8.652 80.983-8.744 81.467zM510.115 346.16c-90.517 0-164.157 73.64-164.157 164.156s73.64 164.155 164.157 164.155c90.517 0 164.161-73.639 164.161-164.155 0-90.517-73.644-164.156-164.161-164.156zm0 297.856c-73.727 0-133.7-59.978-133.7-133.7 0-73.72 59.973-133.7 133.7-133.7 73.722 0 133.705 59.98 133.705 133.7 0 73.722-59.983 133.7-133.705 133.7zm0 0"/></svg>