<svg class="icon" viewBox="0 0 1024 1024" xmlns="http://www.w3.org/2000/svg" width="48" height="48"><defs><style/></defs><path d="M612.978 553.244l-85.334 85.334-136.533-136.534 79.645-79.644-39.823-39.822-79.644 79.644-79.645-79.644-96.71 96.71a261.689 261.689 0 0 0-22.756 347.023L21.333 962.844l39.823 39.823L192 871.822c45.511 39.822 102.4 56.89 159.289 56.89 68.267 0 136.533-28.445 187.733-79.645l96.711-96.711-73.955-73.956 85.333-85.333-34.133-39.823zM499.2 803.556c-39.822 39.822-91.022 62.577-142.222 62.577s-102.4-17.066-136.534-56.889l-5.688-5.688C140.8 729.6 140.8 604.444 220.444 524.8l51.2-51.2L550.4 752.356l-51.2 51.2zM999.822 69.689L960 29.867 834.844 149.333c-45.51-39.822-102.4-56.889-159.288-56.889-68.267 0-136.534 28.445-187.734 79.645l-96.71 91.022L760.888 632.89l91.022-91.022a261.689 261.689 0 0 0 22.756-347.023L999.822 69.69zM806.4 496.356l-45.511 45.51-278.756-278.755 45.511-45.511c39.823-39.822 91.023-62.578 142.223-62.578 51.2 0 102.4 17.067 136.533 56.89l5.689 5.688c79.644 73.956 73.955 199.111-5.689 278.756z"/></svg>