<svg class="icon" viewBox="0 0 1025 1024" xmlns="http://www.w3.org/2000/svg" width="200.195" height="200"><defs><style/></defs><path d="M131.34 423.017c-9.521 9.67-9.4 25.23.27 34.75 9.67 9.523 25.23 9.402 34.75-.268l320.724-325.741v798.397c0 13.571 11.001 24.573 24.573 24.573 13.572 0 24.573-11.002 24.573-24.573V135.522l315.807 320.552c9.524 9.668 25.085 9.784 34.751.26 9.668-9.525 9.784-25.084.26-34.751L552.304 81.813c-11.059-11.33-25.865-17.688-41.703-17.905a56.394 56.394 0 0 0-.832-.005c-15.56 0-30.237 5.958-41.412 16.831-.125.122-.25.246-.373.371L131.34 423.017z"/></svg>