<?xml version="1.0" standalone="no"?><!DOCTYPE svg PUBLIC "-//W3C//DTD SVG 1.1//EN" "http://www.w3.org/Graphics/SVG/1.1/DTD/svg11.dtd"><svg t="1530695731334" class="icon" style="" viewBox="0 0 1024 1024" version="1.1" xmlns="http://www.w3.org/2000/svg" p-id="13766" xmlns:xlink="http://www.w3.org/1999/xlink" width="500" height="500"><defs><style type="text/css"></style></defs><path d="M844.205101 211.183793 713.806215 211.183793l0 74.517157 74.513064 0c20.566408 0 37.258579 16.688077 37.258579 37.254485l0 409.834132c0 20.566408-16.692171 37.254485-37.258579 37.254485L266.717597 770.044054c-20.566408 0-37.259602-16.688077-37.259602-37.254485L229.457995 322.955436c0-20.566408 16.693194-37.254485 37.259602-37.254485l74.513064 0 0-74.517157-130.399909 0c-30.867008 0-55.885821 25.018813-55.885821 55.885821l0 521.605775c0 30.867008 25.018813 55.886845 55.885821 55.886845l633.374348 0c30.871101 0 55.890938-25.019837 55.890938-55.886845L900.096039 267.069615C900.096039 236.202607 875.076202 211.183793 844.205101 211.183793L844.205101 211.183793zM528.879436 159.693072 322.603419 365.964996l54.526871 54.527894 113.131617-113.131617L490.261906 653.350308c0 15.425318 12.519128 27.945469 27.944446 27.945469l18.627243 0c15.426341 0 27.941376-12.520151 27.941376-27.945469L564.774971 291.487747l129.340787 129.320321 52.683896-52.679803L547.490306 168.799474l-4.752234 4.752234L528.879436 159.693072 528.879436 159.693072z" p-id="13767"></path></svg>