<?xml version="1.0" standalone="no"?><!DOCTYPE svg PUBLIC "-//W3C//DTD SVG 1.1//EN" "http://www.w3.org/Graphics/SVG/1.1/DTD/svg11.dtd"><svg t="1530754014803" class="icon" style="" viewBox="0 0 1024 1024" version="1.1" xmlns="http://www.w3.org/2000/svg" p-id="7779" xmlns:xlink="http://www.w3.org/1999/xlink" width="500" height="500"><defs><style type="text/css"></style></defs><path d="M498.8 507.5c34.3 0 65.6 6.3 99.9 15.6l46.8-43.7-18.8-6.3 15.6-12.5C698.7 417 733 354.5 733 285.8 733 163.9 629.9 64 501.9 64s-231 99.9-231 221.8c0 68.7 31.2 131.2 90.5 174.9l15.6 12.5-25 3.1C202.1 535.6 102.2 673 102.2 829.2v78.1c0 15.6 12.5 28.1 28.1 28.1h322.2v-56.2h-291v-50c0-178.1 149.9-321.7 337.3-321.7zM323.9 282.6c0-90.5 78.1-165.5 174.9-165.5s174.9 75 174.9 165.5-78.1 165.5-174.9 165.5c-96.8 3.2-174.9-71.8-174.9-165.5z m387.7 257c-116.1 0-210.2 94.2-210.2 210.2S595.6 960 711.6 960s210.2-94.2 210.2-210.2-94.1-210.2-210.2-210.2z m0 367.9c-87 0-157.7-70.7-157.7-157.7s70.7-157.7 157.7-157.7 157.7 70.7 157.7 157.7-70.7 157.7-157.7 157.7z m26.3-168.6v-94.3c0-14.5-11.7-26.3-26.3-26.3-14.5 0-26.3 11.7-26.3 26.3v105.2c0 7.2 3 13.8 7.7 18.5l52.5 52.5c5.1 5.1 11.8 7.7 18.6 7.7 6.7 0 13.5-2.6 18.6-7.7 10.3-10.3 10.3-26.9 0-37.2l-44.8-44.7z" p-id="7780"></path></svg>