<?xml version="1.0" standalone="no"?><!DOCTYPE svg PUBLIC "-//W3C//DTD SVG 1.1//EN" "http://www.w3.org/Graphics/SVG/1.1/DTD/svg11.dtd"><svg t="1550455451882" class="icon" style="" viewBox="0 0 1024 1024" version="1.1" xmlns="http://www.w3.org/2000/svg" p-id="7575" xmlns:xlink="http://www.w3.org/1999/xlink" width="300" height="300"><defs><style type="text/css"></style></defs><path d="M278.566 181.202l0 786.519c31.062 16.037 63.923 28.853 98.319 38.183L376.885 337.898C376.886 268.955 336.681 209.378 278.566 181.202z" p-id="7576"></path><path d="M745.435 181.202l0 786.519c-31.023 16.037-63.923 28.853-98.318 38.183L647.117 337.898C647.115 268.955 687.282 209.378 745.435 181.202z" p-id="7577"></path><path d="M746.709 70.779c0-8.917-5.246-16.674-12.815-20.233l0.075-0.075C666.786 18.172 591.51 0 512 0c-79.585 0-154.86 18.21-222.043 50.583l0 0c-7.494 3.597-12.627 11.391-12.627 20.196 0 10.192 6.632 18.735 15.774 21.583l0 0.075c91.313 28.813 157.483 114.057 157.483 214.737l0 713.079c20.121 2.398 40.579 3.747 61.412 3.747 20.796 0 41.291-1.349 61.45-3.747L573.449 307.174c0-100.68 66.171-186.036 157.482-214.774l0-0.038C740.076 89.514 746.709 80.971 746.709 70.779z" p-id="7578"></path><path d="M161.812 478.746c14.801 5.321 30.875-0.637 38.969-13.414L200.781 105.514C78.705 199.075 0.019 346.404 0.019 511.981c0 165.614 78.687 312.794 200.762 406.467L200.781 558.631c-8.094-12.813-24.168-18.771-38.969-13.414-24.954 9.104-42.34 29.713-48.635 53.618-0.075 0.263-0.3 0.749-0.3 0.749-1.162 3.897-4.122 6.07-7.943 6.07-2.323 0-4.385-0.898-5.846-2.322-20.87-24.73-33.497-56.504-33.497-91.351 0-34.922 12.627-66.771 33.647-91.351 1.461-1.499 3.409-2.36 5.695-2.36 3.821 0 7.044 2.698 7.943 6.257l0-0.038c-0.338-1.313-0.6-2.66-0.899-4.009C117.148 446.372 135.171 469.079 161.812 478.746z" p-id="7579"></path><path d="M976.771 545.217c-25.181 9.254-42.642 29.787-48.785 53.993l-0.075 0.263c-0.824 3.56-4.047 6.183-7.943 6.183-2.811 0-5.433-1.424-6.895-3.709-20.233-24.394-32.448-55.681-32.448-89.964 0-34.173 12.215-65.534 32.448-90.001 1.462-2.173 4.01-3.709 6.895-3.709 3.747 0 6.97 2.623 7.794 6.107 0 0 0.112 0.188 0.149 0.188 6.106 24.206 23.681 44.889 48.86 54.181 17.16 6.145 35.896-2.698 42.114-19.634 0.824-2.173 1.35-4.459 1.574-6.596-16.262-141.108-89.964-264.833-197.127-347.002L823.332 918.45c107.163-82.17 180.865-205.895 197.127-346.966-0.226-2.248-0.75-4.423-1.574-6.596C1012.666 547.914 993.932 539.034 976.771 545.217z" p-id="7580"></path></svg>