<?xml version="1.0" standalone="no"?><!DOCTYPE svg PUBLIC "-//W3C//DTD SVG 1.1//EN" "http://www.w3.org/Graphics/SVG/1.1/DTD/svg11.dtd"><svg t="1550452672405" class="icon" style="" viewBox="0 0 1024 1024" version="1.1" xmlns="http://www.w3.org/2000/svg" p-id="3334" xmlns:xlink="http://www.w3.org/1999/xlink" width="300" height="300"><defs><style type="text/css"></style></defs><path d="M895.36 495.36C890.88 358.4 806.4 265.6 806.4 265.6c-130.56-152.96-297.6-138.88-297.6-138.88-178.56-5.76-288 130.56-288 130.56C145.28 346.88 136.96 430.08 136.96 430.08c-33.28 139.52 35.84 259.84 35.84 259.84 51.84 94.72 106.24 138.24 194.56 179.84 88.32 41.6 223.36 35.84 306.56-6.4 83.84-42.24 134.4-88.96 181.12-176.64C902.4 598.4 895.36 495.36 895.36 495.36zM472.96 812.16c0 0-140.16-7.68-217.6-144 0 0-66.56-96-39.04-215.68 27.52-119.68 92.16-167.68 104.96-179.84 12.8-12.16 95.36-62.08 151.68-60.8l0 142.72-59.52 0c0 0-80.64 5.12-83.84 95.36l0 131.84c0 0 1.92 80.64 85.76 90.24l57.6 0L472.96 812.16zM424.32 588.16c0 0-14.08 3.84-16-12.8L408.32 449.28c0 0 1.92-13.44 12.8-13.44l174.72 0c0 0 14.72-3.2 16 13.44l0 122.24c0 0 3.84 19.2-10.88 16.64L424.32 588.16zM765.44 680.32c-56.96 87.04-164.48 127.36-214.4 131.84L551.04 672l66.56 0c0 0 71.04-14.08 74.88-88.96L692.48 433.28c0 0-11.52-74.88-90.24-78.72L550.4 354.56 550.4 212.48c0 0 88.32 7.04 160 73.6 71.68 66.56 90.24 133.12 97.92 168.96C816 490.88 821.76 593.28 765.44 680.32z" p-id="3335"></path></svg>