<?xml version="1.0" standalone="no"?><!DOCTYPE svg PUBLIC "-//W3C//DTD SVG 1.1//EN" "http://www.w3.org/Graphics/SVG/1.1/DTD/svg11.dtd"><svg t="1550454993720" class="icon" style="" viewBox="0 0 1024 1024" version="1.1" xmlns="http://www.w3.org/2000/svg" p-id="4787" xmlns:xlink="http://www.w3.org/1999/xlink" width="300" height="300"><defs><style type="text/css"></style></defs><path d="M809.896714 767.843946c-60.409858 1.876744-116.209722 3.827165-176.563298 5.782703-38.184671 161.779593-354.464057 118.091582-319.257208-87.230714 17.73185-121.601522 183.015244-174.74693 285.479917-82.82845 22.548552 25.245987 33.55421 48.759517 40.856523 100.342336 50.608631-2.028193 118.884644-3.982708 169.484066-5.860475 2.597151-261.585717-296.151977-394.455887-520.178263-267.373537C74.975599 552.280402 99.804077 923.05289 324.767711 1017.787508l0 5.865591C202.067158 1021.222747 67.511603 926.663114 38.159088 814.348096l1.720178-603.25333c97.326653-65.840544 204.971301-144.859225 302.498522-210.747865 3.809769 2.000564 7.693216 3.866051 11.620665 5.866614-6.67605 90.856287-2.441609 240.748133 2.989077 350.252129 60.977793-58.934251 102.157681-120.555703 207.523427-140.997268 67.884087-13.161764 132.802632-5.190209 173.818791 8.682753 307.866786 104.923678 327.040475 500.552274 65.834404 636.69907-5.877871 0-18.710131 11.497868-28.196179 13.352099 0-1.949398 5.966898-10.380418 10.759041-19.134803C794.415115 825.984111 802.213731 796.916075 809.896714 767.843946L809.896714 767.843946 809.896714 767.843946zM809.896714 767.843946" p-id="4788"></path></svg>