<?xml version="1.0" standalone="no"?><!DOCTYPE svg PUBLIC "-//W3C//DTD SVG 1.1//EN" "http://www.w3.org/Graphics/SVG/1.1/DTD/svg11.dtd"><svg t="1550456003282" class="icon" style="" viewBox="0 0 1024 1024" version="1.1" xmlns="http://www.w3.org/2000/svg" p-id="9698" xmlns:xlink="http://www.w3.org/1999/xlink" width="300" height="300"><defs><style type="text/css"></style></defs><path d="M184.653 99.491h420.75s79.369 0 94.331 22.472h-77.878v23.962l119.784 1.463s19.462 13.472 19.462 23.962l-139.247 1.491v22.444h154.238s18 9 13.528 28.463H308.993v25.453l488.053-1.519s3.009 19.463 3.009 25.453H308.993v25.425l492.553-1.463s3.009 14.963-4.472 25.425l-488.053 4.528v23.963l480.628-3.009s0 19.463-12.037 25.453l-468.591 3.009v22.444l453.656-3.009s-1.547 23.963-18 28.463l-435.656 1.463v23.962l399.741-2.981s-8.972 29.953-70.397 26.916l-74.813-1.462v22.444l121.247 1.519s50.934 0 58.416 20.953l-179.662 4.528v22.444h211.106s19.462 14.963 19.462 23.962l-485.128 2.981v26.972l495.563-4.472s19.463 13.444 19.463 26.916l-515.025 2.981v22.472H831.5s5.963 7.481 3.009 20.981l-525.544 4.472v22.444h525.544s4.472 13.472 0 23.963l-525.544 3.009v23.963h521.044s4.472 14.962-7.481 26.916H308.965v23.963l503.044-1.519s-1.462 23.991-11.981 25.453h-178.2v25.453l154.238-1.491s-10.491 23.963-20.953 26.972l-133.284 1.519v25.425l89.859-1.462s-13.528 28.434-131.738 23.962l-395.325-1.491V99.466z" p-id="9699"></path></svg>