<?xml version="1.0" standalone="no"?><!DOCTYPE svg PUBLIC "-//W3C//DTD SVG 1.1//EN" "http://www.w3.org/Graphics/SVG/1.1/DTD/svg11.dtd"><svg t="1550455470743" class="icon" style="" viewBox="0 0 1024 1024" version="1.1" xmlns="http://www.w3.org/2000/svg" p-id="8293" xmlns:xlink="http://www.w3.org/1999/xlink" width="300" height="300"><defs><style type="text/css"></style></defs><path d="M1023.565095 508.640486c0-131.171482-177.770799-237.509369-397.031549-237.509369-175.516456 0-324.428997 68.224848-376.791575 162.677033l0-0.086981c-4.859681 8.79327-7.557116 18.336624-7.557116 28.325116 0 23.549346 14.84715 44.515866 38.045501 58.193377l201.279213 116.191302c10.42749 5.699816 22.845311 9.036817 36.235272 9.036817 13.433964 0 25.847691-3.335978 36.274158-8.992815l190.896748-110.291942c12.901845-7.446599 21.073968-19.113313 21.073968-32.126698 0-12.632715-7.730055-23.860431-19.927865-31.370475l-70.968331-41.030485-157.349701 90.807169-119.000278-68.777433c45.955658-41.426505 131.638109-69.308529 229.780337-69.308529 146.7022 0 265.660522 62.301951 265.660522 139.193179-3.142573 119.015627-177.683818 211.125465-389.741515 205.627241C292.298206 713.585181 122.924657 612.462063 126.018112 493.460762l-0.044002 0c1.499144-156.954705 207.281927-282.250362 459.509509-279.795451 22.538319 0.23843 44.539402 1.433652 66.059532 3.599991-51.742455-19.088754-116.390847-30.422893-186.734962-30.422893-56.163137 0-108.792798 7.290033-154.040329 19.883863l0 0c-182.53736 50.107211-310.419935 166.434613-310.419935 301.914214 0 181.415816 229.069139 328.518129 511.656169 328.518129 282.58089 0 511.650029-147.101289 511.650029-328.518129L1023.565095 508.640486 1023.565095 508.640486 1023.565095 508.640486zM1023.565095 508.640486" p-id="8294"></path></svg>