<?xml version="1.0" standalone="no"?><!DOCTYPE svg PUBLIC "-//W3C//DTD SVG 1.1//EN" "http://www.w3.org/Graphics/SVG/1.1/DTD/svg11.dtd"><svg t="1550452692901" class="icon" style="" viewBox="0 0 1024 1024" version="1.1" xmlns="http://www.w3.org/2000/svg" p-id="4067" xmlns:xlink="http://www.w3.org/1999/xlink" width="300" height="300"><defs><style type="text/css"></style></defs><path d="M958.2 488.7l-1.5-19.5-2-19.7-3.2-18.9-3.9-18.9-4.6-18.8-5.6-18.2-6.2-17.9-7-17.6-7.7-17.2-8.5-16.7-9.1-16.7-9.7-15.9-10.5-15.6-11-14.8-11.7-14.8-12.6-14.1-12.9-13.7-13.4-12.8-14-12.6-14.6-11.6-15-11.4-15.5-10.6-16-10.4-16.3-9-17-8.6-17.2-8.1-17.6-7.1-18.3-6.6-18-5.7-18.7-5.1-18.9-4.3v281l-0.3 0.7-0.7 1.1-0.4 1-1.2 1-3.1 1.4-4 1.4-4.6 1.2-5.5 0.8-6.2 0.7-6.2 0.2h-36.5l-1.7 0.5-1.5 0.7-1.1 0.9-0.8 0.7-0.6 1.4-0.2 1.2V503l1.3-1.4 2-1.3 2.3-0.3 2.5-0.7h110.1l2.1-0.3 2.3-0.7 2-1.4 1.7-1.5V180.5l12 5.2 11.6 5.9 11.8 6.3 11.6 6.3 10.4 6.7 11 7.2 10.6 7.7 10.2 8.2 9.8 8.3 9.4 8.7 9.3 8.8 8.8 9.5 8.8 9.5 8.1 10.1 8 10.3 7.6 10.4 6.9 10.8 6.9 11.1 6.4 11.4 5.7 11.3 5.6 12.1 4.9 12.1 4.6 12.2 4.3 12.3 3.6 12.5 3.4 12.9 3 13.1 2.2 13.2 1.8 13.2 1.2 13.6 0.8 13.4 0.3 13.8-0.6 17.2-1.2 17-2 17L866 576l-3.9 16.3-4.5 16.3-4.8 15.5-6 15.4-6.3 14.8-7 15-8.1 14.2-8.3 13.8-8.9 13.4-9.7 13.2-10 12.8-10.9 12.1-11.1 11.3-11.9 11.4-12.3 10.6-12.7 10-13.2 9.5-13.6 8.8-14.3 8.4-14.2 7.8-14.9 6.8-15.3 6.4-15.6 5.6-15.9 4.9-16.1 4.4-16.7 3.5-16.5 3.1-17 1.7V648.2h89.6l3.3-0.3 2.9-0.8 2.7-1.5 2.3-1.7 2.1-2 1.4-2.4 0.2-1.6 0.6-1.1 0.3-1.4V530.9l-1.1 0.8-1.9 0.9-1.6 0.5-2 0.2H532.3l-1.5 0.4-1.2 0.7-1.1 0.5-1.8 1.3-1.3 1.9v123.2h-34.9V537.5l-1.4-1.5-1.7-1.3-1-0.5-1.1-0.5-1.7-0.4H371.3l-2.4-0.6-2.1-0.4-1.7-0.9-1-1.1V635.4l0.2 1.4 0.7 1.1 0.1 1.6 1.6 2.4 1.9 2 2.3 1.7 2.8 1.5 2.8 0.8 3.3 0.3h87.7v213.9l-16.4-2.4-16.3-3.2-16.2-3.7-15.7-4.6-15.5-5.4-15-5.9-14.9-6.5-14.6-7.1-13.9-7.9-13.6-8.2-13.4-9.1-12.8-9.5-12.3-10-12-10.5-11.3-11.1-10.8-11.7-10.5-12-10-12.8-9.3-12.6-8.5-13.5-8.2-13.8-7.6-13.9-7-14.8-6.1-14.4-5.6-15.2-5-15.4-4.1-15.9-3.4-16.1-2.7-16.1-1.9-16.7-1.2-16.6-0.7-16.9 0.2-13.5 1-13.4 1.1-13.2 1.8-13.1 2.4-12.8 2.5-12.7 3.3-12.8 3.4-12.2 4.2-12.2 4.3-12.1 5.1-11.7 5.2-11.8L191 346l6.1-11.3 6.6-11 6.9-10.6 7.3-10.5 7.7-10 8-9.9 8-9.6 8.6-9.4 8.8-8.7 9.5-8.8 9.3-8.5 10-7.9 10.2-7.5 10.2-7.4 10.8-7 10.8-6.6L341 195l11.3-5.7 11.8-5.6v310.9l0.9 1.2 0.9 0.7 0.9 1 1.3 0.5 2.4 1 2.2 0.3h110l2.2 0.7 2 0.3 2.2 0.9 1.4 1.3V371l-0.3-1.5-0.6-1.1-0.8-0.9-1.2-0.7-1.2-0.2-1.5-0.3h-27.3l-9.1-0.2-8.1-1-7.1-1.3-6.5-1.4-2.9-0.7-2.7-1.1-1.9-1-1.9-1-1.3-1.5-1.4-1-0.5-1.6-0.2-1V78l-18.8 4.3-18.1 5.6-17.7 5.6-17.6 6.9-17.2 7.7-17.2 8.2-16.2 8.8-16 9.2-15.3 10.3-15.4 10.5-14.6 11.3-14.1 11.8-13.7 12.5-13 12.7L177 217l-12.3 14-11.4 14.6-10.7 15-10.3 15.3-9.6 15.9-8.7 16-8.4 16.7-7.6 17-6.6 17.4-6.2 17.7-5.1 18.2-4.8 18.3-3.7 18.7-3 18.7-2 19.4-1.5 19.1-0.3 19.6 0.6 22.8 1.6 22.2 3.1 22.2 3.7 21.6 5.1 21.4 6.1 21 6.9 20.5 8.3 19.8 8.7 19.7 9.9 18.8 10.9 18.5 11.6 18.2 12.7 17.1 13.2 16.7 13.9 16 14.8 15.7 15.5 14.4 16.4 13.8 16.7 13.1 17.4 12.2 18.3 11.9 18.9 10.3 19.1 10.1 19.8 8.7 20.5 7.9 20.7 7.1 21 5.8 21.6 5.1 21.9 3.5 22.5 3.1 22.6 1.6 23 0.6 22.8-0.6 22.8-1.6 22.2-3.1 22-3.5 21.5-5.1 21.3-5.8 20.8-7.1 20.3-7.9 19.6-8.7 19.5-10.1 18.5-10.3 18.1-11.9 17.6-12.2 16.9-13.1 16.2-13.8 15.4-14.4 14.9-15.7 14.1-16 13.3-16.7 12.4-17.1 11.8-18.2 10.6-18.5 10-18.8 9.1-19.7 7.7-19.8 7.1-20.5 6-21 5.1-21.4 4-21.6 2.9-22.2 1.6-22.2 0.5-22.8z" p-id="4068"></path><path d="M464.6 317.5l1.4 3.5 1.1 3.3 1.8 2.6 1.6 3.3 2.1 2.6 2.5 2.1 2.6 2.4 2.6 1.9 3 1.4 2.7 1.2 3.1 0.7 3.2 0.8 3.5 0.3H513l3.1-0.3 3.3-0.8 3.3-0.7 2.9-1.2 2.9-1.4 2.5-1.9 2.5-2.4 2.3-2.1 1.9-2.6 2.1-3.3 1.5-2.6 1.5-3.3 1.2-3.5 0.6-3.6 0.5-3.4 0.4-3.7V70.3h-82.1v240.2l0.5 3.4z" p-id="4069"></path></svg>