<?xml version="1.0" standalone="no"?><!DOCTYPE svg PUBLIC "-//W3C//DTD SVG 1.1//EN" "http://www.w3.org/Graphics/SVG/1.1/DTD/svg11.dtd"><svg t="1550452557765" class="icon" style="" viewBox="0 0 1024 1024" version="1.1" xmlns="http://www.w3.org/2000/svg" p-id="1534" xmlns:xlink="http://www.w3.org/1999/xlink" width="300" height="300"><defs><style type="text/css"></style></defs><path d="M101.33504 513.7408l3.50208 41.94304 3.50208 38.44096 10.48576 41.96352 13.96736 34.93888 17.48992 38.46144 20.97152 31.4368 10.46528 17.48992 13.98784 13.96736 24.4736 31.45728 31.45728 24.45312 31.45728 24.4736 34.93888 20.97152 34.95936 17.48992 38.44096 13.96736 38.44096 10.48576 20.97152 3.50208 20.95104 3.50208h83.8656l38.46144-6.98368 41.92256-10.48576 34.95936-13.96736 38.44096-17.48992 31.4368-20.97152 17.48992-10.48576 13.96736-13.98784 31.45728-24.45312 24.4736-31.45728 24.45312-31.45728 20.97152-31.4368 17.46944-38.46144 13.98784-34.93888 10.50624-41.96352 3.4816-17.48992 3.50208-20.95104v-83.88608l-6.9632-41.94304-10.50624-38.44096-13.98784-38.44096-17.46944-34.95936-20.97152-34.95936-10.48576-17.46944-13.96736-13.98784-24.4736-27.9552-31.45728-27.9552-31.45728-24.4736-31.4368-20.95104-38.44096-17.48992-34.95936-13.96736-41.94304-10.50624-17.48992-3.50208h-20.97152l-20.95104-3.50208h-20.97152l-41.94304 3.50208-41.92256 3.50208-38.44096 10.50624-38.44096 13.96736-34.95936 17.48992-34.93888 20.95104-17.48992 10.50624-13.96736 13.96736-31.45728 27.9552-24.4736 27.9552-24.45312 31.45728-20.97152 34.95936-17.48992 34.95936-13.96736 38.44096-10.48576 38.44096-3.50208 20.97152v20.95104l-3.50208 20.97152v20.97152z m-101.33504 0l3.50208-52.4288 3.50208-27.9552 3.50208-24.45312 13.98784-48.9472 6.98368-24.4736 10.48576-20.95104 10.48576-24.4736 10.48576-20.97152 24.4736-41.92256 13.96736-20.97152 17.48992-20.97152L150.3232 150.28224l17.46944-17.48992 17.48992-13.96736 20.97152-17.48992 20.95104-13.96736 20.95104-13.98784 20.97152-10.48576 45.42464-20.95104 45.42464-17.48992 24.4736-6.98368 24.45312-6.98368 24.49408-3.50208 27.9552-3.52256L513.7408 0l52.4288 3.4816 24.45312 3.52256 24.4736 3.50208 48.92672 13.96736 24.4736 7.00416 24.4736 10.48576 20.95104 10.48576 20.97152 10.48576 45.42464 24.4736 17.46944 13.96736 20.97152 17.48992 34.95936 31.45728 17.46944 17.46944 17.48992 17.46944 13.96736 20.97152 13.98784 20.97152 13.96736 20.95104 10.48576 20.95104 24.4736 45.44512 17.46944 45.42464 3.50208 24.45312 7.00416 24.49408 3.50208 24.45312 3.50208 27.9552 3.46112 52.40832-3.50208 52.4288-3.50208 24.45312-3.50208 24.4736-10.50624 48.92672-10.48576 24.4736-6.98368 24.4736-10.50624 20.95104-13.96736 20.95104-24.45312 45.44512-13.98784 17.46944-13.96736 20.97152-34.95936 34.95936-17.46944 17.48992-17.48992 17.46944-20.97152 13.96736-17.46944 13.98784-20.95104 13.96736-24.4736 10.48576-41.94304 24.4736-48.9472 17.46944-24.45312 6.98368-24.4736 3.50208-24.4736 3.50208-24.45312 3.50208-52.36736 3.4816-52.40832-3.4816-27.9552-3.50208-24.49408-3.50208-48.92672-10.48576-24.45312-10.48576-20.97152-6.98368-24.45312-10.48576-20.97152-13.98784-41.94304-24.45312-20.95104-13.98784-20.97152-13.96736-34.95936-34.95936-17.48992-17.44896-13.96736-17.48992-17.48992-20.97152-13.96736-17.46944-13.96736-20.97152-10.50624-24.4736-20.95104-41.92256-17.46944-48.9472-7.00416-24.45312-6.98368-24.4736-3.50208-24.45312-3.50208-24.45312L0 513.7408z m800.31744 34.95936v227.18464H548.67968V702.464h171.25376v-83.8656H548.6592V391.41376h171.27424v-76.88192h-171.25376v-73.40032H800.31744v227.18464h-171.25376v76.88192h171.23328v3.50208h0.02048z m-576.63488 0v227.18464H475.29984V702.464h-171.23328v-83.8656h171.25376V391.41376h-171.25376v-76.88192h171.23328v-73.40032H223.68256v227.18464h171.25376v76.88192h-171.23328v3.50208h-0.02048z" p-id="1535"></path></svg>