<?xml version="1.0" standalone="no"?><!DOCTYPE svg PUBLIC "-//W3C//DTD SVG 1.1//EN" "http://www.w3.org/Graphics/SVG/1.1/DTD/svg11.dtd"><svg t="1550452631320" class="icon" style="" viewBox="0 0 1024 1024" version="1.1" xmlns="http://www.w3.org/2000/svg" p-id="2265" xmlns:xlink="http://www.w3.org/1999/xlink" width="300" height="300"><defs><style type="text/css"></style></defs><path d="M924.689157 528.804734 754.813165 528.804734c0 0-12.20702 0-17.292851 2.073218-3.051499 1.036609-13.224186 9.329483-13.224186 9.329483l-209.547527 213.533304c-4.068665 3.109828-9.154497 3.109828-13.224186 0L278.753725 526.731516c-3.051499-3.109828-3.051499-9.329483 0-12.43931l223.788879-227.009224c3.051499-4.146437 9.155521-4.146437 12.20702 0L711.071941 487.342414c0 0 8.137331 9.329483 17.292851 12.438287 9.154497 2.073218 22.378683-9.329483 22.378683-9.329483l90.532923-94.327342L576.798818 128.688941c-55.94722-57.011458-116.980271-51.828412-141.393287-48.718585C222.806505 116.250654 69.206198 301.796534 69.206198 522.586103c0 248.776993 202.427362 447.797769 439.439404 447.797769 232.943376 0 428.249551-190.728926 439.439404-431.213046 0-3.109828 1.017166-5.183046-5.085832-9.329483C936.895153 525.694907 924.689157 528.804734 924.689157 528.804734L924.689157 528.804734zM646.987391 121.432677l231.92621 234.264465 64.084551-63.231113c0 0 6.102998-10.366092 8.137331-19.694551 1.017166-5.183046-9.154497-13.474896-9.154497-13.474896L800.587698 114.177436C667.331741-21.61325 518.817266 43.690058 518.817266 43.690058S580.868507 44.726667 646.987391 121.432677L646.987391 121.432677z" p-id="2266"></path></svg>