<?xml version="1.0" standalone="no"?><!DOCTYPE svg PUBLIC "-//W3C//DTD SVG 1.1//EN" "http://www.w3.org/Graphics/SVG/1.1/DTD/svg11.dtd"><svg t="1550455088485" class="icon" style="" viewBox="0 0 1024 1024" version="1.1" xmlns="http://www.w3.org/2000/svg" p-id="6195" xmlns:xlink="http://www.w3.org/1999/xlink" width="300" height="300"><defs><style type="text/css"></style></defs><path d="M93.986 568.88l-4.943 28.05 148.411 0 6.586-28.05L93.986 568.88 93.986 568.88zM471.608 596.93l4.943-28.05-168.2 0-6.602 28.05L471.608 596.93 471.608 596.93zM565.579 455.12l-23.074 113.76-6.602 28.05-23.09 113.775-64.295 0L278.676 710.705l-4.943 26.375 273.716 0 36.277-168.2L606.8 455.12l64.327 0 263.829 0-24.732 113.76L648.036 568.88l-59.367 281.977-64.311 0L248.983 850.857l-4.943 26.375 380.906 0 36.278-166.526 23.09-113.775 65.953 0L905.28 596.931l-23.09 113.775L725.535 710.706l-34.619 166.526-24.748 113.792-64.296 0L154.997 991.024l59.367-280.318L64.311 710.706 0 710.706 24.732 596.93l4.943-28.05 24.732-113.76 64.312 0 148.411 0 59.367-280.334 64.295 0 169.858 0 29.676-141.81 19.789 0L1024 32.976l-24.732 113.776L629.905 146.752l-4.959 28.033-23.074 113.776-65.969 0L367.719 288.561l-6.602 26.375 275.374 0 4.943-26.375 24.733-113.776 64.311 0 263.829 0-24.717 113.776L707.389 288.561l-29.676 140.166-64.312 0L338.043 428.727l-6.602 26.392 169.843 0L565.579 455.119 565.579 455.12z" p-id="6196"></path></svg>